# https://github.com/mikedh/trimesh
v -3.09471965 -35.77951050 561.55590820
v -3.09471965 -38.69037628 560.93060303
v -3.09471965 -35.74037933 560.92926025
v -3.09471965 -38.72995377 560.53070068
v -3.09471965 -38.84679031 560.14617920
v -3.09471965 -38.72957993 561.33056641
v -3.09471965 -35.89688110 562.17279053
v -3.09471965 -36.09063721 562.77001953
v -3.09471965 -38.84605789 561.71520996
v -3.09471965 -36.35771942 563.33831787
v -3.09471965 -39.03533173 562.06970215
v -3.09471965 -36.69392014 563.86859131
v -3.09471965 -37.09393692 564.35260010
v -3.09471965 -39.29013062 562.38049316
v -3.09471965 -37.55146027 564.78265381
v -3.09471965 -38.05927277 565.15197754
v -3.09471965 -39.60066223 562.63555908
v -3.09471965 -38.60936737 565.45471191
v -3.09471965 -39.95499039 562.82519531
v -3.09471965 -39.19307327 565.68615723
v -3.09471965 -40.33950424 562.94201660
v -3.09471965 -39.80117798 565.84259033
v -3.09471965 -40.42409515 565.92156982
v -3.09471965 -40.73942184 562.98156738
v -3.09471965 -41.05200195 565.92187500
v -3.09471965 -41.13937378 562.94238281
v -3.09471965 -41.67499161 565.84344482
v -3.09471965 -42.28324127 565.68756104
v -3.09471965 -41.52399445 562.82592773
v -3.09471965 -42.86716080 565.45672607
v -3.09471965 -41.87850189 562.63659668
v -3.09471965 -43.41754150 565.15447998
v -3.09471965 -42.18927002 562.38183594
v -3.09471965 -43.92569733 564.78564453
v -3.09471965 -44.38362122 564.35601807
v -3.09471965 -42.44435883 562.07128906
v -3.09471965 -44.78408813 563.87237549
v -3.09471965 -45.12078476 563.34240723
v -3.09471965 -42.63396454 561.71697998
v -3.09471965 -45.38840103 562.77435303
v -3.09471965 -42.75080109 561.33245850
v -3.09471965 -45.58271027 562.17730713
v -3.09471965 -45.70065689 561.56054688
v -3.09471965 -42.79037857 560.93255615
v -3.09471965 -45.74037552 560.93389893
v -3.09471965 -42.75117493 560.53259277
v -3.09471965 -42.63469696 560.14794922
v -3.09471965 -42.44542313 559.79345703
v -3.09471965 -45.74317932 554.93389893
v -3.09471965 -42.19062424 559.48266602
v -3.09471965 -41.88009262 559.22760010
v -3.09471965 -41.52576065 559.03796387
v -3.09471965 -41.14125061 558.92114258
v -3.09471965 -40.74133301 558.88159180
v -3.09471965 -35.74317932 554.92926025
v -3.09471965 -40.34138107 558.92077637
v -3.09471965 -39.95676041 559.03723145
v -3.09471965 -39.60225296 559.22656250
v -3.09471965 -39.29148483 559.48132324
v -3.09471965 -39.03639603 559.79187012
v -9.24471951 -35.74037933 560.92926025
v -9.24471951 -35.75251389 534.92926025
v -15.24471951 -35.75601578 527.42926025
v -9.24471951 -35.75601578 527.42926025
v 8.25528049 -35.75251389 534.92926025
v 2.10528040 -35.74317932 554.92926025
v 8.25528049 -35.74037933 560.92926025
v 2.10528040 -35.74037933 560.92926025
v 8.25528049 -35.73477554 572.92926025
v 14.25528049 -35.73477554 572.92926025
v 14.25528049 -35.75601578 527.42926025
v 8.25528049 -35.75601578 527.42926025
v -15.24471951 -35.73477554 572.92926025
v -9.24471951 -35.73477554 572.92926025
v 2.10528040 -45.74317932 554.93389893
v 2.10528040 -40.74133301 558.88159180
v 2.10528040 -40.34138107 558.92077637
v 2.10528040 -39.95676041 559.03723145
v 2.10528040 -45.74037552 560.93389893
v 2.10528040 -42.44542313 559.79345703
v 2.10528040 -42.19062424 559.48266602
v 2.10528040 -41.88009262 559.22760010
v 2.10528040 -45.70065689 561.56054688
v 2.10528040 -42.79037857 560.93255615
v 2.10528040 -42.75117493 560.53259277
v 2.10528040 -42.63469696 560.14794922
v 2.10528040 -42.75080109 561.33245850
v 2.10528040 -45.58271027 562.17730713
v 2.10528040 -45.38840103 562.77435303
v 2.10528040 -42.63396454 561.71697998
v 2.10528040 -45.12078476 563.34240723
v 2.10528040 -42.44435883 562.07128906
v 2.10528040 -44.78408813 563.87237549
v 2.10528040 -44.38362122 564.35601807
v 2.10528040 -42.18927002 562.38183594
v 2.10528040 -43.92569733 564.78564453
v 2.10528040 -43.41754150 565.15447998
v 2.10528040 -41.87850189 562.63659668
v 2.10528040 -42.86716080 565.45672607
v 2.10528040 -41.52399445 562.82592773
v 2.10528040 -42.28324127 565.68756104
v 2.10528040 -41.13937378 562.94238281
v 2.10528040 -41.67499161 565.84344482
v 2.10528040 -41.05200195 565.92187500
v 2.10528040 -40.73942184 562.98156738
v 2.10528040 -40.42409515 565.92156982
v 2.10528040 -40.33950424 562.94201660
v 2.10528040 -39.80117798 565.84259033
v 2.10528040 -39.19307327 565.68615723
v 2.10528040 -39.95499039 562.82519531
v 2.10528040 -38.60936737 565.45471191
v 2.10528040 -39.60066223 562.63555908
v 2.10528040 -38.05927277 565.15197754
v 2.10528040 -39.29013062 562.38049316
v 2.10528040 -37.55146027 564.78265381
v 2.10528040 -37.09393692 564.35260010
v 2.10528040 -39.03533173 562.06970215
v 2.10528040 -36.69392014 563.86859131
v 2.10528040 -36.35771942 563.33831787
v 2.10528040 -38.84605789 561.71520996
v 2.10528040 -36.09063721 562.77001953
v 2.10528040 -38.72957993 561.33056641
v 2.10528040 -35.89688110 562.17279053
v 2.10528040 -35.77951050 561.55590820
v 2.10528040 -38.69037628 560.93060303
v 2.10528040 -38.72995377 560.53070068
v 2.10528040 -38.84679031 560.14617920
v 2.10528040 -39.03639603 559.79187012
v 2.10528040 -39.29148483 559.48132324
v 2.10528040 -39.60225296 559.22656250
v 2.10528040 -41.52576065 559.03796387
v 2.10528040 -41.14125061 558.92114258
v 8.25528049 -35.77951050 561.55590820
v 8.25528049 -35.89688110 562.17279053
v 8.25528049 -36.09063721 562.77001953
v 8.25528049 -36.35771942 563.33831787
v 8.25528049 -36.69392014 563.86859131
v 8.25528049 -37.09393692 564.35260010
v 8.25528049 -37.55146027 564.78265381
v 8.25528049 -38.05927277 565.15197754
v 8.25528049 -38.60936737 565.45471191
v 8.25528049 -39.19307327 565.68615723
v 8.25528049 -39.80117798 565.84259033
v 8.25528049 -40.42409515 565.92156982
v 8.25528049 -41.05200195 565.92187500
v 8.25528049 -41.67499161 565.84344482
v 8.25528049 -42.28324127 565.68756104
v 8.25528049 -42.86716080 565.45672607
v 8.25528049 -43.41754150 565.15447998
v 8.25528049 -43.92569733 564.78564453
v 8.25528049 -44.38362122 564.35601807
v 8.25528049 -44.78408813 563.87237549
v 8.25528049 -45.12078476 563.34240723
v 8.25528049 -45.38840103 562.77435303
v 8.25528049 -45.58271027 562.17730713
v 8.25528049 -45.70065689 561.56054688
v 8.25528049 -45.74037552 560.93389893
v -9.24471951 -45.74037552 560.93389893
v -9.24471951 -45.75251389 534.93389893
v 8.25528049 -45.75251389 534.93389893
v -9.24471951 -45.73477554 572.93389893
v -15.24471951 -45.73477554 572.93389893
v -15.24471951 -45.75578308 527.93389893
v -9.24471951 -45.75578308 527.93389893
v 8.25528049 -45.75578308 527.93389893
v 14.25528049 -45.75578308 527.93389893
v 14.25528049 -45.73477554 572.93389893
v 8.25528049 -45.73477554 572.93389893
v -11.24471951 -40.33950424 562.94201660
v -11.24471951 -40.73942184 562.98156738
v -11.24471951 -41.13937378 562.94238281
v -11.24471951 -41.52399445 562.82592773
v -11.24471951 -41.87850189 562.63659668
v -11.24471951 -42.18927002 562.38183594
v -11.24471951 -42.44435883 562.07128906
v -11.24471951 -42.63396454 561.71697998
v -11.24471951 -42.75080109 561.33245850
v -11.24471951 -42.79037857 560.93255615
v -11.24471951 -42.75117493 560.53259277
v -11.24471951 -42.63469696 560.14794922
v -11.24471951 -42.44542313 559.79345703
v -11.24471951 -42.19062424 559.48266602
v -11.24471951 -41.88009262 559.22760010
v -11.24471951 -41.52576065 559.03796387
v -11.24471951 -41.14125061 558.92114258
v -11.24471951 -40.74133301 558.88159180
v -11.24471951 -40.34138107 558.92077637
v -11.24471951 -39.95676041 559.03723145
v -11.24471951 -39.60225296 559.22656250
v -11.24471951 -39.29148483 559.48132324
v -11.24471951 -39.03639603 559.79187012
v -11.24471951 -38.84679031 560.14617920
v -11.24471951 -38.72995377 560.53070068
v -11.24471951 -38.69037628 560.93060303
v -11.24471951 -38.72957993 561.33056641
v -11.24471951 -38.84605789 561.71520996
v -11.24471951 -39.03533173 562.06970215
v -11.24471951 -39.29013062 562.38049316
v -11.24471951 -39.60066223 562.63555908
v -11.24471951 -39.95499039 562.82519531
v 10.25528049 -40.33950424 562.94201660
v 10.25528049 -40.73942184 562.98156738
v 10.25528049 -41.13937378 562.94238281
v 10.25528049 -41.52399445 562.82592773
v 10.25528049 -41.87850189 562.63659668
v 10.25528049 -42.18927002 562.38183594
v 10.25528049 -42.44435883 562.07128906
v 10.25528049 -42.63396454 561.71697998
v 10.25528049 -42.75080109 561.33245850
v 10.25528049 -42.79037857 560.93255615
v 10.25528049 -42.75117493 560.53259277
v 10.25528049 -42.63469696 560.14794922
v 10.25528049 -42.44542313 559.79345703
v 10.25528049 -42.19062424 559.48266602
v 10.25528049 -41.88009262 559.22760010
v 10.25528049 -41.52576065 559.03796387
v 10.25528049 -41.14125061 558.92114258
v 10.25528049 -40.74133301 558.88159180
v 10.25528049 -40.34138107 558.92077637
v 10.25528049 -39.95676041 559.03723145
v 10.25528049 -39.60225296 559.22656250
v 10.25528049 -39.29148483 559.48132324
v 10.25528049 -39.03639603 559.79187012
v 10.25528049 -38.84679031 560.14617920
v 10.25528049 -38.72995377 560.53070068
v 10.25528049 -38.69037628 560.93060303
v 10.25528049 -38.72957993 561.33056641
v 10.25528049 -38.84605789 561.71520996
v 10.25528049 -39.03533173 562.06970215
v 10.25528049 -39.29013062 562.38049316
v 10.25528049 -39.60066223 562.63555908
v 10.25528049 -39.95499039 562.82519531
v 10.25528049 -40.25776291 563.89251709
v 14.25528049 -40.25776291 563.89251709
v 10.25528049 -40.73897552 563.93157959
v 14.25528049 -40.73897552 563.93157959
v 10.25528049 -41.22023010 563.89294434
v 14.25528049 -41.22023010 563.89294434
v 10.25528049 -41.68905258 563.77764893
v 14.25528049 -41.68905258 563.77764893
v 10.25528049 -42.13330460 563.58862305
v 14.25528049 -42.13330460 563.58862305
v 10.25528049 -42.54148483 563.33074951
v 14.25528049 -42.54148483 563.33074951
v 10.25528049 -42.90301514 563.01074219
v 14.25528049 -42.90301514 563.01074219
v 10.25528049 -43.20853424 562.63690186
v 14.25528049 -43.20853424 562.63690186
v 10.25528049 -43.45012665 562.21893311
v 14.25528049 -43.45012665 562.21893311
v 10.25528049 -43.62154007 561.76757812
v 14.25528049 -43.62154007 561.76757812
v 10.25528049 -43.71833420 561.29455566
v 14.25528049 -43.71833420 561.29455566
v 10.25528049 -43.73799896 560.81219482
v 14.25528049 -43.73799896 560.81219482
v 10.25528049 -43.68003082 560.33288574
v 14.25528049 -43.68003082 560.33288574
v 10.25528049 -43.54592133 559.86907959
v 14.25528049 -43.54592133 559.86907959
v 10.25528049 -43.33915329 559.43280029
v 14.25528049 -43.33915329 559.43280029
v 10.25528049 -43.06507874 559.03533936
v 14.25528049 -43.06507874 559.03533936
v 10.25528049 -42.73079300 558.68695068
v 14.25528049 -42.73079300 558.68695068
v 10.25528049 -42.34495926 558.39672852
v 14.25528049 -42.34495926 558.39672852
v 10.25528049 -41.91756439 558.17218018
v 14.25528049 -41.91756439 558.17218018
v 10.25528049 -41.45968246 558.01910400
v 14.25528049 -41.45968246 558.01910400
v 10.25528049 -40.98317337 557.94140625
v 14.25528049 -40.98317337 557.94140625
v 10.25528049 -40.50037384 557.94122314
v 14.25528049 -40.50037384 557.94122314
v 10.25528049 -40.02378845 558.01843262
v 14.25528049 -40.02378845 558.01843262
v 10.25528049 -39.56576538 558.17108154
v 14.25528049 -39.56576538 558.17108154
v 10.25528049 -39.13816452 558.39526367
v 14.25528049 -39.13816452 558.39526367
v 10.25528049 -38.75205612 558.68511963
v 14.25528049 -38.75205612 558.68511963
v 10.25528049 -38.41744995 559.03314209
v 14.25528049 -38.41744995 559.03314209
v 10.25528049 -38.14300156 559.43035889
v 14.25528049 -38.14300156 559.43035889
v 10.25528049 -37.93582535 559.86645508
v 14.25528049 -37.93582535 559.86645508
v 10.25528049 -37.80128479 560.33013916
v 14.25528049 -37.80128479 560.33013916
v 10.25528049 -37.74286652 560.80938721
v 14.25528049 -37.74286652 560.80938721
v 10.25528049 -37.76208115 561.29180908
v 14.25528049 -37.76208115 561.29180908
v 10.25528049 -37.85843277 561.76489258
v 14.25528049 -37.85843277 561.76489258
v 10.25528049 -38.02942657 562.21636963
v 14.25528049 -38.02942657 562.21636963
v 10.25528049 -38.27062988 562.63464355
v 14.25528049 -38.27062988 562.63464355
v 10.25528049 -38.57580185 563.00872803
v 14.25528049 -38.57580185 563.00872803
v 10.25528049 -38.93703079 563.32904053
v 14.25528049 -38.93703079 563.32904053
v 10.25528049 -39.34496689 563.58728027
v 14.25528049 -39.34496689 563.58728027
v 10.25528049 -39.78904343 563.77673340
v 14.25528049 -39.78904343 563.77673340
v -11.24471951 -40.26052475 557.97021484
v -15.24471951 -40.26052475 557.97021484
v -11.24471951 -40.74177933 557.93157959
v -15.24471951 -40.74177933 557.93157959
v -11.24471951 -41.22299194 557.97064209
v -15.24471951 -41.22299194 557.97064209
v -11.24471951 -41.69171143 558.08642578
v -15.24471951 -41.69171143 558.08642578
v -11.24471951 -42.13578796 558.27587891
v -15.24471951 -42.13578796 558.27587891
v -11.24471951 -42.54372406 558.53411865
v -15.24471951 -42.54372406 558.53411865
v -11.24471951 -42.90495300 558.85443115
v -15.24471951 -42.90495300 558.85443115
v -11.24471951 -43.21012497 559.22851562
v -15.24471951 -43.21012497 559.22851562
v -11.24471951 -43.45132828 559.64678955
v -15.24471951 -43.45132828 559.64678955
v -11.24471951 -43.62232208 560.09826660
v -15.24471951 -43.62232208 560.09826660
v -11.24471951 -43.71867371 560.57135010
v -15.24471951 -43.71867371 560.57135010
v -11.24471951 -43.73788834 561.05377197
v -15.24471951 -43.73788834 561.05377197
v -11.24471951 -43.67947006 561.53302002
v -15.24471951 -43.67947006 561.53302002
v -11.24471951 -43.54492950 561.99670410
v -15.24471951 -43.54492950 561.99670410
v -11.24471951 -43.33775330 562.43280029
v -15.24471951 -43.33775330 562.43280029
v -11.24471951 -43.06330490 562.83001709
v -15.24471951 -43.06330490 562.83001709
v -11.24471951 -42.72869492 563.17803955
v -15.24471951 -42.72869492 563.17803955
v -11.24471951 -42.34259033 563.46789551
v -15.24471951 -42.34259033 563.46789551
v -11.24471951 -41.91498947 563.69207764
v -15.24471951 -41.91498947 563.69207764
v -11.24471951 -41.45696259 563.84472656
v -15.24471951 -41.45696259 563.84472656
v -11.24471951 -40.98038101 563.92193604
v -15.24471951 -40.98038101 563.92193604
v -11.24471951 -40.49758148 563.92175293
v -15.24471951 -40.49758148 563.92175293
v -11.24471951 -40.02107239 563.84405518
v -15.24471951 -40.02107239 563.84405518
v -11.24471951 -39.56319046 563.69097900
v -15.24471951 -39.56319046 563.69097900
v -11.24471951 -39.13579559 563.46643066
v -15.24471951 -39.13579559 563.46643066
v -11.24471951 -38.74996185 563.17620850
v -15.24471951 -38.74996185 563.17620850
v -11.24471951 -38.41567612 562.82781982
v -15.24471951 -38.41567612 562.82781982
v -11.24471951 -38.14160156 562.43035889
v -15.24471951 -38.14160156 562.43035889
v -11.24471951 -37.93483353 561.99407959
v -15.24471951 -37.93483353 561.99407959
v -11.24471951 -37.80072403 561.53027344
v -15.24471951 -37.80072403 561.53027344
v -11.24471951 -37.74275589 561.05096436
v -15.24471951 -37.74275589 561.05096436
v -11.24471951 -37.76242065 560.56860352
v -15.24471951 -37.76242065 560.56860352
v -11.24471951 -37.85921097 560.09558105
v -15.24471951 -37.85921097 560.09558105
v -11.24471951 -38.03062820 559.64422607
v -15.24471951 -38.03062820 559.64422607
v -11.24471951 -38.27222061 559.22625732
v -15.24471951 -38.27222061 559.22625732
v -11.24471951 -38.57773972 558.85241699
v -15.24471951 -38.57773972 558.85241699
v -11.24471951 -38.93927002 558.53240967
v -15.24471951 -38.93927002 558.53240967
v -11.24471951 -39.34744644 558.27453613
v -15.24471951 -39.34744644 558.27453613
v -11.24471951 -39.79170227 558.08551025
v -15.24471951 -39.79170227 558.08551025
v 8.25528049 -40.35490799 529.94201660
v 10.25528049 -40.35490799 529.94201660
v 8.25528049 -40.75482559 529.98156738
v 10.25528049 -40.75482559 529.98156738
v 8.25528049 -41.15477753 529.94238281
v 10.25528049 -41.15477753 529.94238281
v 8.25528049 -41.53939819 529.82592773
v 10.25528049 -41.53939819 529.82592773
v 8.25528049 -41.89390564 529.63665771
v 10.25528049 -41.89390564 529.63665771
v 8.25528049 -42.20467377 529.38183594
v 10.25528049 -42.20467377 529.38183594
v 8.25528049 -42.45976257 529.07128906
v 10.25528049 -42.45976257 529.07128906
v 8.25528049 -42.64936829 528.71697998
v 10.25528049 -42.64936829 528.71697998
v 8.25528049 -42.76620483 528.33245850
v 10.25528049 -42.76620483 528.33245850
v 8.25528049 -42.80578232 527.93255615
v 10.25528049 -42.80578232 527.93255615
v 8.25528049 -42.76657867 527.53259277
v 10.25528049 -42.76657867 527.53259277
v 8.25528049 -42.65010071 527.14794922
v 10.25528049 -42.65010071 527.14794922
v 8.25528049 -42.46082687 526.79345703
v 10.25528049 -42.46082687 526.79345703
v 8.25528049 -42.20602798 526.48266602
v 10.25528049 -42.20602798 526.48266602
v 8.25528049 -41.89549637 526.22760010
v 10.25528049 -41.89549637 526.22760010
v 8.25528049 -41.54116821 526.03802490
v 10.25528049 -41.54116821 526.03802490
v 8.25528049 -41.15665817 525.92114258
v 10.25528049 -41.15665817 525.92114258
v 8.25528049 -40.75674057 525.88159180
v 10.25528049 -40.75674057 525.88159180
v 8.25528049 -40.35678482 525.92077637
v 10.25528049 -40.35678482 525.92077637
v 8.25528049 -39.97216415 526.03729248
v 10.25528049 -39.97216415 526.03729248
v 8.25528049 -39.61766052 526.22656250
v 10.25528049 -39.61766052 526.22656250
v 8.25528049 -39.30689240 526.48132324
v 10.25528049 -39.30689240 526.48132324
v 8.25528049 -39.05180359 526.79187012
v 10.25528049 -39.05180359 526.79187012
v 8.25528049 -38.86219788 527.14617920
v 10.25528049 -38.86219788 527.14617920
v 8.25528049 -38.74536133 527.53070068
v 10.25528049 -38.74536133 527.53070068
v 8.25528049 -38.70578384 527.93060303
v 10.25528049 -38.70578384 527.93060303
v 8.25528049 -38.74498749 528.33056641
v 10.25528049 -38.74498749 528.33056641
v 8.25528049 -38.86146545 528.71520996
v 10.25528049 -38.86146545 528.71520996
v 8.25528049 -39.05073929 529.06970215
v 10.25528049 -39.05073929 529.06970215
v 8.25528049 -39.30553818 529.38049316
v 10.25528049 -39.30553818 529.38049316
v 8.25528049 -39.61606979 529.63555908
v 10.25528049 -39.61606979 529.63555908
v 8.25528049 -39.97039795 529.82519531
v 10.25528049 -39.97039795 529.82519531
v -11.24471951 -40.35490799 529.94201660
v -9.24471951 -40.35490799 529.94201660
v -11.24471951 -40.75482559 529.98156738
v -9.24471951 -40.75482559 529.98156738
v -11.24471951 -41.15477753 529.94238281
v -9.24471951 -41.15477753 529.94238281
v -11.24471951 -41.53939819 529.82592773
v -9.24471951 -41.53939819 529.82592773
v -11.24471951 -41.89390564 529.63665771
v -9.24471951 -41.89390564 529.63665771
v -11.24471951 -42.20467377 529.38183594
v -9.24471951 -42.20467377 529.38183594
v -11.24471951 -42.45976257 529.07128906
v -9.24471951 -42.45976257 529.07128906
v -11.24471951 -42.64936829 528.71697998
v -9.24471951 -42.64936829 528.71697998
v -11.24471951 -42.76620483 528.33245850
v -9.24471951 -42.76620483 528.33245850
v -11.24471951 -42.80578232 527.93255615
v -9.24471951 -42.80578232 527.93255615
v -11.24471951 -42.76657867 527.53259277
v -9.24471951 -42.76657867 527.53259277
v -11.24471951 -42.65010071 527.14794922
v -9.24471951 -42.65010071 527.14794922
v -11.24471951 -42.46082687 526.79345703
v -9.24471951 -42.46082687 526.79345703
v -11.24471951 -42.20602798 526.48266602
v -9.24471951 -42.20602798 526.48266602
v -11.24471951 -41.89549637 526.22760010
v -9.24471951 -41.89549637 526.22760010
v -11.24471951 -41.54116821 526.03802490
v -9.24471951 -41.54116821 526.03802490
v -11.24471951 -41.15665817 525.92114258
v -9.24471951 -41.15665817 525.92114258
v -11.24471951 -40.75674057 525.88159180
v -9.24471951 -40.75674057 525.88159180
v -11.24471951 -40.35678482 525.92077637
v -9.24471951 -40.35678482 525.92077637
v -11.24471951 -39.97216415 526.03729248
v -9.24471951 -39.97216415 526.03729248
v -11.24471951 -39.61766052 526.22656250
v -9.24471951 -39.61766052 526.22656250
v -11.24471951 -39.30689240 526.48132324
v -9.24471951 -39.30689240 526.48132324
v -11.24471951 -39.05180359 526.79187012
v -9.24471951 -39.05180359 526.79187012
v -11.24471951 -38.86219788 527.14617920
v -9.24471951 -38.86219788 527.14617920
v -11.24471951 -38.74536133 527.53070068
v -9.24471951 -38.74536133 527.53070068
v -11.24471951 -38.70578384 527.93060303
v -9.24471951 -38.70578384 527.93060303
v -11.24471951 -38.74498749 528.33056641
v -9.24471951 -38.74498749 528.33056641
v -11.24471951 -38.86146545 528.71520996
v -9.24471951 -38.86146545 528.71520996
v -11.24471951 -39.05073929 529.06970215
v -9.24471951 -39.05073929 529.06970215
v -11.24471951 -39.30553818 529.38049316
v -9.24471951 -39.30553818 529.38049316
v -11.24471951 -39.61606979 529.63555908
v -9.24471951 -39.61606979 529.63555908
v -11.24471951 -39.97039795 529.82519531
v -9.24471951 -39.97039795 529.82519531
v 8.25528049 -40.33390045 574.94201660
v 10.25528049 -40.33390045 574.94201660
v 8.25528049 -40.73381805 574.98156738
v 10.25528049 -40.73381805 574.98156738
v 8.25528049 -41.13376999 574.94238281
v 10.25528049 -41.13376999 574.94238281
v 8.25528049 -41.51839066 574.82592773
v 10.25528049 -41.51839066 574.82592773
v 8.25528049 -41.87289810 574.63659668
v 10.25528049 -41.87289810 574.63659668
v 8.25528049 -42.18366623 574.38183594
v 10.25528049 -42.18366623 574.38183594
v 8.25528049 -42.43875504 574.07128906
v 10.25528049 -42.43875504 574.07128906
v 8.25528049 -42.62836075 573.71697998
v 10.25528049 -42.62836075 573.71697998
v 8.25528049 -42.74519730 573.33245850
v 10.25528049 -42.74519730 573.33245850
v 8.25528049 -42.78477478 572.93255615
v 10.25528049 -42.78477478 572.93255615
v 8.25528049 -42.74557114 572.53259277
v 10.25528049 -42.74557114 572.53259277
v 8.25528049 -42.62909317 572.14794922
v 10.25528049 -42.62909317 572.14794922
v 8.25528049 -42.43981934 571.79345703
v 10.25528049 -42.43981934 571.79345703
v 8.25528049 -42.18502045 571.48266602
v 10.25528049 -42.18502045 571.48266602
v 8.25528049 -41.87448883 571.22760010
v 10.25528049 -41.87448883 571.22760010
v 8.25528049 -41.52016068 571.03796387
v 10.25528049 -41.52016068 571.03796387
v 8.25528049 -41.13565063 570.92114258
v 10.25528049 -41.13565063 570.92114258
v 8.25528049 -40.73573303 570.88159180
v 10.25528049 -40.73573303 570.88159180
v 8.25528049 -40.33577728 570.92077637
v 10.25528049 -40.33577728 570.92077637
v 8.25528049 -39.95115662 571.03723145
v 10.25528049 -39.95115662 571.03723145
v 8.25528049 -39.59665298 571.22656250
v 10.25528049 -39.59665298 571.22656250
v 8.25528049 -39.28588486 571.48132324
v 10.25528049 -39.28588486 571.48132324
v 8.25528049 -39.03079605 571.79187012
v 10.25528049 -39.03079605 571.79187012
v 8.25528049 -38.84119034 572.14617920
v 10.25528049 -38.84119034 572.14617920
v 8.25528049 -38.72435379 572.53070068
v 10.25528049 -38.72435379 572.53070068
v 8.25528049 -38.68477631 572.93060303
v 10.25528049 -38.68477631 572.93060303
v 8.25528049 -38.72397995 573.33056641
v 10.25528049 -38.72397995 573.33056641
v 8.25528049 -38.84045792 573.71520996
v 10.25528049 -38.84045792 573.71520996
v 8.25528049 -39.02973175 574.06970215
v 10.25528049 -39.02973175 574.06970215
v 8.25528049 -39.28453064 574.38049316
v 10.25528049 -39.28453064 574.38049316
v 8.25528049 -39.59506226 574.63555908
v 10.25528049 -39.59506226 574.63555908
v 8.25528049 -39.94939041 574.82519531
v 10.25528049 -39.94939041 574.82519531
v -11.24471951 -40.33390045 574.94201660
v -9.24471951 -40.33390045 574.94201660
v -11.24471951 -40.73381805 574.98156738
v -9.24471951 -40.73381805 574.98156738
v -11.24471951 -41.13376999 574.94238281
v -9.24471951 -41.13376999 574.94238281
v -11.24471951 -41.51839066 574.82592773
v -9.24471951 -41.51839066 574.82592773
v -11.24471951 -41.87289810 574.63659668
v -9.24471951 -41.87289810 574.63659668
v -11.24471951 -42.18366623 574.38183594
v -9.24471951 -42.18366623 574.38183594
v -11.24471951 -42.43875504 574.07128906
v -9.24471951 -42.43875504 574.07128906
v -11.24471951 -42.62836075 573.71697998
v -9.24471951 -42.62836075 573.71697998
v -11.24471951 -42.74519730 573.33245850
v -9.24471951 -42.74519730 573.33245850
v -11.24471951 -42.78477478 572.93255615
v -9.24471951 -42.78477478 572.93255615
v -11.24471951 -42.74557114 572.53259277
v -9.24471951 -42.74557114 572.53259277
v -11.24471951 -42.62909317 572.14794922
v -9.24471951 -42.62909317 572.14794922
v -11.24471951 -42.43981934 571.79345703
v -9.24471951 -42.43981934 571.79345703
v -11.24471951 -42.18502045 571.48266602
v -9.24471951 -42.18502045 571.48266602
v -11.24471951 -41.87448883 571.22760010
v -9.24471951 -41.87448883 571.22760010
v -11.24471951 -41.52016068 571.03796387
v -9.24471951 -41.52016068 571.03796387
v -11.24471951 -41.13565063 570.92114258
v -9.24471951 -41.13565063 570.92114258
v -11.24471951 -40.73573303 570.88159180
v -9.24471951 -40.73573303 570.88159180
v -11.24471951 -40.33577728 570.92077637
v -9.24471951 -40.33577728 570.92077637
v -11.24471951 -39.95115662 571.03723145
v -9.24471951 -39.95115662 571.03723145
v -11.24471951 -39.59665298 571.22656250
v -9.24471951 -39.59665298 571.22656250
v -11.24471951 -39.28588486 571.48132324
v -9.24471951 -39.28588486 571.48132324
v -11.24471951 -39.03079605 571.79187012
v -9.24471951 -39.03079605 571.79187012
v -11.24471951 -38.84119034 572.14617920
v -9.24471951 -38.84119034 572.14617920
v -11.24471951 -38.72435379 572.53070068
v -9.24471951 -38.72435379 572.53070068
v -11.24471951 -38.68477631 572.93060303
v -9.24471951 -38.68477631 572.93060303
v -11.24471951 -38.72397995 573.33056641
v -9.24471951 -38.72397995 573.33056641
v -11.24471951 -38.84045792 573.71520996
v -9.24471951 -38.84045792 573.71520996
v -11.24471951 -39.02973175 574.06970215
v -9.24471951 -39.02973175 574.06970215
v -11.24471951 -39.28453064 574.38049316
v -9.24471951 -39.28453064 574.38049316
v -11.24471951 -39.59506226 574.63555908
v -9.24471951 -39.59506226 574.63555908
v -11.24471951 -39.94939041 574.82519531
v -9.24471951 -39.94939041 574.82519531
v 10.25528049 -40.27316666 530.89251709
v 14.25528049 -40.27316666 530.89251709
v 10.25528049 -40.75438309 530.93157959
v 14.25528049 -40.75438309 530.93157959
v 10.25528049 -41.23563385 530.89294434
v 14.25528049 -41.23563385 530.89294434
v 10.25528049 -41.70445633 530.77764893
v 14.25528049 -41.70445633 530.77764893
v 10.25528049 -42.14871216 530.58862305
v 14.25528049 -42.14871216 530.58862305
v 10.25528049 -42.55688858 530.33074951
v 14.25528049 -42.55688858 530.33074951
v 10.25528049 -42.91841888 530.01074219
v 14.25528049 -42.91841888 530.01074219
v 10.25528049 -43.22393799 529.63690186
v 14.25528049 -43.22393799 529.63690186
v 10.25528049 -43.46553421 529.21893311
v 14.25528049 -43.46553421 529.21893311
v 10.25528049 -43.63694763 528.76757812
v 14.25528049 -43.63694763 528.76757812
v 10.25528049 -43.73374176 528.29455566
v 14.25528049 -43.73374176 528.29455566
v 10.25528049 -43.75340652 527.81219482
v 14.25528049 -43.75340652 527.81219482
v 10.25528049 -43.69543457 527.33288574
v 14.25528049 -43.69543457 527.33288574
v 10.25528049 -43.56132889 526.86907959
v 14.25528049 -43.56132889 526.86907959
v 10.25528049 -43.35456085 526.43280029
v 14.25528049 -43.35456085 526.43280029
v 10.25528049 -43.08048248 526.03533936
v 14.25528049 -43.08048248 526.03533936
v 10.25528049 -42.74620056 525.68695068
v 14.25528049 -42.74620056 525.68695068
v 10.25528049 -42.36036301 525.39678955
v 14.25528049 -42.36036301 525.39678955
v 10.25528049 -41.93297195 525.17218018
v 14.25528049 -41.93297195 525.17218018
v 10.25528049 -41.47509003 525.01910400
v 14.25528049 -41.47509003 525.01910400
v 10.25528049 -40.99857712 524.94140625
v 14.25528049 -40.99857712 524.94140625
v 10.25528049 -40.51577759 524.94122314
v 14.25528049 -40.51577759 524.94122314
v 10.25528049 -40.03919601 525.01843262
v 14.25528049 -40.03919601 525.01843262
v 10.25528049 -39.58117294 525.17108154
v 14.25528049 -39.58117294 525.17108154
v 10.25528049 -39.15356827 525.39526367
v 14.25528049 -39.15356827 525.39526367
v 10.25528049 -38.76746368 525.68511963
v 14.25528049 -38.76746368 525.68511963
v 10.25528049 -38.43285370 526.03314209
v 14.25528049 -38.43285370 526.03314209
v 10.25528049 -38.15840530 526.43035889
v 14.25528049 -38.15840530 526.43035889
v 10.25528049 -37.95122910 526.86645508
v 14.25528049 -37.95122910 526.86645508
v 10.25528049 -37.81669235 527.33013916
v 14.25528049 -37.81669235 527.33013916
v 10.25528049 -37.75827408 527.80938721
v 14.25528049 -37.75827408 527.80938721
v 10.25528049 -37.77748871 528.29180908
v 14.25528049 -37.77748871 528.29180908
v 10.25528049 -37.87384033 528.76489258
v 14.25528049 -37.87384033 528.76489258
v 10.25528049 -38.04483032 529.21636963
v 14.25528049 -38.04483032 529.21636963
v 10.25528049 -38.28603745 529.63464355
v 14.25528049 -38.28603745 529.63464355
v 10.25528049 -38.59120560 530.00872803
v 14.25528049 -38.59120560 530.00872803
v 10.25528049 -38.95243835 530.32904053
v 14.25528049 -38.95243835 530.32904053
v 10.25528049 -39.36037445 530.58728027
v 14.25528049 -39.36037445 530.58728027
v 10.25528049 -39.80445099 530.77673340
v 14.25528049 -39.80445099 530.77673340
v 10.25528049 -40.25215912 575.89251709
v 14.25528049 -40.25215912 575.89251709
v 10.25528049 -40.73337555 575.93157959
v 14.25528049 -40.73337555 575.93157959
v 10.25528049 -41.21462631 575.89294434
v 14.25528049 -41.21462631 575.89294434
v 10.25528049 -41.68344879 575.77764893
v 14.25528049 -41.68344879 575.77764893
v 10.25528049 -42.12770462 575.58862305
v 14.25528049 -42.12770462 575.58862305
v 10.25528049 -42.53588104 575.33074951
v 14.25528049 -42.53588104 575.33074951
v 10.25528049 -42.89741135 575.01074219
v 14.25528049 -42.89741135 575.01074219
v 10.25528049 -43.20293045 574.63690186
v 14.25528049 -43.20293045 574.63690186
v 10.25528049 -43.44452667 574.21893311
v 14.25528049 -43.44452667 574.21893311
v 10.25528049 -43.61594009 573.76757812
v 14.25528049 -43.61594009 573.76757812
v 10.25528049 -43.71273422 573.29455566
v 14.25528049 -43.71273422 573.29455566
v 10.25528049 -43.73239899 572.81219482
v 14.25528049 -43.73239899 572.81219482
v 10.25528049 -43.67442703 572.33288574
v 14.25528049 -43.67442703 572.33288574
v 10.25528049 -43.54032135 571.86907959
v 14.25528049 -43.54032135 571.86907959
v 10.25528049 -43.33354950 571.43280029
v 14.25528049 -43.33354950 571.43280029
v 10.25528049 -43.05947495 571.03533936
v 14.25528049 -43.05947495 571.03533936
v 10.25528049 -42.72519302 570.68695068
v 14.25528049 -42.72519302 570.68695068
v 10.25528049 -42.33935547 570.39672852
v 14.25528049 -42.33935547 570.39672852
v 10.25528049 -41.91196442 570.17218018
v 14.25528049 -41.91196442 570.17218018
v 10.25528049 -41.45408249 570.01910400
v 14.25528049 -41.45408249 570.01910400
v 10.25528049 -40.97756958 569.94140625
v 14.25528049 -40.97756958 569.94140625
v 10.25528049 -40.49477005 569.94122314
v 14.25528049 -40.49477005 569.94122314
v 10.25528049 -40.01818848 570.01843262
v 14.25528049 -40.01818848 570.01843262
v 10.25528049 -39.56016541 570.17108154
v 14.25528049 -39.56016541 570.17108154
v 10.25528049 -39.13256073 570.39526367
v 14.25528049 -39.13256073 570.39526367
v 10.25528049 -38.74645615 570.68511963
v 14.25528049 -38.74645615 570.68511963
v 10.25528049 -38.41184616 571.03314209
v 14.25528049 -38.41184616 571.03314209
v 10.25528049 -38.13739777 571.43035889
v 14.25528049 -38.13739777 571.43035889
v 10.25528049 -37.93022156 571.86645508
v 14.25528049 -37.93022156 571.86645508
v 10.25528049 -37.79568481 572.33013916
v 14.25528049 -37.79568481 572.33013916
v 10.25528049 -37.73726654 572.80938721
v 14.25528049 -37.73726654 572.80938721
v 10.25528049 -37.75648117 573.29180908
v 14.25528049 -37.75648117 573.29180908
v 10.25528049 -37.85283279 573.76489258
v 14.25528049 -37.85283279 573.76489258
v 10.25528049 -38.02382278 574.21636963
v 14.25528049 -38.02382278 574.21636963
v 10.25528049 -38.26502991 574.63464355
v 14.25528049 -38.26502991 574.63464355
v 10.25528049 -38.57019806 575.00872803
v 14.25528049 -38.57019806 575.00872803
v 10.25528049 -38.93143082 575.32904053
v 14.25528049 -38.93143082 575.32904053
v 10.25528049 -39.33936691 575.58728027
v 14.25528049 -39.33936691 575.58728027
v 10.25528049 -39.78344345 575.77673340
v 14.25528049 -39.78344345 575.77673340
v -11.24471951 -40.27593231 524.97021484
v -15.24471951 -40.27593231 524.97021484
v -11.24471951 -40.75718307 524.93157959
v -15.24471951 -40.75718307 524.93157959
v -11.24471951 -41.23839951 524.97064209
v -15.24471951 -41.23839951 524.97064209
v -11.24471951 -41.70711517 525.08642578
v -15.24471951 -41.70711517 525.08642578
v -11.24471951 -42.15119171 525.27587891
v -15.24471951 -42.15119171 525.27587891
v -11.24471951 -42.55912781 525.53411865
v -15.24471951 -42.55912781 525.53411865
v -11.24471951 -42.92036057 525.85443115
v -15.24471951 -42.92036057 525.85443115
v -11.24471951 -43.22552872 526.22851562
v -15.24471951 -43.22552872 526.22851562
v -11.24471951 -43.46673584 526.64678955
v -15.24471951 -43.46673584 526.64678955
v -11.24471951 -43.63772583 527.09826660
v -15.24471951 -43.63772583 527.09826660
v -11.24471951 -43.73407745 527.57135010
v -15.24471951 -43.73407745 527.57135010
v -11.24471951 -43.75329208 528.05377197
v -15.24471951 -43.75329208 528.05377197
v -11.24471951 -43.69487381 528.53302002
v -15.24471951 -43.69487381 528.53302002
v -11.24471951 -43.56033325 528.99670410
v -15.24471951 -43.56033325 528.99670410
v -11.24471951 -43.35315704 529.43280029
v -15.24471951 -43.35315704 529.43280029
v -11.24471951 -43.07871246 529.83001709
v -15.24471951 -43.07871246 529.83001709
v -11.24471951 -42.74410248 530.17803955
v -15.24471951 -42.74410248 530.17803955
v -11.24471951 -42.35799789 530.46789551
v -15.24471951 -42.35799789 530.46789551
v -11.24471951 -41.93039322 530.69207764
v -15.24471951 -41.93039322 530.69207764
v -11.24471951 -41.47237015 530.84472656
v -15.24471951 -41.47237015 530.84472656
v -11.24471951 -40.99578476 530.92199707
v -15.24471951 -40.99578476 530.92199707
v -11.24471951 -40.51298523 530.92175293
v -15.24471951 -40.51298523 530.92175293
v -11.24471951 -40.03647614 530.84405518
v -15.24471951 -40.03647614 530.84405518
v -11.24471951 -39.57859421 530.69097900
v -15.24471951 -39.57859421 530.69097900
v -11.24471951 -39.15120316 530.46643066
v -15.24471951 -39.15120316 530.46643066
v -11.24471951 -38.76536560 530.17620850
v -15.24471951 -38.76536560 530.17620850
v -11.24471951 -38.43108368 529.82781982
v -15.24471951 -38.43108368 529.82781982
v -11.24471951 -38.15700531 529.43035889
v -15.24471951 -38.15700531 529.43035889
v -11.24471951 -37.95023727 528.99407959
v -15.24471951 -37.95023727 528.99407959
v -11.24471951 -37.81613159 528.53027344
v -15.24471951 -37.81613159 528.53027344
v -11.24471951 -37.75815964 528.05096436
v -15.24471951 -37.75815964 528.05096436
v -11.24471951 -37.77782440 527.56860352
v -15.24471951 -37.77782440 527.56860352
v -11.24471951 -37.87461853 527.09558105
v -15.24471951 -37.87461853 527.09558105
v -11.24471951 -38.04603195 526.64422607
v -15.24471951 -38.04603195 526.64422607
v -11.24471951 -38.28762817 526.22625732
v -15.24471951 -38.28762817 526.22625732
v -11.24471951 -38.59314728 525.85241699
v -15.24471951 -38.59314728 525.85241699
v -11.24471951 -38.95467758 525.53240967
v -15.24471951 -38.95467758 525.53240967
v -11.24471951 -39.36285400 525.27453613
v -15.24471951 -39.36285400 525.27453613
v -11.24471951 -39.80710602 525.08551025
v -15.24471951 -39.80710602 525.08551025
v -11.24471951 -40.25492477 569.97021484
v -15.24471951 -40.25492477 569.97021484
v -11.24471951 -40.73617554 569.93157959
v -15.24471951 -40.73617554 569.93157959
v -11.24471951 -41.21739197 569.97064209
v -15.24471951 -41.21739197 569.97064209
v -11.24471951 -41.68610764 570.08642578
v -15.24471951 -41.68610764 570.08642578
v -11.24471951 -42.13018417 570.27587891
v -15.24471951 -42.13018417 570.27587891
v -11.24471951 -42.53812027 570.53411865
v -15.24471951 -42.53812027 570.53411865
v -11.24471951 -42.89935303 570.85443115
v -15.24471951 -42.89935303 570.85443115
v -11.24471951 -43.20452118 571.22851562
v -15.24471951 -43.20452118 571.22851562
v -11.24471951 -43.44572830 571.64678955
v -15.24471951 -43.44572830 571.64678955
v -11.24471951 -43.61671829 572.09826660
v -15.24471951 -43.61671829 572.09826660
v -11.24471951 -43.71306992 572.57135010
v -15.24471951 -43.71306992 572.57135010
v -11.24471951 -43.73228455 573.05377197
v -15.24471951 -43.73228455 573.05377197
v -11.24471951 -43.67386627 573.53302002
v -15.24471951 -43.67386627 573.53302002
v -11.24471951 -43.53932571 573.99670410
v -15.24471951 -43.53932571 573.99670410
v -11.24471951 -43.33214951 574.43280029
v -15.24471951 -43.33214951 574.43280029
v -11.24471951 -43.05770493 574.83001709
v -15.24471951 -43.05770493 574.83001709
v -11.24471951 -42.72309494 575.17803955
v -15.24471951 -42.72309494 575.17803955
v -11.24471951 -42.33699036 575.46789551
v -15.24471951 -42.33699036 575.46789551
v -11.24471951 -41.90938568 575.69207764
v -15.24471951 -41.90938568 575.69207764
v -11.24471951 -41.45136261 575.84472656
v -15.24471951 -41.45136261 575.84472656
v -11.24471951 -40.97477722 575.92193604
v -15.24471951 -40.97477722 575.92193604
v -11.24471951 -40.49197769 575.92175293
v -15.24471951 -40.49197769 575.92175293
v -11.24471951 -40.01546860 575.84405518
v -15.24471951 -40.01546860 575.84405518
v -11.24471951 -39.55758667 575.69097900
v -15.24471951 -39.55758667 575.69097900
v -11.24471951 -39.13019562 575.46643066
v -15.24471951 -39.13019562 575.46643066
v -11.24471951 -38.74435806 575.17620850
v -15.24471951 -38.74435806 575.17620850
v -11.24471951 -38.41007614 574.82781982
v -15.24471951 -38.41007614 574.82781982
v -11.24471951 -38.13599777 574.43035889
v -15.24471951 -38.13599777 574.43035889
v -11.24471951 -37.92922974 573.99407959
v -15.24471951 -37.92922974 573.99407959
v -11.24471951 -37.79512405 573.53027344
v -15.24471951 -37.79512405 573.53027344
v -11.24471951 -37.73715210 573.05096436
v -15.24471951 -37.73715210 573.05096436
v -11.24471951 -37.75681686 572.56860352
v -15.24471951 -37.75681686 572.56860352
v -11.24471951 -37.85361099 572.09558105
v -15.24471951 -37.85361099 572.09558105
v -11.24471951 -38.02502441 571.64422607
v -15.24471951 -38.02502441 571.64422607
v -11.24471951 -38.26662064 571.22625732
v -15.24471951 -38.26662064 571.22625732
v -11.24471951 -38.57213974 570.85241699
v -15.24471951 -38.57213974 570.85241699
v -11.24471951 -38.93367004 570.53240967
v -15.24471951 -38.93367004 570.53240967
v -11.24471951 -39.34184647 570.27453613
v -15.24471951 -39.34184647 570.27453613
v -11.24471951 -39.78609848 570.08551025
v -15.24471951 -39.78609848 570.08551025
v -9.24471951 -45.70065689 561.56054688
v -9.24471951 -45.58271027 562.17730713
v -9.24471951 -45.38840103 562.77435303
v -9.24471951 -45.12078476 563.34240723
v -9.24471951 -44.78408813 563.87237549
v -9.24471951 -44.38362122 564.35601807
v -9.24471951 -43.92569733 564.78564453
v -9.24471951 -43.41754150 565.15447998
v -9.24471951 -42.86716080 565.45672607
v -9.24471951 -42.28324127 565.68756104
v -9.24471951 -41.67499161 565.84344482
v -9.24471951 -41.05200195 565.92187500
v -9.24471951 -40.42409515 565.92156982
v -9.24471951 -39.80117798 565.84259033
v -9.24471951 -39.19307327 565.68615723
v -9.24471951 -38.60936737 565.45471191
v -9.24471951 -38.05927277 565.15197754
v -9.24471951 -37.55146027 564.78265381
v -9.24471951 -37.09393692 564.35260010
v -9.24471951 -36.69392014 563.86859131
v -9.24471951 -36.35771942 563.33831787
v -9.24471951 -36.09063721 562.77001953
v -9.24471951 -35.89688110 562.17279053
v -9.24471951 -35.77951050 561.55590820
v -15.24471951 -45.69505692 573.56054688
v -9.24471951 -45.69505692 573.56054688
v -15.24471951 -45.57711029 574.17730713
v -9.24471951 -45.57711029 574.17730713
v -15.24471951 -45.38279724 574.77435303
v -9.24471951 -45.38279724 574.77435303
v -15.24471951 -45.11518478 575.34240723
v -9.24471951 -45.11518478 575.34240723
v -15.24471951 -44.77848816 575.87237549
v -9.24471951 -44.77848816 575.87237549
v -15.24471951 -44.37802124 576.35601807
v -9.24471951 -44.37802124 576.35601807
v -15.24471951 -43.92009735 576.78564453
v -9.24471951 -43.92009735 576.78564453
v -15.24471951 -43.41193771 577.15447998
v -9.24471951 -43.41193771 577.15447998
v -15.24471951 -42.86156082 577.45672607
v -9.24471951 -42.86156082 577.45672607
v -15.24471951 -42.27764130 577.68756104
v -9.24471951 -42.27764130 577.68756104
v -15.24471951 -41.66938782 577.84344482
v -9.24471951 -41.66938782 577.84344482
v -15.24471951 -41.04639816 577.92187500
v -9.24471951 -41.04639816 577.92187500
v -15.24471951 -40.41849136 577.92156982
v -9.24471951 -40.41849136 577.92156982
v -15.24471951 -39.79557419 577.84259033
v -9.24471951 -39.79557419 577.84259033
v -15.24471951 -39.18746948 577.68615723
v -9.24471951 -39.18746948 577.68615723
v -15.24471951 -38.60376740 577.45471191
v -9.24471951 -38.60376740 577.45471191
v -15.24471951 -38.05366898 577.15197754
v -9.24471951 -38.05366898 577.15197754
v -15.24471951 -37.54585648 576.78265381
v -9.24471951 -37.54585648 576.78265381
v -15.24471951 -37.08833313 576.35260010
v -9.24471951 -37.08833313 576.35260010
v -15.24471951 -36.68832016 575.86859131
v -9.24471951 -36.68832016 575.86859131
v -15.24471951 -36.35211945 575.33831787
v -9.24471951 -36.35211945 575.33831787
v -15.24471951 -36.08503342 574.77001953
v -9.24471951 -36.08503342 574.77001953
v -15.24471951 -35.89128113 574.17279053
v -9.24471951 -35.89128113 574.17279053
v -15.24471951 -35.77391052 573.55590820
v -9.24471951 -35.77391052 573.55590820
v 14.25528049 -35.77391052 573.55590820
v 8.25528049 -35.77391052 573.55590820
v 14.25528049 -35.89128113 574.17279053
v 8.25528049 -35.89128113 574.17279053
v 14.25528049 -36.08503342 574.77001953
v 8.25528049 -36.08503342 574.77001953
v 14.25528049 -36.35211945 575.33831787
v 8.25528049 -36.35211945 575.33831787
v 14.25528049 -36.68832016 575.86859131
v 8.25528049 -36.68832016 575.86859131
v 14.25528049 -37.08833313 576.35260010
v 8.25528049 -37.08833313 576.35260010
v 14.25528049 -37.54585648 576.78265381
v 8.25528049 -37.54585648 576.78265381
v 14.25528049 -38.05366898 577.15197754
v 8.25528049 -38.05366898 577.15197754
v 14.25528049 -38.60376740 577.45471191
v 8.25528049 -38.60376740 577.45471191
v 14.25528049 -39.18746948 577.68615723
v 8.25528049 -39.18746948 577.68615723
v 14.25528049 -39.79557419 577.84259033
v 8.25528049 -39.79557419 577.84259033
v 14.25528049 -40.41849136 577.92156982
v 8.25528049 -40.41849136 577.92156982
v 14.25528049 -41.04639816 577.92187500
v 8.25528049 -41.04639816 577.92187500
v 14.25528049 -41.66938782 577.84344482
v 8.25528049 -41.66938782 577.84344482
v 14.25528049 -42.27764130 577.68756104
v 8.25528049 -42.27764130 577.68756104
v 14.25528049 -42.86156082 577.45672607
v 8.25528049 -42.86156082 577.45672607
v 14.25528049 -43.41193771 577.15447998
v 8.25528049 -43.41193771 577.15447998
v 14.25528049 -43.92009735 576.78564453
v 8.25528049 -43.92009735 576.78564453
v 14.25528049 -44.37802124 576.35601807
v 8.25528049 -44.37802124 576.35601807
v 14.25528049 -44.77848816 575.87237549
v 8.25528049 -44.77848816 575.87237549
v 14.25528049 -45.11518478 575.34240723
v 8.25528049 -45.11518478 575.34240723
v 14.25528049 -45.38279724 574.77435303
v 8.25528049 -45.38279724 574.77435303
v 14.25528049 -45.57711029 574.17730713
v 8.25528049 -45.57711029 574.17730713
v 14.25528049 -45.69505692 573.56054688
v 8.25528049 -45.69505692 573.56054688
v 8.25528049 -35.78107834 527.42926025
v 14.25528049 -35.78107834 527.42926025
v -9.24471951 -35.78107834 527.42926025
v -15.24471951 -35.78107834 527.42926025
v 14.25528049 -45.71910858 527.32708740
v 8.25528049 -45.71910858 527.32708740
v 8.25528049 -45.60906982 526.72924805
v 14.25528049 -45.60906982 526.72924805
v 8.25528049 -45.42728424 526.14916992
v 14.25528049 -45.42728424 526.14916992
v 8.25528049 -45.17644882 525.59539795
v 14.25528049 -45.17644882 525.59539795
v 8.25528049 -44.86026382 525.07617188
v 14.25528049 -44.86026382 525.07617188
v 8.25528049 -44.48340225 524.59918213
v 14.25528049 -44.48340225 524.59918213
v 8.25528049 -44.05144501 524.17144775
v 14.25528049 -44.05144501 524.17144775
v 8.25528049 -43.57076645 523.79931641
v 14.25528049 -43.57076645 523.79931641
v 8.25528049 -43.04847717 523.48822021
v 14.25528049 -43.04847717 523.48822021
v 8.25528049 -42.49229431 523.24279785
v 14.25528049 -42.49229431 523.24279785
v 8.25528049 -41.91044617 523.06671143
v 14.25528049 -41.91044617 523.06671143
v 8.25528049 -41.31152725 522.96258545
v 14.25528049 -41.31152725 522.96258545
v 8.25528049 -40.70439529 522.93182373
v 14.25528049 -40.70439529 522.93182373
v 8.25528049 -40.09801865 522.97503662
v 14.25528049 -40.09801865 522.97503662
v 8.25528049 -39.50136948 523.09149170
v 14.25528049 -39.50136948 523.09149170
v 8.25528049 -38.92326355 523.27947998
v 14.25528049 -38.92326355 523.27947998
v 8.25528049 -38.37224197 523.53625488
v 14.25528049 -38.37224197 523.53625488
v 8.25528049 -37.85645676 523.85803223
v 14.25528049 -37.85645676 523.85803223
v 8.25528049 -37.38352966 524.23999023
v 14.25528049 -37.38352966 524.23999023
v 8.25528049 -36.96045303 524.67651367
v 14.25528049 -36.96045303 524.67651367
v 8.25528049 -36.59347916 525.16119385
v 14.25528049 -36.59347916 525.16119385
v 8.25528049 -36.28803253 525.68676758
v 14.25528049 -36.28803253 525.68676758
v 8.25528049 -36.04862976 526.24554443
v 14.25528049 -36.04862976 526.24554443
v 8.25528049 -35.87880707 526.82928467
v 14.25528049 -35.87880707 526.82928467
v -15.24471951 -35.87880707 526.82928467
v -9.24471951 -35.87880707 526.82928467
v -9.24471951 -36.04862976 526.24554443
v -15.24471951 -36.04862976 526.24554443
v -9.24471951 -36.28803253 525.68676758
v -15.24471951 -36.28803253 525.68676758
v -9.24471951 -36.59347916 525.16119385
v -15.24471951 -36.59347916 525.16119385
v -9.24471951 -36.96045303 524.67651367
v -15.24471951 -36.96045303 524.67651367
v -9.24471951 -37.38352966 524.23999023
v -15.24471951 -37.38352966 524.23999023
v -9.24471951 -37.85645676 523.85803223
v -15.24471951 -37.85645676 523.85803223
v -9.24471951 -38.37224197 523.53625488
v -15.24471951 -38.37224197 523.53625488
v -9.24471951 -38.92326355 523.27947998
v -15.24471951 -38.92326355 523.27947998
v -9.24471951 -39.50136948 523.09149170
v -15.24471951 -39.50136948 523.09149170
v -9.24471951 -40.09801865 522.97503662
v -15.24471951 -40.09801865 522.97503662
v -9.24471951 -40.70439529 522.93182373
v -15.24471951 -40.70439529 522.93182373
v -9.24471951 -41.31152725 522.96258545
v -15.24471951 -41.31152725 522.96258545
v -9.24471951 -41.91044617 523.06671143
v -15.24471951 -41.91044617 523.06671143
v -9.24471951 -42.49229431 523.24279785
v -15.24471951 -42.49229431 523.24279785
v -9.24471951 -43.04847717 523.48822021
v -15.24471951 -43.04847717 523.48822021
v -9.24471951 -43.57076645 523.79931641
v -15.24471951 -43.57076645 523.79931641
v -9.24471951 -44.05144501 524.17144775
v -15.24471951 -44.05144501 524.17144775
v -9.24471951 -44.48340225 524.59918213
v -15.24471951 -44.48340225 524.59918213
v -9.24471951 -44.86026382 525.07617188
v -15.24471951 -44.86026382 525.07617188
v -9.24471951 -45.17644882 525.59539795
v -15.24471951 -45.17644882 525.59539795
v -9.24471951 -45.42728424 526.14916992
v -15.24471951 -45.42728424 526.14916992
v -9.24471951 -45.60906982 526.72924805
v -15.24471951 -45.60906982 526.72924805
v -9.24471951 -45.71910858 527.32708740
v -15.24471951 -45.71910858 527.32708740
f 1 2 3
f 3 2 4
f 3 4 5
f 2 1 6
f 6 1 7
f 6 7 8
f 6 8 9
f 9 8 10
f 9 10 11
f 11 10 12
f 11 12 13
f 11 13 14
f 14 13 15
f 14 15 16
f 14 16 17
f 17 16 18
f 17 18 19
f 19 18 20
f 19 20 21
f 21 20 22
f 21 22 23
f 21 23 24
f 24 23 25
f 24 25 26
f 26 25 27
f 26 27 28
f 26 28 29
f 29 28 30
f 29 30 31
f 31 30 32
f 31 32 33
f 33 32 34
f 33 34 35
f 33 35 36
f 36 35 37
f 36 37 38
f 36 38 39
f 39 38 40
f 39 40 41
f 41 40 42
f 41 42 43
f 41 43 44
f 44 43 45
f 44 45 46
f 46 45 47
f 47 45 48
f 48 45 49
f 48 49 50
f 50 49 51
f 51 49 52
f 52 49 53
f 53 49 54
f 54 49 55
f 54 55 56
f 56 55 57
f 57 55 58
f 58 55 59
f 59 55 60
f 60 55 3
f 60 3 5
f 3 55 61
f 61 55 62
f 61 62 63
f 63 62 64
f 62 55 65
f 65 55 66
f 65 66 67
f 67 66 68
f 69 70 67
f 67 70 71
f 67 71 65
f 65 71 72
f 63 73 61
f 61 73 74
f 75 76 66
f 66 76 77
f 66 77 78
f 79 80 75
f 75 80 81
f 75 81 82
f 83 84 79
f 79 84 85
f 79 85 86
f 84 83 87
f 87 83 88
f 87 88 89
f 87 89 90
f 90 89 91
f 90 91 92
f 92 91 93
f 92 93 94
f 92 94 95
f 95 94 96
f 95 96 97
f 95 97 98
f 98 97 99
f 98 99 100
f 100 99 101
f 100 101 102
f 102 101 103
f 102 103 104
f 102 104 105
f 105 104 106
f 105 106 107
f 107 106 108
f 107 108 109
f 107 109 110
f 110 109 111
f 110 111 112
f 112 111 113
f 112 113 114
f 114 113 115
f 114 115 116
f 114 116 117
f 117 116 118
f 117 118 119
f 117 119 120
f 120 119 121
f 120 121 122
f 122 121 123
f 122 123 124
f 122 124 125
f 125 124 68
f 125 68 126
f 126 68 127
f 127 68 128
f 128 68 66
f 128 66 129
f 129 66 130
f 130 66 78
f 86 80 79
f 82 131 75
f 75 131 132
f 75 132 76
f 67 68 133
f 133 68 124
f 133 124 134
f 134 124 123
f 134 123 135
f 135 123 121
f 135 121 136
f 136 121 119
f 136 119 137
f 137 119 118
f 137 118 138
f 138 118 116
f 138 116 139
f 139 116 115
f 139 115 140
f 140 115 113
f 140 113 141
f 141 113 111
f 141 111 142
f 142 111 109
f 142 109 143
f 143 109 108
f 143 108 144
f 144 108 106
f 144 106 145
f 145 106 104
f 145 104 146
f 146 104 103
f 146 103 147
f 147 103 101
f 147 101 148
f 148 101 99
f 148 99 149
f 149 99 97
f 149 97 150
f 150 97 96
f 150 96 151
f 151 96 94
f 151 94 152
f 152 94 93
f 152 93 153
f 153 93 91
f 153 91 154
f 154 91 89
f 154 89 155
f 155 89 88
f 155 88 156
f 156 88 83
f 156 83 157
f 157 83 79
f 45 158 49
f 49 158 159
f 49 159 160
f 161 162 158
f 158 162 163
f 158 163 159
f 159 163 164
f 165 166 160
f 160 166 157
f 160 157 75
f 75 157 79
f 166 167 157
f 157 167 168
f 75 49 160
f 169 21 170
f 170 21 24
f 170 24 171
f 171 24 26
f 171 26 172
f 172 26 29
f 172 29 173
f 173 29 31
f 173 31 174
f 174 31 33
f 174 33 175
f 175 33 36
f 175 36 176
f 176 36 39
f 176 39 177
f 177 39 41
f 177 41 178
f 178 41 44
f 178 44 179
f 179 44 46
f 179 46 180
f 180 46 47
f 180 47 181
f 181 47 48
f 181 48 182
f 182 48 50
f 182 50 183
f 183 50 51
f 183 51 184
f 184 51 52
f 184 52 185
f 185 52 53
f 185 53 186
f 186 53 54
f 186 54 187
f 187 54 56
f 187 56 188
f 188 56 57
f 188 57 189
f 189 57 58
f 189 58 190
f 190 58 59
f 190 59 191
f 191 59 60
f 191 60 192
f 192 60 5
f 192 5 193
f 193 5 4
f 193 4 194
f 194 4 2
f 194 2 195
f 195 2 6
f 195 6 196
f 196 6 9
f 196 9 197
f 197 9 11
f 197 11 198
f 198 11 14
f 198 14 199
f 199 14 17
f 199 17 200
f 200 17 19
f 200 19 169
f 169 19 21
f 107 201 105
f 105 201 202
f 105 202 102
f 102 202 203
f 102 203 100
f 100 203 204
f 100 204 98
f 98 204 205
f 98 205 95
f 95 205 206
f 95 206 92
f 92 206 207
f 92 207 90
f 90 207 208
f 90 208 87
f 87 208 209
f 87 209 84
f 84 209 210
f 84 210 85
f 85 210 211
f 85 211 86
f 86 211 212
f 86 212 80
f 80 212 213
f 80 213 81
f 81 213 214
f 81 214 82
f 82 214 215
f 82 215 131
f 131 215 216
f 131 216 132
f 132 216 217
f 132 217 76
f 76 217 218
f 76 218 77
f 77 218 219
f 77 219 78
f 78 219 220
f 78 220 130
f 130 220 221
f 130 221 129
f 129 221 222
f 129 222 128
f 128 222 223
f 128 223 127
f 127 223 224
f 127 224 126
f 126 224 225
f 126 225 125
f 125 225 226
f 125 226 122
f 122 226 227
f 122 227 120
f 120 227 228
f 120 228 117
f 117 228 229
f 117 229 114
f 114 229 230
f 114 230 112
f 112 230 231
f 112 231 110
f 110 231 232
f 110 232 107
f 107 232 201
f 233 234 235
f 235 234 236
f 235 236 237
f 237 236 238
f 237 238 239
f 239 238 240
f 239 240 241
f 241 240 242
f 241 242 243
f 243 242 244
f 243 244 245
f 245 244 246
f 245 246 247
f 247 246 248
f 247 248 249
f 249 248 250
f 249 250 251
f 251 250 252
f 251 252 253
f 253 252 254
f 253 254 255
f 255 254 256
f 255 256 257
f 257 256 258
f 257 258 259
f 259 258 260
f 259 260 261
f 261 260 262
f 261 262 263
f 263 262 264
f 263 264 265
f 265 264 266
f 265 266 267
f 267 266 268
f 267 268 269
f 269 268 270
f 269 270 271
f 271 270 272
f 271 272 273
f 273 272 274
f 273 274 275
f 275 274 276
f 275 276 277
f 277 276 278
f 277 278 279
f 279 278 280
f 279 280 281
f 281 280 282
f 281 282 283
f 283 282 284
f 283 284 285
f 285 284 286
f 285 286 287
f 287 286 288
f 287 288 289
f 289 288 290
f 289 290 291
f 291 290 292
f 291 292 293
f 293 292 294
f 293 294 295
f 295 294 296
f 295 296 297
f 297 296 298
f 297 298 299
f 299 298 300
f 299 300 301
f 301 300 302
f 301 302 303
f 303 302 304
f 303 304 305
f 305 304 306
f 305 306 307
f 307 306 308
f 307 308 309
f 309 308 310
f 309 310 233
f 233 310 234
f 233 235 202
f 202 235 237
f 202 237 203
f 203 237 239
f 203 239 204
f 204 239 241
f 204 241 205
f 205 241 243
f 205 243 206
f 206 243 245
f 206 245 207
f 207 245 247
f 207 247 249
f 207 249 208
f 208 249 251
f 208 251 209
f 209 251 253
f 209 253 210
f 210 253 255
f 210 255 211
f 211 255 257
f 211 257 259
f 211 259 212
f 212 259 261
f 212 261 213
f 213 261 263
f 213 263 214
f 214 263 265
f 214 265 215
f 215 265 267
f 215 267 216
f 216 267 269
f 216 269 271
f 216 271 217
f 217 271 273
f 217 273 218
f 218 273 275
f 218 275 219
f 219 275 277
f 219 277 220
f 220 277 279
f 220 279 281
f 220 281 221
f 221 281 283
f 221 283 222
f 222 283 285
f 222 285 223
f 223 285 287
f 223 287 224
f 224 287 289
f 224 289 225
f 225 289 291
f 225 291 293
f 225 293 226
f 226 293 295
f 226 295 227
f 227 295 297
f 227 297 228
f 228 297 299
f 228 299 229
f 229 299 301
f 229 301 303
f 229 303 230
f 230 303 305
f 230 305 231
f 231 305 307
f 231 307 232
f 232 307 309
f 232 309 201
f 201 309 233
f 201 233 202
f 311 312 313
f 313 312 314
f 313 314 315
f 315 314 316
f 315 316 317
f 317 316 318
f 317 318 319
f 319 318 320
f 319 320 321
f 321 320 322
f 321 322 323
f 323 322 324
f 323 324 325
f 325 324 326
f 325 326 327
f 327 326 328
f 327 328 329
f 329 328 330
f 329 330 331
f 331 330 332
f 331 332 333
f 333 332 334
f 333 334 335
f 335 334 336
f 335 336 337
f 337 336 338
f 337 338 339
f 339 338 340
f 339 340 341
f 341 340 342
f 341 342 343
f 343 342 344
f 343 344 345
f 345 344 346
f 345 346 347
f 347 346 348
f 347 348 349
f 349 348 350
f 349 350 351
f 351 350 352
f 351 352 353
f 353 352 354
f 353 354 355
f 355 354 356
f 355 356 357
f 357 356 358
f 357 358 359
f 359 358 360
f 359 360 361
f 361 360 362
f 361 362 363
f 363 362 364
f 363 364 365
f 365 364 366
f 365 366 367
f 367 366 368
f 367 368 369
f 369 368 370
f 369 370 371
f 371 370 372
f 371 372 373
f 373 372 374
f 373 374 375
f 375 374 376
f 375 376 377
f 377 376 378
f 377 378 379
f 379 378 380
f 379 380 381
f 381 380 382
f 381 382 383
f 383 382 384
f 383 384 385
f 385 384 386
f 385 386 387
f 387 386 388
f 387 388 311
f 311 388 312
f 311 313 186
f 186 313 315
f 186 315 185
f 185 315 317
f 185 317 184
f 184 317 319
f 184 319 183
f 183 319 321
f 183 321 182
f 182 321 323
f 182 323 181
f 181 323 325
f 181 325 327
f 181 327 180
f 180 327 329
f 180 329 179
f 179 329 331
f 179 331 178
f 178 331 333
f 178 333 177
f 177 333 335
f 177 335 337
f 177 337 176
f 176 337 339
f 176 339 175
f 175 339 341
f 175 341 174
f 174 341 343
f 174 343 173
f 173 343 345
f 173 345 172
f 172 345 347
f 172 347 349
f 172 349 171
f 171 349 351
f 171 351 170
f 170 351 353
f 170 353 169
f 169 353 355
f 169 355 200
f 200 355 357
f 200 357 359
f 200 359 199
f 199 359 361
f 199 361 198
f 198 361 363
f 198 363 197
f 197 363 365
f 197 365 196
f 196 365 367
f 196 367 195
f 195 367 369
f 195 369 371
f 195 371 194
f 194 371 373
f 194 373 193
f 193 373 375
f 193 375 192
f 192 375 377
f 192 377 191
f 191 377 379
f 191 379 381
f 191 381 190
f 190 381 383
f 190 383 189
f 189 383 385
f 189 385 188
f 188 385 387
f 188 387 187
f 187 387 311
f 187 311 186
f 66 55 75
f 75 55 49
f 389 390 391
f 391 390 392
f 391 392 393
f 393 392 394
f 393 394 395
f 395 394 396
f 395 396 397
f 397 396 398
f 397 398 399
f 399 398 400
f 399 400 401
f 401 400 402
f 401 402 403
f 403 402 404
f 403 404 405
f 405 404 406
f 405 406 407
f 407 406 408
f 407 408 409
f 409 408 410
f 409 410 411
f 411 410 412
f 411 412 413
f 413 412 414
f 413 414 415
f 415 414 416
f 415 416 417
f 417 416 418
f 417 418 419
f 419 418 420
f 419 420 421
f 421 420 422
f 421 422 423
f 423 422 424
f 423 424 425
f 425 424 426
f 425 426 427
f 427 426 428
f 427 428 429
f 429 428 430
f 429 430 431
f 431 430 432
f 431 432 433
f 433 432 434
f 433 434 435
f 435 434 436
f 435 436 437
f 437 436 438
f 437 438 439
f 439 438 440
f 439 440 441
f 441 440 442
f 441 442 443
f 443 442 444
f 443 444 445
f 445 444 446
f 445 446 447
f 447 446 448
f 447 448 449
f 449 448 450
f 449 450 451
f 451 450 452
f 451 452 389
f 389 452 390
f 453 454 455
f 455 454 456
f 455 456 457
f 457 456 458
f 457 458 459
f 459 458 460
f 459 460 461
f 461 460 462
f 461 462 463
f 463 462 464
f 463 464 465
f 465 464 466
f 465 466 467
f 467 466 468
f 467 468 469
f 469 468 470
f 469 470 471
f 471 470 472
f 471 472 473
f 473 472 474
f 473 474 475
f 475 474 476
f 475 476 477
f 477 476 478
f 477 478 479
f 479 478 480
f 479 480 481
f 481 480 482
f 481 482 483
f 483 482 484
f 483 484 485
f 485 484 486
f 485 486 487
f 487 486 488
f 487 488 489
f 489 488 490
f 489 490 491
f 491 490 492
f 491 492 493
f 493 492 494
f 493 494 495
f 495 494 496
f 495 496 497
f 497 496 498
f 497 498 499
f 499 498 500
f 499 500 501
f 501 500 502
f 501 502 503
f 503 502 504
f 503 504 505
f 505 504 506
f 505 506 507
f 507 506 508
f 507 508 509
f 509 508 510
f 509 510 511
f 511 510 512
f 511 512 513
f 513 512 514
f 513 514 515
f 515 514 516
f 515 516 453
f 453 516 454
f 517 518 519
f 519 518 520
f 519 520 521
f 521 520 522
f 521 522 523
f 523 522 524
f 523 524 525
f 525 524 526
f 525 526 527
f 527 526 528
f 527 528 529
f 529 528 530
f 529 530 531
f 531 530 532
f 531 532 533
f 533 532 534
f 533 534 535
f 535 534 536
f 535 536 537
f 537 536 538
f 537 538 539
f 539 538 540
f 539 540 541
f 541 540 542
f 541 542 543
f 543 542 544
f 543 544 545
f 545 544 546
f 545 546 547
f 547 546 548
f 547 548 549
f 549 548 550
f 549 550 551
f 551 550 552
f 551 552 553
f 553 552 554
f 553 554 555
f 555 554 556
f 555 556 557
f 557 556 558
f 557 558 559
f 559 558 560
f 559 560 561
f 561 560 562
f 561 562 563
f 563 562 564
f 563 564 565
f 565 564 566
f 565 566 567
f 567 566 568
f 567 568 569
f 569 568 570
f 569 570 571
f 571 570 572
f 571 572 573
f 573 572 574
f 573 574 575
f 575 574 576
f 575 576 577
f 577 576 578
f 577 578 579
f 579 578 580
f 579 580 517
f 517 580 518
f 581 582 583
f 583 582 584
f 583 584 585
f 585 584 586
f 585 586 587
f 587 586 588
f 587 588 589
f 589 588 590
f 589 590 591
f 591 590 592
f 591 592 593
f 593 592 594
f 593 594 595
f 595 594 596
f 595 596 597
f 597 596 598
f 597 598 599
f 599 598 600
f 599 600 601
f 601 600 602
f 601 602 603
f 603 602 604
f 603 604 605
f 605 604 606
f 605 606 607
f 607 606 608
f 607 608 609
f 609 608 610
f 609 610 611
f 611 610 612
f 611 612 613
f 613 612 614
f 613 614 615
f 615 614 616
f 615 616 617
f 617 616 618
f 617 618 619
f 619 618 620
f 619 620 621
f 621 620 622
f 621 622 623
f 623 622 624
f 623 624 625
f 625 624 626
f 625 626 627
f 627 626 628
f 627 628 629
f 629 628 630
f 629 630 631
f 631 630 632
f 631 632 633
f 633 632 634
f 633 634 635
f 635 634 636
f 635 636 637
f 637 636 638
f 637 638 639
f 639 638 640
f 639 640 641
f 641 640 642
f 641 642 643
f 643 642 644
f 643 644 581
f 581 644 582
f 645 646 647
f 647 646 648
f 647 648 649
f 649 648 650
f 649 650 651
f 651 650 652
f 651 652 653
f 653 652 654
f 653 654 655
f 655 654 656
f 655 656 657
f 657 656 658
f 657 658 659
f 659 658 660
f 659 660 661
f 661 660 662
f 661 662 663
f 663 662 664
f 663 664 665
f 665 664 666
f 665 666 667
f 667 666 668
f 667 668 669
f 669 668 670
f 669 670 671
f 671 670 672
f 671 672 673
f 673 672 674
f 673 674 675
f 675 674 676
f 675 676 677
f 677 676 678
f 677 678 679
f 679 678 680
f 679 680 681
f 681 680 682
f 681 682 683
f 683 682 684
f 683 684 685
f 685 684 686
f 685 686 687
f 687 686 688
f 687 688 689
f 689 688 690
f 689 690 691
f 691 690 692
f 691 692 693
f 693 692 694
f 693 694 695
f 695 694 696
f 695 696 697
f 697 696 698
f 697 698 699
f 699 698 700
f 699 700 701
f 701 700 702
f 701 702 703
f 703 702 704
f 703 704 705
f 705 704 706
f 705 706 707
f 707 706 708
f 707 708 709
f 709 708 710
f 709 710 711
f 711 710 712
f 711 712 713
f 713 712 714
f 713 714 715
f 715 714 716
f 715 716 717
f 717 716 718
f 717 718 719
f 719 718 720
f 719 720 721
f 721 720 722
f 721 722 645
f 645 722 646
f 645 647 392
f 392 647 649
f 392 649 394
f 394 649 651
f 394 651 396
f 396 651 653
f 396 653 398
f 398 653 655
f 398 655 400
f 400 655 657
f 400 657 402
f 402 657 659
f 402 659 661
f 402 661 404
f 404 661 663
f 404 663 406
f 406 663 665
f 406 665 408
f 408 665 667
f 408 667 410
f 410 667 669
f 410 669 671
f 410 671 412
f 412 671 673
f 412 673 414
f 414 673 675
f 414 675 416
f 416 675 677
f 416 677 418
f 418 677 679
f 418 679 420
f 420 679 681
f 420 681 683
f 420 683 422
f 422 683 685
f 422 685 424
f 424 685 687
f 424 687 426
f 426 687 689
f 426 689 428
f 428 689 691
f 428 691 693
f 428 693 430
f 430 693 695
f 430 695 432
f 432 695 697
f 432 697 434
f 434 697 699
f 434 699 436
f 436 699 701
f 436 701 438
f 438 701 703
f 438 703 705
f 438 705 440
f 440 705 707
f 440 707 442
f 442 707 709
f 442 709 444
f 444 709 711
f 444 711 446
f 446 711 713
f 446 713 715
f 446 715 448
f 448 715 717
f 448 717 450
f 450 717 719
f 450 719 452
f 452 719 721
f 452 721 390
f 390 721 645
f 390 645 392
f 723 724 725
f 725 724 726
f 725 726 727
f 727 726 728
f 727 728 729
f 729 728 730
f 729 730 731
f 731 730 732
f 731 732 733
f 733 732 734
f 733 734 735
f 735 734 736
f 735 736 737
f 737 736 738
f 737 738 739
f 739 738 740
f 739 740 741
f 741 740 742
f 741 742 743
f 743 742 744
f 743 744 745
f 745 744 746
f 745 746 747
f 747 746 748
f 747 748 749
f 749 748 750
f 749 750 751
f 751 750 752
f 751 752 753
f 753 752 754
f 753 754 755
f 755 754 756
f 755 756 757
f 757 756 758
f 757 758 759
f 759 758 760
f 759 760 761
f 761 760 762
f 761 762 763
f 763 762 764
f 763 764 765
f 765 764 766
f 765 766 767
f 767 766 768
f 767 768 769
f 769 768 770
f 769 770 771
f 771 770 772
f 771 772 773
f 773 772 774
f 773 774 775
f 775 774 776
f 775 776 777
f 777 776 778
f 777 778 779
f 779 778 780
f 779 780 781
f 781 780 782
f 781 782 783
f 783 782 784
f 783 784 785
f 785 784 786
f 785 786 787
f 787 786 788
f 787 788 789
f 789 788 790
f 789 790 791
f 791 790 792
f 791 792 793
f 793 792 794
f 793 794 795
f 795 794 796
f 795 796 797
f 797 796 798
f 797 798 799
f 799 798 800
f 799 800 723
f 723 800 724
f 723 725 520
f 520 725 727
f 520 727 522
f 522 727 729
f 522 729 524
f 524 729 731
f 524 731 526
f 526 731 733
f 526 733 528
f 528 733 735
f 528 735 530
f 530 735 737
f 530 737 739
f 530 739 532
f 532 739 741
f 532 741 534
f 534 741 743
f 534 743 536
f 536 743 745
f 536 745 538
f 538 745 747
f 538 747 749
f 538 749 540
f 540 749 751
f 540 751 542
f 542 751 753
f 542 753 544
f 544 753 755
f 544 755 546
f 546 755 757
f 546 757 548
f 548 757 759
f 548 759 761
f 548 761 550
f 550 761 763
f 550 763 552
f 552 763 765
f 552 765 554
f 554 765 767
f 554 767 556
f 556 767 769
f 556 769 771
f 556 771 558
f 558 771 773
f 558 773 560
f 560 773 775
f 560 775 562
f 562 775 777
f 562 777 564
f 564 777 779
f 564 779 566
f 566 779 781
f 566 781 783
f 566 783 568
f 568 783 785
f 568 785 570
f 570 785 787
f 570 787 572
f 572 787 789
f 572 789 574
f 574 789 791
f 574 791 793
f 574 793 576
f 576 793 795
f 576 795 578
f 578 795 797
f 578 797 580
f 580 797 799
f 580 799 518
f 518 799 723
f 518 723 520
f 801 802 803
f 803 802 804
f 803 804 805
f 805 804 806
f 805 806 807
f 807 806 808
f 807 808 809
f 809 808 810
f 809 810 811
f 811 810 812
f 811 812 813
f 813 812 814
f 813 814 815
f 815 814 816
f 815 816 817
f 817 816 818
f 817 818 819
f 819 818 820
f 819 820 821
f 821 820 822
f 821 822 823
f 823 822 824
f 823 824 825
f 825 824 826
f 825 826 827
f 827 826 828
f 827 828 829
f 829 828 830
f 829 830 831
f 831 830 832
f 831 832 833
f 833 832 834
f 833 834 835
f 835 834 836
f 835 836 837
f 837 836 838
f 837 838 839
f 839 838 840
f 839 840 841
f 841 840 842
f 841 842 843
f 843 842 844
f 843 844 845
f 845 844 846
f 845 846 847
f 847 846 848
f 847 848 849
f 849 848 850
f 849 850 851
f 851 850 852
f 851 852 853
f 853 852 854
f 853 854 855
f 855 854 856
f 855 856 857
f 857 856 858
f 857 858 859
f 859 858 860
f 859 860 861
f 861 860 862
f 861 862 863
f 863 862 864
f 863 864 865
f 865 864 866
f 865 866 867
f 867 866 868
f 867 868 869
f 869 868 870
f 869 870 871
f 871 870 872
f 871 872 873
f 873 872 874
f 873 874 875
f 875 874 876
f 875 876 877
f 877 876 878
f 877 878 801
f 801 878 802
f 801 803 487
f 487 803 805
f 487 805 485
f 485 805 807
f 485 807 483
f 483 807 809
f 483 809 481
f 481 809 811
f 481 811 479
f 479 811 813
f 479 813 477
f 477 813 815
f 477 815 817
f 477 817 475
f 475 817 819
f 475 819 473
f 473 819 821
f 473 821 471
f 471 821 823
f 471 823 469
f 469 823 825
f 469 825 827
f 469 827 467
f 467 827 829
f 467 829 465
f 465 829 831
f 465 831 463
f 463 831 833
f 463 833 461
f 461 833 835
f 461 835 459
f 459 835 837
f 459 837 839
f 459 839 457
f 457 839 841
f 457 841 455
f 455 841 843
f 455 843 453
f 453 843 845
f 453 845 515
f 515 845 847
f 515 847 849
f 515 849 513
f 513 849 851
f 513 851 511
f 511 851 853
f 511 853 509
f 509 853 855
f 509 855 507
f 507 855 857
f 507 857 505
f 505 857 859
f 505 859 861
f 505 861 503
f 503 861 863
f 503 863 501
f 501 863 865
f 501 865 499
f 499 865 867
f 499 867 497
f 497 867 869
f 497 869 871
f 497 871 495
f 495 871 873
f 495 873 493
f 493 873 875
f 493 875 491
f 491 875 877
f 491 877 489
f 489 877 801
f 489 801 487
f 879 880 881
f 881 880 882
f 881 882 883
f 883 882 884
f 883 884 885
f 885 884 886
f 885 886 887
f 887 886 888
f 887 888 889
f 889 888 890
f 889 890 891
f 891 890 892
f 891 892 893
f 893 892 894
f 893 894 895
f 895 894 896
f 895 896 897
f 897 896 898
f 897 898 899
f 899 898 900
f 899 900 901
f 901 900 902
f 901 902 903
f 903 902 904
f 903 904 905
f 905 904 906
f 905 906 907
f 907 906 908
f 907 908 909
f 909 908 910
f 909 910 911
f 911 910 912
f 911 912 913
f 913 912 914
f 913 914 915
f 915 914 916
f 915 916 917
f 917 916 918
f 917 918 919
f 919 918 920
f 919 920 921
f 921 920 922
f 921 922 923
f 923 922 924
f 923 924 925
f 925 924 926
f 925 926 927
f 927 926 928
f 927 928 929
f 929 928 930
f 929 930 931
f 931 930 932
f 931 932 933
f 933 932 934
f 933 934 935
f 935 934 936
f 935 936 937
f 937 936 938
f 937 938 939
f 939 938 940
f 939 940 941
f 941 940 942
f 941 942 943
f 943 942 944
f 943 944 945
f 945 944 946
f 945 946 947
f 947 946 948
f 947 948 949
f 949 948 950
f 949 950 951
f 951 950 952
f 951 952 953
f 953 952 954
f 953 954 955
f 955 954 956
f 955 956 879
f 879 956 880
f 879 881 615
f 615 881 883
f 615 883 613
f 613 883 885
f 613 885 611
f 611 885 887
f 611 887 609
f 609 887 889
f 609 889 607
f 607 889 891
f 607 891 605
f 605 891 893
f 605 893 895
f 605 895 603
f 603 895 897
f 603 897 601
f 601 897 899
f 601 899 599
f 599 899 901
f 599 901 597
f 597 901 903
f 597 903 905
f 597 905 595
f 595 905 907
f 595 907 593
f 593 907 909
f 593 909 591
f 591 909 911
f 591 911 589
f 589 911 913
f 589 913 587
f 587 913 915
f 587 915 917
f 587 917 585
f 585 917 919
f 585 919 583
f 583 919 921
f 583 921 581
f 581 921 923
f 581 923 643
f 643 923 925
f 643 925 927
f 643 927 641
f 641 927 929
f 641 929 639
f 639 929 931
f 639 931 637
f 637 931 933
f 637 933 635
f 635 933 935
f 635 935 633
f 633 935 937
f 633 937 939
f 633 939 631
f 631 939 941
f 631 941 629
f 629 941 943
f 629 943 627
f 627 943 945
f 627 945 625
f 625 945 947
f 625 947 949
f 625 949 623
f 623 949 951
f 623 951 621
f 621 951 953
f 621 953 619
f 619 953 955
f 619 955 617
f 617 955 879
f 617 879 615
f 158 45 957
f 957 45 43
f 957 43 958
f 958 43 42
f 958 42 959
f 959 42 40
f 959 40 960
f 960 40 38
f 960 38 961
f 961 38 37
f 961 37 962
f 962 37 35
f 962 35 963
f 963 35 34
f 963 34 964
f 964 34 32
f 964 32 965
f 965 32 30
f 965 30 966
f 966 30 28
f 966 28 967
f 967 28 27
f 967 27 968
f 968 27 25
f 968 25 969
f 969 25 23
f 969 23 970
f 970 23 22
f 970 22 971
f 971 22 20
f 971 20 972
f 972 20 18
f 972 18 973
f 973 18 16
f 973 16 974
f 974 16 15
f 974 15 975
f 975 15 13
f 975 13 976
f 976 13 12
f 976 12 977
f 977 12 10
f 977 10 978
f 978 10 8
f 978 8 979
f 979 8 7
f 979 7 980
f 980 7 1
f 980 1 61
f 61 1 3
f 162 161 981
f 981 161 982
f 981 982 983
f 983 982 984
f 983 984 985
f 985 984 986
f 985 986 987
f 987 986 988
f 987 988 989
f 989 988 990
f 989 990 991
f 991 990 992
f 991 992 993
f 993 992 994
f 993 994 995
f 995 994 996
f 995 996 997
f 997 996 998
f 997 998 999
f 999 998 1000
f 999 1000 1001
f 1001 1000 1002
f 1001 1002 1003
f 1003 1002 1004
f 1003 1004 1005
f 1005 1004 1006
f 1005 1006 1007
f 1007 1006 1008
f 1007 1008 1009
f 1009 1008 1010
f 1009 1010 1011
f 1011 1010 1012
f 1011 1012 1013
f 1013 1012 1014
f 1013 1014 1015
f 1015 1014 1016
f 1015 1016 1017
f 1017 1016 1018
f 1017 1018 1019
f 1019 1018 1020
f 1019 1020 1021
f 1021 1020 1022
f 1021 1022 1023
f 1023 1022 1024
f 1023 1024 1025
f 1025 1024 1026
f 1025 1026 1027
f 1027 1026 1028
f 1027 1028 73
f 73 1028 74
f 70 69 1029
f 1029 69 1030
f 1029 1030 1031
f 1031 1030 1032
f 1031 1032 1033
f 1033 1032 1034
f 1033 1034 1035
f 1035 1034 1036
f 1035 1036 1037
f 1037 1036 1038
f 1037 1038 1039
f 1039 1038 1040
f 1039 1040 1041
f 1041 1040 1042
f 1041 1042 1043
f 1043 1042 1044
f 1043 1044 1045
f 1045 1044 1046
f 1045 1046 1047
f 1047 1046 1048
f 1047 1048 1049
f 1049 1048 1050
f 1049 1050 1051
f 1051 1050 1052
f 1051 1052 1053
f 1053 1052 1054
f 1053 1054 1055
f 1055 1054 1056
f 1055 1056 1057
f 1057 1056 1058
f 1057 1058 1059
f 1059 1058 1060
f 1059 1060 1061
f 1061 1060 1062
f 1061 1062 1063
f 1063 1062 1064
f 1063 1064 1065
f 1065 1064 1066
f 1065 1066 1067
f 1067 1066 1068
f 1067 1068 1069
f 1069 1068 1070
f 1069 1070 1071
f 1071 1070 1072
f 1071 1072 1073
f 1073 1072 1074
f 1073 1074 1075
f 1075 1074 1076
f 1075 1076 167
f 167 1076 168
f 1077 72 1078
f 1078 72 71
f 64 1079 63
f 63 1079 1080
f 166 165 1081
f 1081 165 1082
f 1081 1082 1083
f 1081 1083 1084
f 1084 1083 1085
f 1084 1085 1086
f 1086 1085 1087
f 1086 1087 1088
f 1088 1087 1089
f 1088 1089 1090
f 1090 1089 1091
f 1090 1091 1092
f 1092 1091 1093
f 1092 1093 1094
f 1094 1093 1095
f 1094 1095 1096
f 1096 1095 1097
f 1096 1097 1098
f 1098 1097 1099
f 1098 1099 1100
f 1100 1099 1101
f 1100 1101 1102
f 1102 1101 1103
f 1102 1103 1104
f 1104 1103 1105
f 1104 1105 1106
f 1106 1105 1107
f 1106 1107 1108
f 1108 1107 1109
f 1108 1109 1110
f 1110 1109 1111
f 1110 1111 1112
f 1112 1111 1113
f 1112 1113 1114
f 1114 1113 1115
f 1114 1115 1116
f 1116 1115 1117
f 1116 1117 1118
f 1118 1117 1119
f 1118 1119 1120
f 1120 1119 1121
f 1120 1121 1122
f 1122 1121 1123
f 1122 1123 1124
f 1124 1123 1125
f 1124 1125 1126
f 1126 1125 1127
f 1126 1127 1128
f 1128 1127 1078
f 1078 1127 1077
f 1080 1079 1129
f 1129 1079 1130
f 1129 1130 1131
f 1129 1131 1132
f 1132 1131 1133
f 1132 1133 1134
f 1134 1133 1135
f 1134 1135 1136
f 1136 1135 1137
f 1136 1137 1138
f 1138 1137 1139
f 1138 1139 1140
f 1140 1139 1141
f 1140 1141 1142
f 1142 1141 1143
f 1142 1143 1144
f 1144 1143 1145
f 1144 1145 1146
f 1146 1145 1147
f 1146 1147 1148
f 1148 1147 1149
f 1148 1149 1150
f 1150 1149 1151
f 1150 1151 1152
f 1152 1151 1153
f 1152 1153 1154
f 1154 1153 1155
f 1154 1155 1156
f 1156 1155 1157
f 1156 1157 1158
f 1158 1157 1159
f 1158 1159 1160
f 1160 1159 1161
f 1160 1161 1162
f 1162 1161 1163
f 1162 1163 1164
f 1164 1163 1165
f 1164 1165 1166
f 1166 1165 1167
f 1166 1167 1168
f 1168 1167 1169
f 1168 1169 1170
f 1170 1169 1171
f 1170 1171 1172
f 1172 1171 1173
f 1172 1173 1174
f 1174 1173 1175
f 1174 1175 1176
f 1176 1175 163
f 163 1175 164
f 1028 632 74
f 74 632 630
f 74 630 628
f 1028 1026 632
f 632 1026 1024
f 632 1024 634
f 634 1024 1022
f 634 1022 1020
f 1020 1018 634
f 634 1018 636
f 636 1018 1016
f 636 1016 638
f 638 1016 1014
f 638 1014 640
f 640 1014 1012
f 640 1012 642
f 642 1012 1010
f 642 1010 644
f 644 1010 1008
f 644 1008 582
f 582 1008 1006
f 582 1006 584
f 584 1006 1004
f 584 1004 586
f 586 1004 1002
f 586 1002 588
f 588 1002 1000
f 588 1000 590
f 590 1000 998
f 590 998 592
f 592 998 996
f 592 996 594
f 594 996 994
f 594 994 596
f 596 994 992
f 596 992 598
f 598 992 990
f 598 990 988
f 988 986 598
f 598 986 600
f 600 986 984
f 600 984 982
f 982 161 600
f 600 161 602
f 602 161 604
f 604 161 964
f 604 964 606
f 606 964 965
f 606 965 608
f 608 965 966
f 608 966 610
f 610 966 967
f 610 967 612
f 612 967 614
f 614 967 968
f 614 968 616
f 616 968 969
f 616 969 618
f 618 969 970
f 618 970 620
f 620 970 622
f 622 970 971
f 622 971 624
f 624 971 972
f 624 972 626
f 626 972 973
f 626 973 628
f 628 973 74
f 158 957 161
f 161 957 958
f 161 958 959
f 959 960 161
f 161 960 961
f 161 961 962
f 962 963 161
f 161 963 964
f 973 974 74
f 74 974 975
f 74 975 976
f 976 977 74
f 74 977 978
f 74 978 979
f 979 980 74
f 74 980 61
f 1175 472 164
f 164 472 470
f 164 470 468
f 472 1175 474
f 474 1175 1173
f 474 1173 1171
f 474 1171 476
f 476 1171 1169
f 476 1169 1167
f 476 1167 478
f 478 1167 1165
f 478 1165 1163
f 478 1163 480
f 480 1163 1161
f 480 1161 482
f 482 1161 1159
f 482 1159 1157
f 482 1157 484
f 484 1157 1155
f 484 1155 486
f 486 1155 1153
f 486 1153 488
f 488 1153 1151
f 488 1151 1149
f 488 1149 490
f 490 1149 1147
f 490 1147 492
f 492 1147 1145
f 492 1145 494
f 494 1145 1143
f 494 1143 496
f 496 1143 1141
f 496 1141 1139
f 496 1139 498
f 498 1139 1137
f 498 1137 1135
f 498 1135 500
f 500 1135 1133
f 500 1133 502
f 502 1133 1131
f 502 1131 1130
f 1130 1079 502
f 502 1079 504
f 504 1079 506
f 506 1079 508
f 508 1079 510
f 510 1079 62
f 510 62 512
f 512 62 514
f 514 62 516
f 516 62 454
f 454 62 456
f 456 62 159
f 456 159 458
f 458 159 460
f 460 159 462
f 462 159 464
f 464 159 466
f 466 159 164
f 466 164 468
f 1079 64 62
f 1029 1031 70
f 70 1031 1033
f 70 1033 1035
f 70 1035 784
f 784 1035 1037
f 784 1037 1039
f 784 1039 786
f 786 1039 1041
f 786 1041 788
f 788 1041 790
f 790 1041 1043
f 790 1043 792
f 792 1043 794
f 794 1043 1045
f 794 1045 796
f 796 1045 1047
f 796 1047 798
f 798 1047 1049
f 798 1049 800
f 800 1049 724
f 724 1049 1051
f 724 1051 726
f 726 1051 1053
f 726 1053 728
f 728 1053 1055
f 728 1055 730
f 730 1055 732
f 732 1055 1057
f 732 1057 734
f 734 1057 1059
f 734 1059 736
f 736 1059 1061
f 736 1061 738
f 738 1061 740
f 740 1061 1063
f 740 1063 742
f 742 1063 744
f 744 1063 1065
f 744 1065 746
f 746 1065 1067
f 746 1067 1069
f 746 1069 167
f 167 1069 1071
f 167 1071 1073
f 1073 1075 167
f 166 256 167
f 167 256 254
f 167 254 748
f 748 254 252
f 748 252 750
f 750 252 250
f 750 250 752
f 752 250 248
f 752 248 754
f 754 248 246
f 754 246 756
f 756 246 244
f 756 244 758
f 758 244 242
f 758 242 760
f 760 242 240
f 760 240 762
f 762 240 238
f 762 238 764
f 764 238 236
f 764 236 766
f 766 236 234
f 766 234 768
f 768 234 310
f 768 310 770
f 770 310 308
f 770 308 772
f 772 308 306
f 772 306 774
f 774 306 304
f 774 304 776
f 776 304 302
f 776 302 778
f 778 302 300
f 778 300 780
f 780 300 298
f 780 298 782
f 782 298 296
f 782 296 70
f 70 296 294
f 70 294 71
f 71 294 292
f 71 292 1078
f 1078 292 290
f 1078 290 710
f 710 290 712
f 712 290 288
f 712 288 714
f 714 288 286
f 714 286 716
f 716 286 284
f 716 284 718
f 718 284 282
f 718 282 720
f 720 282 280
f 720 280 722
f 722 280 278
f 722 278 646
f 646 278 276
f 646 276 648
f 648 276 274
f 648 274 650
f 650 274 272
f 650 272 652
f 652 272 270
f 652 270 654
f 654 270 268
f 654 268 656
f 656 268 266
f 656 266 658
f 658 266 264
f 658 264 660
f 660 264 262
f 660 262 662
f 662 262 260
f 662 260 664
f 664 260 166
f 664 166 666
f 666 166 1088
f 666 1088 1090
f 1081 1084 166
f 166 1084 1086
f 166 1086 1088
f 666 1090 668
f 668 1090 1092
f 668 1092 1094
f 1096 672 1094
f 1094 672 670
f 1094 670 668
f 1098 676 1096
f 1096 676 674
f 1096 674 672
f 676 1098 678
f 678 1098 1100
f 678 1100 680
f 680 1100 1102
f 680 1102 682
f 682 1102 684
f 684 1102 1104
f 684 1104 686
f 686 1104 1106
f 686 1106 688
f 688 1106 1108
f 688 1108 690
f 690 1108 1110
f 690 1110 692
f 692 1110 694
f 694 1110 1112
f 694 1112 696
f 696 1112 1114
f 696 1114 698
f 698 1114 700
f 700 1114 1116
f 700 1116 702
f 702 1116 704
f 704 1116 1118
f 704 1118 706
f 706 1118 1120
f 706 1120 708
f 708 1120 1122
f 708 1122 1124
f 1124 1126 708
f 708 1126 1078
f 708 1078 710
f 1126 1128 1078
f 260 258 166
f 166 258 256
f 784 782 70
f 748 746 167
f 72 1077 65
f 65 1077 445
f 65 445 447
f 1127 437 1077
f 1077 437 439
f 1077 439 441
f 1127 1125 437
f 437 1125 1123
f 437 1123 435
f 435 1123 1121
f 435 1121 433
f 433 1121 1119
f 433 1119 1117
f 433 1117 431
f 431 1117 1115
f 431 1115 1113
f 431 1113 429
f 429 1113 1111
f 429 1111 427
f 427 1111 1109
f 427 1109 425
f 425 1109 1107
f 425 1107 423
f 423 1107 1105
f 423 1105 1103
f 423 1103 421
f 421 1103 1101
f 421 1101 419
f 419 1101 1099
f 419 1099 417
f 417 1099 1097
f 417 1097 1095
f 417 1095 415
f 415 1095 1093
f 415 1093 413
f 413 1093 1091
f 413 1091 1089
f 413 1089 411
f 411 1089 1087
f 411 1087 1085
f 411 1085 409
f 409 1085 1083
f 409 1083 1082
f 409 1082 407
f 407 1082 165
f 407 165 405
f 405 165 403
f 403 165 401
f 401 165 160
f 401 160 399
f 399 160 397
f 397 160 395
f 395 160 393
f 393 160 391
f 391 160 65
f 391 65 389
f 389 65 451
f 451 65 449
f 449 65 447
f 441 443 1077
f 1077 443 445
f 1076 535 168
f 168 535 537
f 168 537 539
f 1076 1074 535
f 535 1074 1072
f 535 1072 533
f 533 1072 1070
f 533 1070 1068
f 1068 1066 533
f 533 1066 531
f 531 1066 1064
f 531 1064 529
f 529 1064 1062
f 529 1062 527
f 527 1062 1060
f 527 1060 525
f 525 1060 1058
f 525 1058 523
f 523 1058 1056
f 523 1056 521
f 521 1056 1054
f 521 1054 519
f 519 1054 1052
f 519 1052 517
f 517 1052 1050
f 517 1050 579
f 579 1050 1048
f 579 1048 577
f 577 1048 1046
f 577 1046 575
f 575 1046 1044
f 575 1044 573
f 573 1044 1042
f 573 1042 571
f 571 1042 1040
f 571 1040 569
f 569 1040 1038
f 569 1038 1036
f 1036 1034 569
f 569 1034 567
f 567 1034 1032
f 567 1032 1030
f 1030 69 567
f 567 69 565
f 565 69 563
f 563 69 140
f 563 140 561
f 561 140 141
f 561 141 559
f 559 141 142
f 559 142 557
f 557 142 143
f 557 143 555
f 555 143 553
f 553 143 144
f 553 144 551
f 551 144 145
f 551 145 549
f 549 145 146
f 549 146 547
f 547 146 545
f 545 146 147
f 545 147 543
f 543 147 148
f 543 148 541
f 541 148 149
f 541 149 539
f 539 149 168
f 67 133 69
f 69 133 134
f 69 134 135
f 135 136 69
f 69 136 137
f 69 137 138
f 138 139 69
f 69 139 140
f 149 150 168
f 168 150 151
f 168 151 152
f 152 153 168
f 168 153 154
f 168 154 155
f 155 156 168
f 168 156 157
f 981 983 162
f 162 983 985
f 162 985 987
f 162 987 900
f 900 987 989
f 900 989 902
f 902 989 991
f 902 991 993
f 995 906 993
f 993 906 904
f 993 904 902
f 997 910 995
f 995 910 908
f 995 908 906
f 999 914 997
f 997 914 912
f 997 912 910
f 914 999 916
f 916 999 1001
f 916 1001 918
f 918 1001 1003
f 918 1003 920
f 920 1003 922
f 922 1003 1005
f 922 1005 924
f 924 1005 1007
f 924 1007 926
f 926 1007 1009
f 926 1009 928
f 928 1009 1011
f 928 1011 930
f 930 1011 932
f 932 1011 1013
f 932 1013 934
f 934 1013 936
f 936 1013 1015
f 936 1015 938
f 938 1015 940
f 940 1015 1017
f 940 1017 1019
f 940 1019 942
f 942 1019 1021
f 942 1021 73
f 73 1021 1023
f 73 1023 1025
f 1025 1027 73
f 63 374 73
f 73 374 372
f 73 372 370
f 374 63 376
f 376 63 1080
f 376 1080 858
f 858 1080 860
f 860 1080 1132
f 860 1132 1134
f 1080 1129 1132
f 860 1134 862
f 862 1134 1136
f 862 1136 1138
f 862 1138 864
f 864 1138 1140
f 864 1140 866
f 866 1140 1142
f 866 1142 868
f 868 1142 870
f 870 1142 1144
f 870 1144 872
f 872 1144 1146
f 872 1146 874
f 874 1146 876
f 876 1146 1148
f 876 1148 878
f 878 1148 1150
f 878 1150 802
f 802 1150 1152
f 802 1152 804
f 804 1152 806
f 806 1152 1154
f 806 1154 808
f 808 1154 1156
f 808 1156 810
f 810 1156 1158
f 810 1158 812
f 812 1158 1160
f 812 1160 814
f 814 1160 816
f 816 1160 1162
f 816 1162 818
f 818 1162 820
f 820 1162 1164
f 820 1164 822
f 822 1164 1166
f 822 1166 824
f 824 1166 1168
f 824 1168 1170
f 824 1170 163
f 163 1170 1172
f 163 1172 1174
f 1174 1176 163
f 162 332 163
f 163 332 330
f 163 330 828
f 828 330 328
f 828 328 830
f 830 328 326
f 830 326 832
f 832 326 324
f 832 324 834
f 834 324 322
f 834 322 836
f 836 322 320
f 836 320 838
f 838 320 318
f 838 318 840
f 840 318 316
f 840 316 842
f 842 316 314
f 842 314 844
f 844 314 312
f 844 312 846
f 846 312 388
f 846 388 848
f 848 388 386
f 848 386 850
f 850 386 384
f 850 384 852
f 852 384 382
f 852 382 854
f 854 382 380
f 854 380 856
f 856 380 378
f 856 378 858
f 858 378 376
f 368 944 370
f 370 944 942
f 370 942 73
f 944 368 946
f 946 368 366
f 946 366 948
f 948 366 364
f 948 364 950
f 950 364 362
f 950 362 952
f 952 362 360
f 952 360 954
f 954 360 358
f 954 358 956
f 956 358 356
f 956 356 880
f 880 356 354
f 880 354 882
f 882 354 352
f 882 352 884
f 884 352 350
f 884 350 886
f 886 350 348
f 886 348 888
f 888 348 346
f 888 346 890
f 890 346 344
f 890 344 892
f 892 344 342
f 892 342 894
f 894 342 340
f 894 340 896
f 896 340 338
f 896 338 898
f 898 338 336
f 898 336 900
f 900 336 162
f 336 334 162
f 162 334 332
f 828 826 163
f 163 826 824
f 160 159 65
f 65 159 62

