# https://github.com/mikedh/trimesh
v -3.09471965 -26.74636650 548.10003662
v 2.10528040 -26.74636650 548.10003662
v -3.09471965 -23.57136536 548.09857178
v 2.10528040 -23.57136536 548.09857178
v 2.10528040 -23.57518196 539.92358398
v -3.09471965 -23.57518196 539.92358398
v 2.10528040 -19.70251656 534.92175293
v -3.09471965 -19.70251656 534.92175293
v 2.10528040 -19.70018387 539.92175293
v -3.09471965 -19.70018387 539.92175293
v -3.09471965 -16.74037933 560.92034912
v -3.09471965 -16.75251770 534.92034912
v -9.24471951 -16.74037933 560.92034912
v -9.24471951 -16.75251770 534.92034912
v -15.24471951 -16.75578499 527.92041016
v -9.24471951 -16.75578499 527.92041016
v -15.24471951 -16.73477745 572.92034912
v -9.24471951 -16.73477745 572.92034912
v 2.10528040 -16.75251770 534.92034912
v 2.10528040 -16.74037933 560.92034912
v 8.25528049 -16.75251770 534.92034912
v 8.25528049 -16.74037933 560.92034912
v 14.25528049 -16.75578499 527.92041016
v 14.25528049 -16.73477745 572.92034912
v 8.25528049 -16.73477745 572.92034912
v 8.25528049 -16.75578499 527.92041016
v -3.09471965 -23.63469887 560.13909912
v -3.09471965 -26.74037933 560.92504883
v -3.09471965 -23.75117493 560.52374268
v -3.09471965 -26.12078857 563.33349609
v -3.09471965 -23.79037857 560.92364502
v -3.09471965 -25.78409195 563.86352539
v -3.09471965 -25.38362503 564.34716797
v -3.09471965 -24.92570114 564.77679443
v -3.09471965 -23.75080299 561.32360840
v -3.09471965 -24.41754150 565.14562988
v -3.09471965 -23.63396645 561.70806885
v -3.09471965 -23.86716270 565.44781494
v -3.09471965 -23.44436073 562.06243896
v -3.09471965 -23.18927193 562.37298584
v -3.09471965 -23.44542313 559.78460693
v -3.09471965 -23.19062424 559.47381592
v -3.09471965 -22.88009453 559.21875000
v -3.09471965 -22.52576447 559.02911377
v -3.09471965 -22.14125252 558.91229248
v -3.09471965 -21.74133682 558.87268066
v -3.09471965 -21.34138298 558.91192627
v -3.09471965 -20.95676231 559.02838135
v -3.09471965 -20.60225677 559.21765137
v -3.09471965 -20.29148674 559.47247314
v -3.09471965 -20.03639793 559.78302002
v -3.09471965 -19.84679222 560.13732910
v -3.09471965 -19.72995567 560.52185059
v -3.09471965 -17.35772133 563.32940674
v -3.09471965 -19.69038010 560.92175293
v -3.09471965 -17.69392204 563.85974121
v -3.09471965 -18.09393883 564.34375000
v -3.09471965 -16.77951431 561.54705811
v -3.09471965 -16.89688301 562.16387939
v -3.09471965 -17.09063721 562.76116943
v -3.09471965 -18.55146027 564.77380371
v -3.09471965 -19.72958374 561.32171631
v -3.09471965 -19.05927467 565.14312744
v -3.09471965 -19.84605980 561.70629883
v -3.09471965 -19.60937119 565.44586182
v -3.09471965 -20.03533554 562.06085205
v -3.09471965 -20.29013443 562.37158203
v -3.09471965 -20.19307518 565.67724609
v -3.09471965 -20.60066414 562.62670898
v -3.09471965 -20.80117989 565.83367920
v -3.09471965 -20.95499420 562.81628418
v -3.09471965 -21.33950615 562.93310547
v -3.09471965 -21.42409706 565.91271973
v -3.09471965 -21.73942184 562.97271729
v -3.09471965 -22.05200195 565.91296387
v -3.09471965 -22.13937569 562.93353271
v -3.09471965 -22.67499352 565.83459473
v -3.09471965 -22.52399635 562.81701660
v -3.09471965 -22.87850189 562.62774658
v -3.09471965 -23.28324509 565.67871094
v -3.09471965 -26.38840103 562.76550293
v -3.09471965 -26.58271408 562.16839600
v -3.09471965 -26.70065880 561.55169678
v 2.10528040 -23.63469887 560.13909912
v 2.10528040 -26.74037933 560.92504883
v 2.10528040 -23.75117493 560.52374268
v 2.10528040 -26.12078857 563.33349609
v 2.10528040 -23.79037857 560.92364502
v 2.10528040 -25.78409195 563.86352539
v 2.10528040 -25.38362503 564.34716797
v 2.10528040 -26.70065880 561.55169678
v 2.10528040 -26.58271408 562.16839600
v 2.10528040 -26.38840103 562.76550293
v 2.10528040 -24.92570114 564.77679443
v 2.10528040 -23.75080299 561.32360840
v 2.10528040 -24.41754150 565.14562988
v 2.10528040 -23.63396645 561.70806885
v 2.10528040 -23.86716270 565.44781494
v 2.10528040 -23.44436073 562.06243896
v 2.10528040 -23.18927193 562.37298584
v 2.10528040 -23.28324509 565.67871094
v 2.10528040 -22.87850189 562.62774658
v 2.10528040 -22.67499352 565.83459473
v 2.10528040 -22.52399635 562.81701660
v 2.10528040 -22.13937569 562.93353271
v 2.10528040 -22.05200195 565.91296387
v 2.10528040 -21.73942184 562.97271729
v 2.10528040 -21.42409706 565.91271973
v 2.10528040 -21.33950615 562.93310547
v 2.10528040 -20.80117989 565.83367920
v 2.10528040 -20.95499420 562.81628418
v 2.10528040 -20.60066414 562.62670898
v 2.10528040 -20.19307518 565.67724609
v 2.10528040 -20.29013443 562.37158203
v 2.10528040 -19.60937119 565.44586182
v 2.10528040 -20.03533554 562.06085205
v 2.10528040 -19.84605980 561.70629883
v 2.10528040 -19.05927467 565.14312744
v 2.10528040 -19.72958374 561.32171631
v 2.10528040 -18.55146027 564.77380371
v 2.10528040 -19.69038010 560.92175293
v 2.10528040 -18.09393883 564.34375000
v 2.10528040 -17.69392204 563.85974121
v 2.10528040 -17.35772133 563.32940674
v 2.10528040 -19.72995567 560.52185059
v 2.10528040 -19.84679222 560.13732910
v 2.10528040 -20.03639793 559.78302002
v 2.10528040 -20.29148674 559.47247314
v 2.10528040 -20.60225677 559.21765137
v 2.10528040 -20.95676231 559.02838135
v 2.10528040 -21.34138298 558.91192627
v 2.10528040 -21.74133682 558.87268066
v 2.10528040 -22.14125252 558.91229248
v 2.10528040 -22.52576447 559.02911377
v 2.10528040 -22.88009453 559.21875000
v 2.10528040 -23.19062424 559.47381592
v 2.10528040 -23.44542313 559.78460693
v 2.10528040 -17.09063721 562.76116943
v 2.10528040 -16.89688301 562.16387939
v 2.10528040 -16.77951431 561.54705811
v -9.24471951 -26.74037933 560.92504883
v -9.24471951 -26.75251579 534.92504883
v 8.25528049 -26.75251579 534.92504883
v 8.25528049 -26.74037933 560.92504883
v 14.25528049 -26.75601768 527.42504883
v 14.25528049 -26.73477745 572.92504883
v -9.24471951 -26.73477745 572.92504883
v -15.24471951 -26.73477745 572.92504883
v -15.24471951 -26.75601768 527.42504883
v -9.24471951 -26.75601768 527.42504883
v 8.25528049 -26.75601768 527.42504883
v 8.25528049 -26.73477745 572.92504883
v -9.24471951 -26.70065880 561.55169678
v -9.24471951 -26.58271408 562.16839600
v -9.24471951 -26.38840103 562.76550293
v -9.24471951 -26.12078857 563.33349609
v -9.24471951 -25.78409195 563.86352539
v -9.24471951 -25.38362503 564.34716797
v -9.24471951 -24.92570114 564.77679443
v -9.24471951 -24.41754150 565.14562988
v -9.24471951 -23.86716270 565.44781494
v -9.24471951 -23.28324509 565.67871094
v -9.24471951 -22.67499352 565.83459473
v -9.24471951 -22.05200195 565.91296387
v -9.24471951 -21.42409706 565.91271973
v -9.24471951 -20.80117989 565.83367920
v -9.24471951 -20.19307518 565.67724609
v -9.24471951 -19.60937119 565.44586182
v -9.24471951 -19.05927467 565.14312744
v -9.24471951 -18.55146027 564.77380371
v -9.24471951 -18.09393883 564.34375000
v -9.24471951 -17.69392204 563.85974121
v -9.24471951 -17.35772133 563.32940674
v -9.24471951 -17.09063721 562.76116943
v -9.24471951 -16.89688301 562.16387939
v -9.24471951 -16.77951431 561.54705811
v 10.25528049 -22.13937569 562.93353271
v 10.25528049 -21.73942184 562.97271729
v 10.25528049 -21.33950615 562.93310547
v 10.25528049 -20.95499420 562.81628418
v 10.25528049 -20.60066414 562.62670898
v 10.25528049 -20.29013443 562.37158203
v 10.25528049 -20.03533554 562.06085205
v 10.25528049 -19.84605980 561.70629883
v 10.25528049 -19.72958374 561.32171631
v 10.25528049 -19.69038010 560.92175293
v 10.25528049 -19.72995567 560.52185059
v 10.25528049 -19.84679222 560.13732910
v 10.25528049 -20.03639793 559.78302002
v 10.25528049 -20.29148674 559.47247314
v 10.25528049 -20.60225677 559.21765137
v 10.25528049 -20.95676231 559.02838135
v 10.25528049 -21.34138298 558.91192627
v 10.25528049 -21.74133682 558.87268066
v 10.25528049 -22.14125252 558.91229248
v 10.25528049 -22.52576447 559.02911377
v 10.25528049 -22.88009453 559.21875000
v 10.25528049 -23.19062424 559.47381592
v 10.25528049 -23.44542313 559.78460693
v 10.25528049 -23.63469887 560.13909912
v 10.25528049 -23.75117493 560.52374268
v 10.25528049 -23.79037857 560.92364502
v 10.25528049 -23.75080299 561.32360840
v 10.25528049 -23.63396645 561.70806885
v 10.25528049 -23.44436073 562.06243896
v 10.25528049 -23.18927193 562.37298584
v 10.25528049 -22.87850189 562.62774658
v 10.25528049 -22.52399635 562.81701660
v -11.24471951 -22.13937569 562.93353271
v -11.24471951 -21.73942184 562.97271729
v -11.24471951 -21.33950615 562.93310547
v -11.24471951 -20.95499420 562.81628418
v -11.24471951 -20.60066414 562.62670898
v -11.24471951 -20.29013443 562.37158203
v -11.24471951 -20.03533554 562.06085205
v -11.24471951 -19.84605980 561.70629883
v -11.24471951 -19.72958374 561.32171631
v -11.24471951 -19.69038010 560.92175293
v -11.24471951 -19.72995567 560.52185059
v -11.24471951 -19.84679222 560.13732910
v -11.24471951 -20.03639793 559.78302002
v -11.24471951 -20.29148674 559.47247314
v -11.24471951 -20.60225677 559.21765137
v -11.24471951 -20.95676231 559.02838135
v -11.24471951 -21.34138298 558.91192627
v -11.24471951 -21.74133682 558.87268066
v -11.24471951 -22.14125252 558.91229248
v -11.24471951 -22.52576447 559.02911377
v -11.24471951 -22.88009453 559.21875000
v -11.24471951 -23.19062424 559.47381592
v -11.24471951 -23.44542313 559.78460693
v -11.24471951 -23.63469887 560.13909912
v -11.24471951 -23.75117493 560.52374268
v -11.24471951 -23.79037857 560.92364502
v -11.24471951 -23.75080299 561.32360840
v -11.24471951 -23.63396645 561.70806885
v -11.24471951 -23.44436073 562.06243896
v -11.24471951 -23.18927193 562.37298584
v -11.24471951 -22.87850189 562.62774658
v -11.24471951 -22.52399635 562.81701660
v -11.24471951 -22.22023010 563.88409424
v -15.24471951 -22.22023010 563.88409424
v -11.24471951 -21.73897934 563.92272949
v -15.24471951 -21.73897934 563.92272949
v -11.24471951 -21.25776291 563.88360596
v -15.24471951 -21.25776291 563.88360596
v -11.24471951 -20.78904724 563.76788330
v -15.24471951 -20.78904724 563.76788330
v -11.24471951 -20.34497070 563.57843018
v -15.24471951 -20.34497070 563.57843018
v -11.24471951 -19.93703270 563.32019043
v -15.24471951 -19.93703270 563.32019043
v -11.24471951 -19.57580185 562.99987793
v -15.24471951 -19.57580185 562.99987793
v -11.24471951 -19.27063179 562.62573242
v -15.24471951 -19.27063179 562.62573242
v -11.24471951 -19.02942848 562.20751953
v -15.24471951 -19.02942848 562.20751953
v -11.24471951 -18.85843468 561.75604248
v -15.24471951 -18.85843468 561.75604248
v -11.24471951 -18.76208496 561.28295898
v -15.24471951 -18.76208496 561.28295898
v -11.24471951 -18.74286842 560.80053711
v -15.24471951 -18.74286842 560.80053711
v -11.24471951 -18.80128860 560.32128906
v -15.24471951 -18.80128860 560.32128906
v -11.24471951 -18.93582726 559.85760498
v -15.24471951 -18.93582726 559.85760498
v -11.24471951 -19.14300346 559.42150879
v -15.24471951 -19.14300346 559.42150879
v -11.24471951 -19.41744995 559.02429199
v -15.24471951 -19.41744995 559.02429199
v -11.24471951 -19.75205994 558.67626953
v -15.24471951 -19.75205994 558.67626953
v -11.24471951 -20.13816643 558.38641357
v -15.24471951 -20.13816643 558.38641357
v -11.24471951 -20.56576729 558.16223145
v -15.24471951 -20.56576729 558.16223145
v -11.24471951 -21.02379227 558.00952148
v -15.24471951 -21.02379227 558.00952148
v -11.24471951 -21.50037575 557.93231201
v -15.24471951 -21.50037575 557.93231201
v -11.24471951 -21.98317528 557.93255615
v -15.24471951 -21.98317528 557.93255615
v -11.24471951 -22.45968628 558.01019287
v -15.24471951 -22.45968628 558.01019287
v -11.24471951 -22.91756821 558.16333008
v -15.24471951 -22.91756821 558.16333008
v -11.24471951 -23.34496117 558.38787842
v -15.24471951 -23.34496117 558.38787842
v -11.24471951 -23.73079491 558.67810059
v -15.24471951 -23.73079491 558.67810059
v -11.24471951 -24.06507874 559.02648926
v -15.24471951 -24.06507874 559.02648926
v -11.24471951 -24.33915520 559.42395020
v -15.24471951 -24.33915520 559.42395020
v -11.24471951 -24.54592514 559.86022949
v -15.24471951 -24.54592514 559.86022949
v -11.24471951 -24.68003082 560.32403564
v -15.24471951 -24.68003082 560.32403564
v -11.24471951 -24.73800278 560.80328369
v -15.24471951 -24.73800278 560.80328369
v -11.24471951 -24.71833611 561.28570557
v -15.24471951 -24.71833611 561.28570557
v -11.24471951 -24.62154388 561.75872803
v -15.24471951 -24.62154388 561.75872803
v -11.24471951 -24.45013046 562.21008301
v -15.24471951 -24.45013046 562.21008301
v -11.24471951 -24.20853424 562.62805176
v -15.24471951 -24.20853424 562.62805176
v -11.24471951 -23.90301704 563.00189209
v -15.24471951 -23.90301704 563.00189209
v -11.24471951 -23.54148674 563.32189941
v -15.24471951 -23.54148674 563.32189941
v -11.24471951 -23.13330841 563.57971191
v -15.24471951 -23.13330841 563.57971191
v -11.24471951 -22.68905449 563.76873779
v -15.24471951 -22.68905449 563.76873779
v 10.25528049 -22.22299576 557.96179199
v 14.25528049 -22.22299576 557.96179199
v 10.25528049 -21.74177933 557.92272949
v 14.25528049 -21.74177933 557.92272949
v 10.25528049 -21.26052856 557.96136475
v 14.25528049 -21.26052856 557.96136475
v 10.25528049 -20.79170418 558.07666016
v 14.25528049 -20.79170418 558.07666016
v 10.25528049 -20.34745026 558.26568604
v 14.25528049 -20.34745026 558.26568604
v 10.25528049 -19.93927193 558.52355957
v 14.25528049 -19.93927193 558.52355957
v 10.25528049 -19.57774162 558.84350586
v 14.25528049 -19.57774162 558.84350586
v 10.25528049 -19.27222443 559.21734619
v 14.25528049 -19.27222443 559.21734619
v 10.25528049 -19.03062820 559.63537598
v 14.25528049 -19.03062820 559.63537598
v 10.25528049 -18.85921478 560.08673096
v 14.25528049 -18.85921478 560.08673096
v 10.25528049 -18.76242256 560.55969238
v 14.25528049 -18.76242256 560.55969238
v 10.25528049 -18.74275589 561.04211426
v 14.25528049 -18.74275589 561.04211426
v 10.25528049 -18.80072784 561.52142334
v 14.25528049 -18.80072784 561.52142334
v 10.25528049 -18.93483353 561.98522949
v 14.25528049 -18.93483353 561.98522949
v 10.25528049 -19.14160347 562.42150879
v 14.25528049 -19.14160347 562.42150879
v 10.25528049 -19.41567802 562.81896973
v 14.25528049 -19.41567802 562.81896973
v 10.25528049 -19.74996376 563.16729736
v 14.25528049 -19.74996376 563.16729736
v 10.25528049 -20.13579750 563.45751953
v 14.25528049 -20.13579750 563.45751953
v 10.25528049 -20.56319046 563.68212891
v 14.25528049 -20.56319046 563.68212891
v 10.25528049 -21.02107239 563.83520508
v 14.25528049 -21.02107239 563.83520508
v 10.25528049 -21.49758339 563.91284180
v 14.25528049 -21.49758339 563.91284180
v 10.25528049 -21.98038292 563.91308594
v 14.25528049 -21.98038292 563.91308594
v 10.25528049 -22.45696640 563.83587646
v 14.25528049 -22.45696640 563.83587646
v 10.25528049 -22.91499138 563.68322754
v 14.25528049 -22.91499138 563.68322754
v 10.25528049 -23.34259224 563.45904541
v 14.25528049 -23.34259224 563.45904541
v 10.25528049 -23.72869873 563.16918945
v 14.25528049 -23.72869873 563.16918945
v 10.25528049 -24.06330872 562.82110596
v 14.25528049 -24.06330872 562.82110596
v 10.25528049 -24.33775520 562.42395020
v 14.25528049 -24.33775520 562.42395020
v 10.25528049 -24.54493141 561.98785400
v 14.25528049 -24.54493141 561.98785400
v 10.25528049 -24.67947006 561.52416992
v 14.25528049 -24.67947006 561.52416992
v 10.25528049 -24.73789024 561.04492188
v 14.25528049 -24.73789024 561.04492188
v 10.25528049 -24.71867371 560.56250000
v 14.25528049 -24.71867371 560.56250000
v 10.25528049 -24.62232208 560.08941650
v 14.25528049 -24.62232208 560.08941650
v 10.25528049 -24.45133018 559.63787842
v 14.25528049 -24.45133018 559.63787842
v 10.25528049 -24.21012688 559.21966553
v 14.25528049 -24.21012688 559.21966553
v 10.25528049 -23.90495682 558.84552002
v 14.25528049 -23.90495682 558.84552002
v 10.25528049 -23.54372597 558.52520752
v 14.25528049 -23.54372597 558.52520752
v 10.25528049 -23.13578796 558.26696777
v 14.25528049 -23.13578796 558.26696777
v 10.25528049 -22.69171143 558.07751465
v 14.25528049 -22.69171143 558.07751465
v -9.24471951 -22.15478134 529.93353271
v -11.24471951 -22.15478134 529.93353271
v -9.24471951 -21.75482750 529.97271729
v -11.24471951 -21.75482750 529.97271729
v -9.24471951 -21.35491180 529.93316650
v -11.24471951 -21.35491180 529.93316650
v -9.24471951 -20.97039986 529.81628418
v -11.24471951 -20.97039986 529.81628418
v -9.24471951 -20.61606979 529.62670898
v -11.24471951 -20.61606979 529.62670898
v -9.24471951 -20.30554008 529.37158203
v -11.24471951 -20.30554008 529.37158203
v -9.24471951 -20.05074120 529.06085205
v -11.24471951 -20.05074120 529.06085205
v -9.24471951 -19.86146545 528.70635986
v -11.24471951 -19.86146545 528.70635986
v -9.24471951 -19.74498940 528.32171631
v -11.24471951 -19.74498940 528.32171631
v -9.24471951 -19.70578575 527.92175293
v -11.24471951 -19.70578575 527.92175293
v -9.24471951 -19.74536133 527.52185059
v -11.24471951 -19.74536133 527.52185059
v -9.24471951 -19.86219788 527.13732910
v -11.24471951 -19.86219788 527.13732910
v -9.24471951 -20.05180359 526.78302002
v -11.24471951 -20.05180359 526.78302002
v -9.24471951 -20.30689240 526.47247314
v -11.24471951 -20.30689240 526.47247314
v -9.24471951 -20.61766243 526.21765137
v -11.24471951 -20.61766243 526.21765137
v -9.24471951 -20.97216797 526.02838135
v -11.24471951 -20.97216797 526.02838135
v -9.24471951 -21.35678864 525.91192627
v -11.24471951 -21.35678864 525.91192627
v -9.24471951 -21.75674248 525.87274170
v -11.24471951 -21.75674248 525.87274170
v -9.24471951 -22.15665817 525.91229248
v -11.24471951 -22.15665817 525.91229248
v -9.24471951 -22.54117012 526.02911377
v -11.24471951 -22.54117012 526.02911377
v -9.24471951 -22.89550018 526.21875000
v -11.24471951 -22.89550018 526.21875000
v -9.24471951 -23.20602989 526.47381592
v -11.24471951 -23.20602989 526.47381592
v -9.24471951 -23.46082878 526.78460693
v -11.24471951 -23.46082878 526.78460693
v -9.24471951 -23.65010452 527.13909912
v -11.24471951 -23.65010452 527.13909912
v -9.24471951 -23.76658058 527.52374268
v -11.24471951 -23.76658058 527.52374268
v -9.24471951 -23.80578423 527.92364502
v -11.24471951 -23.80578423 527.92364502
v -9.24471951 -23.76620865 528.32360840
v -11.24471951 -23.76620865 528.32360840
v -9.24471951 -23.64937210 528.70806885
v -11.24471951 -23.64937210 528.70806885
v -9.24471951 -23.45976639 529.06243896
v -11.24471951 -23.45976639 529.06243896
v -9.24471951 -23.20467758 529.37298584
v -11.24471951 -23.20467758 529.37298584
v -9.24471951 -22.89390755 529.62774658
v -11.24471951 -22.89390755 529.62774658
v -9.24471951 -22.53940201 529.81701660
v -11.24471951 -22.53940201 529.81701660
v 10.25528049 -22.15478134 529.93353271
v 8.25528049 -22.15478134 529.93353271
v 10.25528049 -21.75482750 529.97271729
v 8.25528049 -21.75482750 529.97271729
v 10.25528049 -21.35491180 529.93316650
v 8.25528049 -21.35491180 529.93316650
v 10.25528049 -20.97039986 529.81628418
v 8.25528049 -20.97039986 529.81628418
v 10.25528049 -20.61606979 529.62670898
v 8.25528049 -20.61606979 529.62670898
v 10.25528049 -20.30554008 529.37158203
v 8.25528049 -20.30554008 529.37158203
v 10.25528049 -20.05074120 529.06085205
v 8.25528049 -20.05074120 529.06085205
v 10.25528049 -19.86146545 528.70635986
v 8.25528049 -19.86146545 528.70635986
v 10.25528049 -19.74498940 528.32171631
v 8.25528049 -19.74498940 528.32171631
v 10.25528049 -19.70578575 527.92175293
v 8.25528049 -19.70578575 527.92175293
v 10.25528049 -19.74536133 527.52185059
v 8.25528049 -19.74536133 527.52185059
v 10.25528049 -19.86219788 527.13732910
v 8.25528049 -19.86219788 527.13732910
v 10.25528049 -20.05180359 526.78302002
v 8.25528049 -20.05180359 526.78302002
v 10.25528049 -20.30689240 526.47247314
v 8.25528049 -20.30689240 526.47247314
v 10.25528049 -20.61766243 526.21765137
v 8.25528049 -20.61766243 526.21765137
v 10.25528049 -20.97216797 526.02838135
v 8.25528049 -20.97216797 526.02838135
v 10.25528049 -21.35678864 525.91192627
v 8.25528049 -21.35678864 525.91192627
v 10.25528049 -21.75674248 525.87274170
v 8.25528049 -21.75674248 525.87274170
v 10.25528049 -22.15665817 525.91229248
v 8.25528049 -22.15665817 525.91229248
v 10.25528049 -22.54117012 526.02911377
v 8.25528049 -22.54117012 526.02911377
v 10.25528049 -22.89550018 526.21875000
v 8.25528049 -22.89550018 526.21875000
v 10.25528049 -23.20602989 526.47381592
v 8.25528049 -23.20602989 526.47381592
v 10.25528049 -23.46082878 526.78460693
v 8.25528049 -23.46082878 526.78460693
v 10.25528049 -23.65010452 527.13909912
v 8.25528049 -23.65010452 527.13909912
v 10.25528049 -23.76658058 527.52374268
v 8.25528049 -23.76658058 527.52374268
v 10.25528049 -23.80578423 527.92364502
v 8.25528049 -23.80578423 527.92364502
v 10.25528049 -23.76620865 528.32360840
v 8.25528049 -23.76620865 528.32360840
v 10.25528049 -23.64937210 528.70806885
v 8.25528049 -23.64937210 528.70806885
v 10.25528049 -23.45976639 529.06243896
v 8.25528049 -23.45976639 529.06243896
v 10.25528049 -23.20467758 529.37298584
v 8.25528049 -23.20467758 529.37298584
v 10.25528049 -22.89390755 529.62774658
v 8.25528049 -22.89390755 529.62774658
v 10.25528049 -22.53940201 529.81701660
v 8.25528049 -22.53940201 529.81701660
v -9.24471951 -22.13377380 574.93353271
v -11.24471951 -22.13377380 574.93353271
v -9.24471951 -21.73381996 574.97271729
v -11.24471951 -21.73381996 574.97271729
v -9.24471951 -21.33390427 574.93310547
v -11.24471951 -21.33390427 574.93310547
v -9.24471951 -20.94939232 574.81628418
v -11.24471951 -20.94939232 574.81628418
v -9.24471951 -20.59506226 574.62670898
v -11.24471951 -20.59506226 574.62670898
v -9.24471951 -20.28453255 574.37158203
v -11.24471951 -20.28453255 574.37158203
v -9.24471951 -20.02973366 574.06085205
v -11.24471951 -20.02973366 574.06085205
v -9.24471951 -19.84045792 573.70629883
v -11.24471951 -19.84045792 573.70629883
v -9.24471951 -19.72398186 573.32171631
v -11.24471951 -19.72398186 573.32171631
v -9.24471951 -19.68477821 572.92175293
v -11.24471951 -19.68477821 572.92175293
v -9.24471951 -19.72435379 572.52185059
v -11.24471951 -19.72435379 572.52185059
v -9.24471951 -19.84119034 572.13732910
v -11.24471951 -19.84119034 572.13732910
v -9.24471951 -20.03079605 571.78302002
v -11.24471951 -20.03079605 571.78302002
v -9.24471951 -20.28588486 571.47247314
v -11.24471951 -20.28588486 571.47247314
v -9.24471951 -20.59665489 571.21765137
v -11.24471951 -20.59665489 571.21765137
v -9.24471951 -20.95116043 571.02838135
v -11.24471951 -20.95116043 571.02838135
v -9.24471951 -21.33578110 570.91192627
v -11.24471951 -21.33578110 570.91192627
v -9.24471951 -21.73573494 570.87268066
v -11.24471951 -21.73573494 570.87268066
v -9.24471951 -22.13565063 570.91229248
v -11.24471951 -22.13565063 570.91229248
v -9.24471951 -22.52016258 571.02911377
v -11.24471951 -22.52016258 571.02911377
v -9.24471951 -22.87449265 571.21875000
v -11.24471951 -22.87449265 571.21875000
v -9.24471951 -23.18502235 571.47381592
v -11.24471951 -23.18502235 571.47381592
v -9.24471951 -23.43982124 571.78460693
v -11.24471951 -23.43982124 571.78460693
v -9.24471951 -23.62909698 572.13909912
v -11.24471951 -23.62909698 572.13909912
v -9.24471951 -23.74557304 572.52374268
v -11.24471951 -23.74557304 572.52374268
v -9.24471951 -23.78477669 572.92364502
v -11.24471951 -23.78477669 572.92364502
v -9.24471951 -23.74520111 573.32360840
v -11.24471951 -23.74520111 573.32360840
v -9.24471951 -23.62836456 573.70806885
v -11.24471951 -23.62836456 573.70806885
v -9.24471951 -23.43875885 574.06243896
v -11.24471951 -23.43875885 574.06243896
v -9.24471951 -23.18367004 574.37292480
v -11.24471951 -23.18367004 574.37292480
v -9.24471951 -22.87290001 574.62774658
v -11.24471951 -22.87290001 574.62774658
v -9.24471951 -22.51839447 574.81701660
v -11.24471951 -22.51839447 574.81701660
v 10.25528049 -22.13377380 574.93353271
v 8.25528049 -22.13377380 574.93353271
v 10.25528049 -21.73381996 574.97271729
v 8.25528049 -21.73381996 574.97271729
v 10.25528049 -21.33390427 574.93310547
v 8.25528049 -21.33390427 574.93310547
v 10.25528049 -20.94939232 574.81628418
v 8.25528049 -20.94939232 574.81628418
v 10.25528049 -20.59506226 574.62670898
v 8.25528049 -20.59506226 574.62670898
v 10.25528049 -20.28453255 574.37158203
v 8.25528049 -20.28453255 574.37158203
v 10.25528049 -20.02973366 574.06085205
v 8.25528049 -20.02973366 574.06085205
v 10.25528049 -19.84045792 573.70629883
v 8.25528049 -19.84045792 573.70629883
v 10.25528049 -19.72398186 573.32171631
v 8.25528049 -19.72398186 573.32171631
v 10.25528049 -19.68477821 572.92175293
v 8.25528049 -19.68477821 572.92175293
v 10.25528049 -19.72435379 572.52185059
v 8.25528049 -19.72435379 572.52185059
v 10.25528049 -19.84119034 572.13732910
v 8.25528049 -19.84119034 572.13732910
v 10.25528049 -20.03079605 571.78302002
v 8.25528049 -20.03079605 571.78302002
v 10.25528049 -20.28588486 571.47247314
v 8.25528049 -20.28588486 571.47247314
v 10.25528049 -20.59665489 571.21765137
v 8.25528049 -20.59665489 571.21765137
v 10.25528049 -20.95116043 571.02838135
v 8.25528049 -20.95116043 571.02838135
v 10.25528049 -21.33578110 570.91192627
v 8.25528049 -21.33578110 570.91192627
v 10.25528049 -21.73573494 570.87268066
v 8.25528049 -21.73573494 570.87268066
v 10.25528049 -22.13565063 570.91229248
v 8.25528049 -22.13565063 570.91229248
v 10.25528049 -22.52016258 571.02911377
v 8.25528049 -22.52016258 571.02911377
v 10.25528049 -22.87449265 571.21875000
v 8.25528049 -22.87449265 571.21875000
v 10.25528049 -23.18502235 571.47381592
v 8.25528049 -23.18502235 571.47381592
v 10.25528049 -23.43982124 571.78460693
v 8.25528049 -23.43982124 571.78460693
v 10.25528049 -23.62909698 572.13909912
v 8.25528049 -23.62909698 572.13909912
v 10.25528049 -23.74557304 572.52374268
v 8.25528049 -23.74557304 572.52374268
v 10.25528049 -23.78477669 572.92364502
v 8.25528049 -23.78477669 572.92364502
v 10.25528049 -23.74520111 573.32360840
v 8.25528049 -23.74520111 573.32360840
v 10.25528049 -23.62836456 573.70806885
v 8.25528049 -23.62836456 573.70806885
v 10.25528049 -23.43875885 574.06243896
v 8.25528049 -23.43875885 574.06243896
v 10.25528049 -23.18367004 574.37292480
v 8.25528049 -23.18367004 574.37292480
v 10.25528049 -22.87290001 574.62774658
v 8.25528049 -22.87290001 574.62774658
v 10.25528049 -22.51839447 574.81701660
v 8.25528049 -22.51839447 574.81701660
v -11.24471951 -22.23563576 530.88409424
v -15.24471951 -22.23563576 530.88409424
v -11.24471951 -21.75438499 530.92272949
v -15.24471951 -21.75438499 530.92272949
v -11.24471951 -21.27316856 530.88366699
v -15.24471951 -21.27316856 530.88366699
v -11.24471951 -20.80445290 530.76788330
v -15.24471951 -20.80445290 530.76788330
v -11.24471951 -20.36037445 530.57843018
v -15.24471951 -20.36037445 530.57843018
v -11.24471951 -19.95243835 530.32019043
v -15.24471951 -19.95243835 530.32019043
v -11.24471951 -19.59120750 529.99987793
v -15.24471951 -19.59120750 529.99987793
v -11.24471951 -19.28603745 529.62573242
v -15.24471951 -19.28603745 529.62573242
v -11.24471951 -19.04483414 529.20751953
v -15.24471951 -19.04483414 529.20751953
v -11.24471951 -18.87384033 528.75604248
v -15.24471951 -18.87384033 528.75604248
v -11.24471951 -18.77749062 528.28295898
v -15.24471951 -18.77749062 528.28295898
v -11.24471951 -18.75827408 527.80053711
v -15.24471951 -18.75827408 527.80053711
v -11.24471951 -18.81669426 527.32128906
v -15.24471951 -18.81669426 527.32128906
v -11.24471951 -18.95123291 526.85760498
v -15.24471951 -18.95123291 526.85760498
v -11.24471951 -19.15840912 526.42150879
v -15.24471951 -19.15840912 526.42150879
v -11.24471951 -19.43285561 526.02429199
v -15.24471951 -19.43285561 526.02429199
v -11.24471951 -19.76746559 525.67626953
v -15.24471951 -19.76746559 525.67626953
v -11.24471951 -20.15357208 525.38641357
v -15.24471951 -20.15357208 525.38641357
v -11.24471951 -20.58117294 525.16223145
v -15.24471951 -20.58117294 525.16223145
v -11.24471951 -21.03919792 525.00958252
v -15.24471951 -21.03919792 525.00958252
v -11.24471951 -21.51578140 524.93231201
v -15.24471951 -21.51578140 524.93231201
v -11.24471951 -21.99858093 524.93255615
v -15.24471951 -21.99858093 524.93255615
v -11.24471951 -22.47509193 525.01025391
v -15.24471951 -22.47509193 525.01025391
v -11.24471951 -22.93297386 525.16333008
v -15.24471951 -22.93297386 525.16333008
v -11.24471951 -23.36036491 525.38787842
v -15.24471951 -23.36036491 525.38787842
v -11.24471951 -23.74620056 525.67810059
v -15.24471951 -23.74620056 525.67810059
v -11.24471951 -24.08048439 526.02648926
v -15.24471951 -24.08048439 526.02648926
v -11.24471951 -24.35456085 526.42395020
v -15.24471951 -24.35456085 526.42395020
v -11.24471951 -24.56133080 526.86022949
v -15.24471951 -24.56133080 526.86022949
v -11.24471951 -24.69543648 527.32403564
v -15.24471951 -24.69543648 527.32403564
v -11.24471951 -24.75340843 527.80334473
v -15.24471951 -24.75340843 527.80334473
v -11.24471951 -24.73374176 528.28570557
v -15.24471951 -24.73374176 528.28570557
v -11.24471951 -24.63694954 528.75872803
v -15.24471951 -24.63694954 528.75872803
v -11.24471951 -24.46553612 529.21008301
v -15.24471951 -24.46553612 529.21008301
v -11.24471951 -24.22393990 529.62805176
v -15.24471951 -24.22393990 529.62805176
v -11.24471951 -23.91842270 530.00189209
v -15.24471951 -23.91842270 530.00189209
v -11.24471951 -23.55689240 530.32189941
v -15.24471951 -23.55689240 530.32189941
v -11.24471951 -23.14871407 530.57971191
v -15.24471951 -23.14871407 530.57971191
v -11.24471951 -22.70446014 530.76873779
v -15.24471951 -22.70446014 530.76873779
v -11.24471951 -22.21462822 575.88409424
v -15.24471951 -22.21462822 575.88409424
v -11.24471951 -21.73337746 575.92272949
v -15.24471951 -21.73337746 575.92272949
v -11.24471951 -21.25216103 575.88360596
v -15.24471951 -21.25216103 575.88360596
v -11.24471951 -20.78344536 575.76788330
v -15.24471951 -20.78344536 575.76788330
v -11.24471951 -20.33936691 575.57843018
v -15.24471951 -20.33936691 575.57843018
v -11.24471951 -19.93143082 575.32019043
v -15.24471951 -19.93143082 575.32019043
v -11.24471951 -19.57019997 574.99987793
v -15.24471951 -19.57019997 574.99987793
v -11.24471951 -19.26502991 574.62573242
v -15.24471951 -19.26502991 574.62573242
v -11.24471951 -19.02382660 574.20751953
v -15.24471951 -19.02382660 574.20751953
v -11.24471951 -18.85283279 573.75604248
v -15.24471951 -18.85283279 573.75604248
v -11.24471951 -18.75648308 573.28295898
v -15.24471951 -18.75648308 573.28295898
v -11.24471951 -18.73726654 572.80053711
v -15.24471951 -18.73726654 572.80053711
v -11.24471951 -18.79568481 572.32128906
v -15.24471951 -18.79568481 572.32128906
v -11.24471951 -18.93022537 571.85760498
v -15.24471951 -18.93022537 571.85760498
v -11.24471951 -19.13740158 571.42150879
v -15.24471951 -19.13740158 571.42150879
v -11.24471951 -19.41184807 571.02429199
v -15.24471951 -19.41184807 571.02429199
v -11.24471951 -19.74645805 570.67626953
v -15.24471951 -19.74645805 570.67626953
v -11.24471951 -20.13256454 570.38641357
v -15.24471951 -20.13256454 570.38641357
v -11.24471951 -20.56016541 570.16223145
v -15.24471951 -20.56016541 570.16223145
v -11.24471951 -21.01819038 570.00952148
v -15.24471951 -21.01819038 570.00952148
v -11.24471951 -21.49477386 569.93231201
v -15.24471951 -21.49477386 569.93231201
v -11.24471951 -21.97757339 569.93255615
v -15.24471951 -21.97757339 569.93255615
v -11.24471951 -22.45408440 570.01019287
v -15.24471951 -22.45408440 570.01019287
v -11.24471951 -22.91196632 570.16333008
v -15.24471951 -22.91196632 570.16333008
v -11.24471951 -23.33935738 570.38787842
v -15.24471951 -23.33935738 570.38787842
v -11.24471951 -23.72519302 570.67810059
v -15.24471951 -23.72519302 570.67810059
v -11.24471951 -24.05947685 571.02642822
v -15.24471951 -24.05947685 571.02642822
v -11.24471951 -24.33355331 571.42395020
v -15.24471951 -24.33355331 571.42395020
v -11.24471951 -24.54032326 571.86022949
v -15.24471951 -24.54032326 571.86022949
v -11.24471951 -24.67442894 572.32397461
v -15.24471951 -24.67442894 572.32397461
v -11.24471951 -24.73240089 572.80328369
v -15.24471951 -24.73240089 572.80328369
v -11.24471951 -24.71273422 573.28570557
v -15.24471951 -24.71273422 573.28570557
v -11.24471951 -24.61594200 573.75872803
v -15.24471951 -24.61594200 573.75872803
v -11.24471951 -24.44452858 574.21002197
v -15.24471951 -24.44452858 574.21002197
v -11.24471951 -24.20293236 574.62805176
v -15.24471951 -24.20293236 574.62805176
v -11.24471951 -23.89741325 575.00189209
v -15.24471951 -23.89741325 575.00189209
v -11.24471951 -23.53588486 575.32189941
v -15.24471951 -23.53588486 575.32189941
v -11.24471951 -23.12770653 575.57971191
v -15.24471951 -23.12770653 575.57971191
v -11.24471951 -22.68345261 575.76873779
v -15.24471951 -22.68345261 575.76873779
v 10.25528049 -22.23840141 524.96179199
v 14.25528049 -22.23840141 524.96179199
v 10.25528049 -21.75718498 524.92272949
v 14.25528049 -21.75718498 524.92272949
v 10.25528049 -21.27593422 524.96136475
v 14.25528049 -21.27593422 524.96136475
v 10.25528049 -20.80710983 525.07666016
v 14.25528049 -20.80710983 525.07666016
v 10.25528049 -20.36285591 525.26568604
v 14.25528049 -20.36285591 525.26568604
v 10.25528049 -19.95467758 525.52355957
v 14.25528049 -19.95467758 525.52355957
v 10.25528049 -19.59314728 525.84350586
v 14.25528049 -19.59314728 525.84350586
v 10.25528049 -19.28762817 526.21734619
v 14.25528049 -19.28762817 526.21734619
v 10.25528049 -19.04603386 526.63537598
v 14.25528049 -19.04603386 526.63537598
v 10.25528049 -18.87462044 527.08673096
v 14.25528049 -18.87462044 527.08673096
v 10.25528049 -18.77782822 527.55969238
v 14.25528049 -18.77782822 527.55969238
v 10.25528049 -18.75816154 528.04211426
v 14.25528049 -18.75816154 528.04211426
v 10.25528049 -18.81613350 528.52142334
v 14.25528049 -18.81613350 528.52142334
v 10.25528049 -18.95023918 528.98522949
v 14.25528049 -18.95023918 528.98522949
v 10.25528049 -19.15700912 529.42150879
v 14.25528049 -19.15700912 529.42150879
v 10.25528049 -19.43108368 529.81896973
v 14.25528049 -19.43108368 529.81896973
v 10.25528049 -19.76536942 530.16729736
v 14.25528049 -19.76536942 530.16729736
v 10.25528049 -20.15120316 530.45751953
v 14.25528049 -20.15120316 530.45751953
v 10.25528049 -20.57859612 530.68212891
v 14.25528049 -20.57859612 530.68212891
v 10.25528049 -21.03647804 530.83520508
v 14.25528049 -21.03647804 530.83520508
v 10.25528049 -21.51298904 530.91290283
v 14.25528049 -21.51298904 530.91290283
v 10.25528049 -21.99578857 530.91308594
v 14.25528049 -21.99578857 530.91308594
v 10.25528049 -22.47237206 530.83587646
v 14.25528049 -22.47237206 530.83587646
v 10.25528049 -22.93039703 530.68322754
v 14.25528049 -22.93039703 530.68322754
v 10.25528049 -23.35799789 530.45904541
v 14.25528049 -23.35799789 530.45904541
v 10.25528049 -23.74410439 530.16918945
v 14.25528049 -23.74410439 530.16918945
v 10.25528049 -24.07871437 529.82110596
v 14.25528049 -24.07871437 529.82110596
v 10.25528049 -24.35316086 529.42395020
v 14.25528049 -24.35316086 529.42395020
v 10.25528049 -24.56033707 528.98785400
v 14.25528049 -24.56033707 528.98785400
v 10.25528049 -24.69487572 528.52416992
v 14.25528049 -24.69487572 528.52416992
v 10.25528049 -24.75329590 528.04492188
v 14.25528049 -24.75329590 528.04492188
v 10.25528049 -24.73407936 527.56250000
v 14.25528049 -24.73407936 527.56250000
v 10.25528049 -24.63772774 527.08941650
v 14.25528049 -24.63772774 527.08941650
v 10.25528049 -24.46673584 526.63787842
v 14.25528049 -24.46673584 526.63787842
v 10.25528049 -24.22553253 526.21966553
v 14.25528049 -24.22553253 526.21966553
v 10.25528049 -23.92036247 525.84558105
v 14.25528049 -23.92036247 525.84558105
v 10.25528049 -23.55913162 525.52520752
v 14.25528049 -23.55913162 525.52520752
v 10.25528049 -23.15119362 525.26696777
v 14.25528049 -23.15119362 525.26696777
v 10.25528049 -22.70711708 525.07757568
v 14.25528049 -22.70711708 525.07757568
v 10.25528049 -22.21739388 569.96179199
v 14.25528049 -22.21739388 569.96179199
v 10.25528049 -21.73617744 569.92272949
v 14.25528049 -21.73617744 569.92272949
v 10.25528049 -21.25492668 569.96130371
v 14.25528049 -21.25492668 569.96130371
v 10.25528049 -20.78610229 570.07666016
v 14.25528049 -20.78610229 570.07666016
v 10.25528049 -20.34184837 570.26568604
v 14.25528049 -20.34184837 570.26568604
v 10.25528049 -19.93367004 570.52355957
v 14.25528049 -19.93367004 570.52355957
v 10.25528049 -19.57213974 570.84350586
v 14.25528049 -19.57213974 570.84350586
v 10.25528049 -19.26662064 571.21734619
v 14.25528049 -19.26662064 571.21734619
v 10.25528049 -19.02502632 571.63537598
v 14.25528049 -19.02502632 571.63537598
v 10.25528049 -18.85361290 572.08673096
v 14.25528049 -18.85361290 572.08673096
v 10.25528049 -18.75682068 572.55969238
v 14.25528049 -18.75682068 572.55969238
v 10.25528049 -18.73715401 573.04211426
v 14.25528049 -18.73715401 573.04211426
v 10.25528049 -18.79512596 573.52142334
v 14.25528049 -18.79512596 573.52142334
v 10.25528049 -18.92923164 573.98522949
v 14.25528049 -18.92923164 573.98522949
v 10.25528049 -19.13600159 574.42150879
v 14.25528049 -19.13600159 574.42150879
v 10.25528049 -19.41007614 574.81896973
v 14.25528049 -19.41007614 574.81896973
v 10.25528049 -19.74436188 575.16729736
v 14.25528049 -19.74436188 575.16729736
v 10.25528049 -20.13019562 575.45751953
v 14.25528049 -20.13019562 575.45751953
v 10.25528049 -20.55758858 575.68206787
v 14.25528049 -20.55758858 575.68206787
v 10.25528049 -21.01547050 575.83520508
v 14.25528049 -21.01547050 575.83520508
v 10.25528049 -21.49198151 575.91284180
v 14.25528049 -21.49198151 575.91284180
v 10.25528049 -21.97478104 575.91308594
v 14.25528049 -21.97478104 575.91308594
v 10.25528049 -22.45136452 575.83587646
v 14.25528049 -22.45136452 575.83587646
v 10.25528049 -22.90938759 575.68316650
v 14.25528049 -22.90938759 575.68316650
v 10.25528049 -23.33699036 575.45904541
v 14.25528049 -23.33699036 575.45904541
v 10.25528049 -23.72309685 575.16918945
v 14.25528049 -23.72309685 575.16918945
v 10.25528049 -24.05770683 574.82110596
v 14.25528049 -24.05770683 574.82110596
v 10.25528049 -24.33215332 574.42395020
v 14.25528049 -24.33215332 574.42395020
v 10.25528049 -24.53932953 573.98785400
v 14.25528049 -24.53932953 573.98785400
v 10.25528049 -24.67386818 573.52416992
v 14.25528049 -24.67386818 573.52416992
v 10.25528049 -24.73228836 573.04492188
v 14.25528049 -24.73228836 573.04492188
v 10.25528049 -24.71307182 572.56250000
v 14.25528049 -24.71307182 572.56250000
v 10.25528049 -24.61672020 572.08941650
v 14.25528049 -24.61672020 572.08941650
v 10.25528049 -24.44572830 571.63787842
v 14.25528049 -24.44572830 571.63787842
v 10.25528049 -24.20452499 571.21966553
v 14.25528049 -24.20452499 571.21966553
v 10.25528049 -23.89935493 570.84552002
v 14.25528049 -23.89935493 570.84552002
v 10.25528049 -23.53812408 570.52520752
v 14.25528049 -23.53812408 570.52520752
v 10.25528049 -23.13018608 570.26696777
v 14.25528049 -23.13018608 570.26696777
v 10.25528049 -22.68610954 570.07751465
v 14.25528049 -22.68610954 570.07751465
v 8.25528049 -16.77951431 561.54705811
v 8.25528049 -16.89688301 562.16387939
v 8.25528049 -17.09063721 562.76116943
v 8.25528049 -17.35772133 563.32940674
v 8.25528049 -17.69392204 563.85974121
v 8.25528049 -18.09393883 564.34375000
v 8.25528049 -18.55146027 564.77380371
v 8.25528049 -19.05927467 565.14312744
v 8.25528049 -19.60937119 565.44586182
v 8.25528049 -20.19307518 565.67724609
v 8.25528049 -20.80117989 565.83367920
v 8.25528049 -21.42409706 565.91271973
v 8.25528049 -22.05200195 565.91296387
v 8.25528049 -22.67499352 565.83459473
v 8.25528049 -23.28324509 565.67871094
v 8.25528049 -23.86716270 565.44781494
v 8.25528049 -24.41754150 565.14562988
v 8.25528049 -24.92570114 564.77679443
v 8.25528049 -25.38362503 564.34716797
v 8.25528049 -25.78409195 563.86352539
v 8.25528049 -26.12078857 563.33349609
v 8.25528049 -26.38840103 562.76550293
v 8.25528049 -26.58271408 562.16839600
v 8.25528049 -26.70065880 561.55169678
v 14.25528049 -16.77391243 573.54705811
v 8.25528049 -16.77391243 573.54705811
v 14.25528049 -16.89128113 574.16387939
v 8.25528049 -16.89128113 574.16387939
v 14.25528049 -17.08503532 574.76116943
v 8.25528049 -17.08503532 574.76116943
v 14.25528049 -17.35211945 575.32940674
v 8.25528049 -17.35211945 575.32940674
v 14.25528049 -17.68832016 575.85974121
v 8.25528049 -17.68832016 575.85974121
v 14.25528049 -18.08833694 576.34375000
v 8.25528049 -18.08833694 576.34375000
v 14.25528049 -18.54585838 576.77380371
v 8.25528049 -18.54585838 576.77380371
v 14.25528049 -19.05367279 577.14312744
v 8.25528049 -19.05367279 577.14312744
v 14.25528049 -19.60376930 577.44586182
v 8.25528049 -19.60376930 577.44586182
v 14.25528049 -20.18747330 577.67724609
v 8.25528049 -20.18747330 577.67724609
v 14.25528049 -20.79557800 577.83367920
v 8.25528049 -20.79557800 577.83367920
v 14.25528049 -21.41849518 577.91271973
v 8.25528049 -21.41849518 577.91271973
v 14.25528049 -22.04640007 577.91296387
v 8.25528049 -22.04640007 577.91296387
v 14.25528049 -22.66939163 577.83459473
v 8.25528049 -22.66939163 577.83459473
v 14.25528049 -23.27764130 577.67871094
v 8.25528049 -23.27764130 577.67871094
v 14.25528049 -23.86156082 577.44781494
v 8.25528049 -23.86156082 577.44781494
v 14.25528049 -24.41193962 577.14556885
v 8.25528049 -24.41193962 577.14556885
v 14.25528049 -24.92009926 576.77673340
v 8.25528049 -24.92009926 576.77673340
v 14.25528049 -25.37802124 576.34716797
v 8.25528049 -25.37802124 576.34716797
v 14.25528049 -25.77849007 575.86352539
v 8.25528049 -25.77849007 575.86352539
v 14.25528049 -26.11518478 575.33349609
v 8.25528049 -26.11518478 575.33349609
v 14.25528049 -26.38279915 574.76550293
v 8.25528049 -26.38279915 574.76550293
v 14.25528049 -26.57711220 574.16839600
v 8.25528049 -26.57711220 574.16839600
v 14.25528049 -26.69505692 573.55169678
v 8.25528049 -26.69505692 573.55169678
v -15.24471951 -26.69505692 573.55169678
v -9.24471951 -26.69505692 573.55169678
v -15.24471951 -26.57711220 574.16839600
v -9.24471951 -26.57711220 574.16839600
v -15.24471951 -26.38279915 574.76550293
v -9.24471951 -26.38279915 574.76550293
v -15.24471951 -26.11518478 575.33349609
v -9.24471951 -26.11518478 575.33349609
v -15.24471951 -25.77849007 575.86352539
v -9.24471951 -25.77849007 575.86352539
v -15.24471951 -25.37802124 576.34716797
v -9.24471951 -25.37802124 576.34716797
v -15.24471951 -24.92009926 576.77673340
v -9.24471951 -24.92009926 576.77673340
v -15.24471951 -24.41193962 577.14556885
v -9.24471951 -24.41193962 577.14556885
v -15.24471951 -23.86156082 577.44781494
v -9.24471951 -23.86156082 577.44781494
v -15.24471951 -23.27764130 577.67871094
v -9.24471951 -23.27764130 577.67871094
v -15.24471951 -22.66939163 577.83459473
v -9.24471951 -22.66939163 577.83459473
v -15.24471951 -22.04640007 577.91296387
v -9.24471951 -22.04640007 577.91296387
v -15.24471951 -21.41849518 577.91271973
v -9.24471951 -21.41849518 577.91271973
v -15.24471951 -20.79557800 577.83367920
v -9.24471951 -20.79557800 577.83367920
v -15.24471951 -20.18747330 577.67724609
v -9.24471951 -20.18747330 577.67724609
v -15.24471951 -19.60376930 577.44586182
v -9.24471951 -19.60376930 577.44586182
v -15.24471951 -19.05367279 577.14312744
v -9.24471951 -19.05367279 577.14312744
v -15.24471951 -18.54585838 576.77380371
v -9.24471951 -18.54585838 576.77380371
v -15.24471951 -18.08833694 576.34375000
v -9.24471951 -18.08833694 576.34375000
v -15.24471951 -17.68832016 575.85974121
v -9.24471951 -17.68832016 575.85974121
v -15.24471951 -17.35211945 575.32940674
v -9.24471951 -17.35211945 575.32940674
v -15.24471951 -17.08503532 574.76116943
v -9.24471951 -17.08503532 574.76116943
v -15.24471951 -16.89128113 574.16387939
v -9.24471951 -16.89128113 574.16387939
v -15.24471951 -16.77391243 573.54705811
v -9.24471951 -16.77391243 573.54705811
v -9.24471951 -26.73095512 527.42504883
v -15.24471951 -26.73095512 527.42504883
v 8.25528049 -26.73095512 527.42504883
v 14.25528049 -26.73095512 527.42504883
v -15.24471951 -16.79302406 527.31359863
v -9.24471951 -16.79302406 527.31359863
v -9.24471951 -16.90362358 526.71582031
v -15.24471951 -16.90362358 526.71582031
v -9.24471951 -17.08594704 526.13592529
v -15.24471951 -17.08594704 526.13592529
v -9.24471951 -17.33730316 525.58239746
v -15.24471951 -17.33730316 525.58239746
v -9.24471951 -17.65397263 525.06347656
v -15.24471951 -17.65397263 525.06347656
v -9.24471951 -18.03127670 524.58685303
v -15.24471951 -18.03127670 524.58685303
v -9.24471951 -18.46363640 524.15948486
v -15.24471951 -18.46363640 524.15948486
v -9.24471951 -18.94466209 523.78778076
v -15.24471951 -18.94466209 523.78778076
v -9.24471951 -19.46724129 523.47717285
v -15.24471951 -19.46724129 523.47717285
v -9.24471951 -20.02365112 523.23229980
v -15.24471951 -20.02365112 523.23229980
v -9.24471951 -20.60566521 523.05676270
v -15.24471951 -20.60566521 523.05676270
v -9.24471951 -21.20467949 522.95318604
v -15.24471951 -21.20467949 522.95318604
v -9.24471951 -21.81184196 522.92303467
v -15.24471951 -21.81184196 522.92303467
v -9.24471951 -22.41817474 522.96679688
v -15.24471951 -22.41817474 522.96679688
v -9.24471951 -23.01471710 523.08380127
v -15.24471951 -23.01471710 523.08380127
v -9.24471951 -23.59264946 523.27233887
v -15.24471951 -23.59264946 523.27233887
v -9.24471951 -24.14342690 523.52966309
v -15.24471951 -24.14342690 523.52966309
v -9.24471951 -24.65891266 523.85186768
v -15.24471951 -24.65891266 523.85186768
v -9.24471951 -25.13148117 524.23425293
v -15.24471951 -25.13148117 524.23425293
v -9.24471951 -25.55415154 524.67120361
v -15.24471951 -25.55415154 524.67120361
v -9.24471951 -25.92067337 525.15618896
v -15.24471951 -25.92067337 525.15618896
v -9.24471951 -26.22562790 525.68206787
v -15.24471951 -26.22562790 525.68206787
v -9.24471951 -26.46450996 526.24108887
v -15.24471951 -26.46450996 526.24108887
v -9.24471951 -26.63378716 526.82495117
v -15.24471951 -26.63378716 526.82495117
v 14.25528049 -26.63378716 526.82495117
v 8.25528049 -26.63378716 526.82495117
v 8.25528049 -26.46450996 526.24108887
v 14.25528049 -26.46450996 526.24108887
v 8.25528049 -26.22562790 525.68206787
v 14.25528049 -26.22562790 525.68206787
v 8.25528049 -25.92067337 525.15618896
v 14.25528049 -25.92067337 525.15618896
v 8.25528049 -25.55415154 524.67120361
v 14.25528049 -25.55415154 524.67120361
v 8.25528049 -25.13148117 524.23425293
v 14.25528049 -25.13148117 524.23425293
v 8.25528049 -24.65891266 523.85186768
v 14.25528049 -24.65891266 523.85186768
v 8.25528049 -24.14342690 523.52966309
v 14.25528049 -24.14342690 523.52966309
v 8.25528049 -23.59264946 523.27233887
v 14.25528049 -23.59264946 523.27233887
v 8.25528049 -23.01471710 523.08380127
v 14.25528049 -23.01471710 523.08380127
v 8.25528049 -22.41817474 522.96679688
v 14.25528049 -22.41817474 522.96679688
v 8.25528049 -21.81184196 522.92303467
v 14.25528049 -21.81184196 522.92303467
v 8.25528049 -21.20467949 522.95318604
v 14.25528049 -21.20467949 522.95318604
v 8.25528049 -20.60566521 523.05676270
v 14.25528049 -20.60566521 523.05676270
v 8.25528049 -20.02365112 523.23229980
v 14.25528049 -20.02365112 523.23229980
v 8.25528049 -19.46724129 523.47717285
v 14.25528049 -19.46724129 523.47717285
v 8.25528049 -18.94466209 523.78778076
v 14.25528049 -18.94466209 523.78778076
v 8.25528049 -18.46363640 524.15948486
v 14.25528049 -18.46363640 524.15948486
v 8.25528049 -18.03127670 524.58685303
v 14.25528049 -18.03127670 524.58685303
v 8.25528049 -17.65397263 525.06347656
v 14.25528049 -17.65397263 525.06347656
v 8.25528049 -17.33730316 525.58239746
v 14.25528049 -17.33730316 525.58239746
v 8.25528049 -17.08594704 526.13592529
v 14.25528049 -17.08594704 526.13592529
v 8.25528049 -16.90362358 526.71582031
v 14.25528049 -16.90362358 526.71582031
v 8.25528049 -16.79302406 527.31359863
v 14.25528049 -16.79302406 527.31359863
f 1 2 3
f 3 2 4
f 4 5 3
f 3 5 6
f 7 8 9
f 9 8 10
f 11 12 13
f 13 12 14
f 13 14 15
f 15 14 16
f 15 17 13
f 13 17 18
f 19 20 21
f 21 20 22
f 21 22 23
f 23 22 24
f 24 22 25
f 23 26 21
f 9 10 5
f 5 10 6
f 1 27 28
f 28 27 29
f 28 29 30
f 30 29 31
f 30 31 32
f 32 31 33
f 33 31 34
f 34 31 35
f 34 35 36
f 36 35 37
f 36 37 38
f 38 37 39
f 38 39 40
f 1 3 27
f 27 3 41
f 41 3 42
f 42 3 43
f 43 3 44
f 44 3 45
f 45 3 46
f 46 3 47
f 47 3 48
f 48 3 10
f 48 10 49
f 49 10 50
f 50 10 51
f 51 10 52
f 52 10 11
f 52 11 53
f 53 11 54
f 53 54 55
f 55 54 56
f 55 56 57
f 3 6 10
f 8 12 10
f 10 12 11
f 58 59 11
f 11 59 60
f 11 60 54
f 57 61 55
f 55 61 62
f 62 61 63
f 62 63 64
f 64 63 65
f 64 65 66
f 66 65 67
f 67 65 68
f 67 68 69
f 69 68 70
f 69 70 71
f 71 70 72
f 72 70 73
f 72 73 74
f 74 73 75
f 74 75 76
f 76 75 77
f 76 77 78
f 78 77 79
f 79 77 80
f 79 80 40
f 40 80 38
f 30 81 28
f 28 81 82
f 28 82 83
f 4 2 84
f 84 2 85
f 84 85 86
f 86 85 87
f 86 87 88
f 88 87 89
f 88 89 90
f 91 92 85
f 85 92 93
f 85 93 87
f 90 94 88
f 88 94 95
f 95 94 96
f 95 96 97
f 97 96 98
f 97 98 99
f 99 98 100
f 100 98 101
f 100 101 102
f 102 101 103
f 102 103 104
f 104 103 105
f 105 103 106
f 105 106 107
f 107 106 108
f 107 108 109
f 109 108 110
f 109 110 111
f 111 110 112
f 112 110 113
f 112 113 114
f 114 113 115
f 114 115 116
f 116 115 117
f 117 115 118
f 117 118 119
f 119 118 120
f 119 120 121
f 121 120 122
f 121 122 123
f 123 124 121
f 121 124 125
f 125 124 20
f 125 20 126
f 126 20 9
f 126 9 127
f 127 9 128
f 128 9 129
f 129 9 130
f 130 9 4
f 130 4 131
f 131 4 132
f 132 4 133
f 133 4 134
f 134 4 135
f 135 4 136
f 136 4 137
f 137 4 84
f 124 138 20
f 20 138 139
f 20 139 140
f 20 19 9
f 9 19 7
f 9 5 4
f 28 141 1
f 1 141 142
f 1 142 2
f 2 142 143
f 2 143 144
f 144 143 145
f 144 145 146
f 147 148 141
f 141 148 149
f 141 149 142
f 142 149 150
f 143 151 145
f 146 152 144
f 144 85 2
f 141 28 153
f 153 28 83
f 153 83 154
f 154 83 82
f 154 82 155
f 155 82 81
f 155 81 156
f 156 81 30
f 156 30 157
f 157 30 32
f 157 32 158
f 158 32 33
f 158 33 159
f 159 33 34
f 159 34 160
f 160 34 36
f 160 36 161
f 161 36 38
f 161 38 162
f 162 38 80
f 162 80 163
f 163 80 77
f 163 77 164
f 164 77 75
f 164 75 165
f 165 75 73
f 165 73 166
f 166 73 70
f 166 70 167
f 167 70 68
f 167 68 168
f 168 68 65
f 168 65 169
f 169 65 63
f 169 63 170
f 170 63 61
f 170 61 171
f 171 61 57
f 171 57 172
f 172 57 56
f 172 56 173
f 173 56 54
f 173 54 174
f 174 54 60
f 174 60 175
f 175 60 59
f 175 59 176
f 176 59 58
f 176 58 13
f 13 58 11
f 177 105 178
f 178 105 107
f 178 107 179
f 179 107 109
f 179 109 180
f 180 109 111
f 180 111 181
f 181 111 112
f 181 112 182
f 182 112 114
f 182 114 183
f 183 114 116
f 183 116 184
f 184 116 117
f 184 117 185
f 185 117 119
f 185 119 186
f 186 119 121
f 186 121 187
f 187 121 125
f 187 125 188
f 188 125 126
f 188 126 189
f 189 126 127
f 189 127 190
f 190 127 128
f 190 128 191
f 191 128 129
f 191 129 192
f 192 129 130
f 192 130 193
f 193 130 131
f 193 131 194
f 194 131 132
f 194 132 195
f 195 132 133
f 195 133 196
f 196 133 134
f 196 134 197
f 197 134 135
f 197 135 198
f 198 135 136
f 198 136 199
f 199 136 137
f 199 137 200
f 200 137 84
f 200 84 201
f 201 84 86
f 201 86 202
f 202 86 88
f 202 88 203
f 203 88 95
f 203 95 204
f 204 95 97
f 204 97 205
f 205 97 99
f 205 99 206
f 206 99 100
f 206 100 207
f 207 100 102
f 207 102 208
f 208 102 104
f 208 104 177
f 177 104 105
f 76 209 74
f 74 209 210
f 74 210 72
f 72 210 211
f 72 211 71
f 71 211 212
f 71 212 69
f 69 212 213
f 69 213 67
f 67 213 214
f 67 214 66
f 66 214 215
f 66 215 64
f 64 215 216
f 64 216 62
f 62 216 217
f 62 217 55
f 55 217 218
f 55 218 53
f 53 218 219
f 53 219 52
f 52 219 220
f 52 220 51
f 51 220 221
f 51 221 50
f 50 221 222
f 50 222 49
f 49 222 223
f 49 223 48
f 48 223 224
f 48 224 47
f 47 224 225
f 47 225 46
f 46 225 226
f 46 226 45
f 45 226 227
f 45 227 44
f 44 227 228
f 44 228 43
f 43 228 229
f 43 229 42
f 42 229 230
f 42 230 41
f 41 230 231
f 41 231 27
f 27 231 232
f 27 232 29
f 29 232 233
f 29 233 31
f 31 233 234
f 31 234 35
f 35 234 235
f 35 235 37
f 37 235 236
f 37 236 39
f 39 236 237
f 39 237 40
f 40 237 238
f 40 238 79
f 79 238 239
f 79 239 78
f 78 239 240
f 78 240 76
f 76 240 209
f 241 242 243
f 243 242 244
f 243 244 245
f 245 244 246
f 245 246 247
f 247 246 248
f 247 248 249
f 249 248 250
f 249 250 251
f 251 250 252
f 251 252 253
f 253 252 254
f 253 254 255
f 255 254 256
f 255 256 257
f 257 256 258
f 257 258 259
f 259 258 260
f 259 260 261
f 261 260 262
f 261 262 263
f 263 262 264
f 263 264 265
f 265 264 266
f 265 266 267
f 267 266 268
f 267 268 269
f 269 268 270
f 269 270 271
f 271 270 272
f 271 272 273
f 273 272 274
f 273 274 275
f 275 274 276
f 275 276 277
f 277 276 278
f 277 278 279
f 279 278 280
f 279 280 281
f 281 280 282
f 281 282 283
f 283 282 284
f 283 284 285
f 285 284 286
f 285 286 287
f 287 286 288
f 287 288 289
f 289 288 290
f 289 290 291
f 291 290 292
f 291 292 293
f 293 292 294
f 293 294 295
f 295 294 296
f 295 296 297
f 297 296 298
f 297 298 299
f 299 298 300
f 299 300 301
f 301 300 302
f 301 302 303
f 303 302 304
f 303 304 305
f 305 304 306
f 305 306 307
f 307 306 308
f 307 308 309
f 309 308 310
f 309 310 311
f 311 310 312
f 311 312 313
f 313 312 314
f 313 314 315
f 315 314 316
f 315 316 317
f 317 316 318
f 317 318 241
f 241 318 242
f 241 243 210
f 210 243 245
f 210 245 211
f 211 245 247
f 211 247 212
f 212 247 249
f 212 249 213
f 213 249 251
f 213 251 214
f 214 251 253
f 214 253 215
f 215 253 255
f 215 255 257
f 215 257 216
f 216 257 259
f 216 259 217
f 217 259 261
f 217 261 218
f 218 261 263
f 218 263 219
f 219 263 265
f 219 265 267
f 219 267 220
f 220 267 269
f 220 269 221
f 221 269 271
f 221 271 222
f 222 271 273
f 222 273 223
f 223 273 275
f 223 275 224
f 224 275 277
f 224 277 279
f 224 279 225
f 225 279 281
f 225 281 226
f 226 281 283
f 226 283 227
f 227 283 285
f 227 285 228
f 228 285 287
f 228 287 289
f 228 289 229
f 229 289 291
f 229 291 230
f 230 291 293
f 230 293 231
f 231 293 295
f 231 295 232
f 232 295 297
f 232 297 233
f 233 297 299
f 233 299 301
f 233 301 234
f 234 301 303
f 234 303 235
f 235 303 305
f 235 305 236
f 236 305 307
f 236 307 237
f 237 307 309
f 237 309 311
f 237 311 238
f 238 311 313
f 238 313 239
f 239 313 315
f 239 315 240
f 240 315 317
f 240 317 209
f 209 317 241
f 209 241 210
f 319 320 321
f 321 320 322
f 321 322 323
f 323 322 324
f 323 324 325
f 325 324 326
f 325 326 327
f 327 326 328
f 327 328 329
f 329 328 330
f 329 330 331
f 331 330 332
f 331 332 333
f 333 332 334
f 333 334 335
f 335 334 336
f 335 336 337
f 337 336 338
f 337 338 339
f 339 338 340
f 339 340 341
f 341 340 342
f 341 342 343
f 343 342 344
f 343 344 345
f 345 344 346
f 345 346 347
f 347 346 348
f 347 348 349
f 349 348 350
f 349 350 351
f 351 350 352
f 351 352 353
f 353 352 354
f 353 354 355
f 355 354 356
f 355 356 357
f 357 356 358
f 357 358 359
f 359 358 360
f 359 360 361
f 361 360 362
f 361 362 363
f 363 362 364
f 363 364 365
f 365 364 366
f 365 366 367
f 367 366 368
f 367 368 369
f 369 368 370
f 369 370 371
f 371 370 372
f 371 372 373
f 373 372 374
f 373 374 375
f 375 374 376
f 375 376 377
f 377 376 378
f 377 378 379
f 379 378 380
f 379 380 381
f 381 380 382
f 381 382 383
f 383 382 384
f 383 384 385
f 385 384 386
f 385 386 387
f 387 386 388
f 387 388 389
f 389 388 390
f 389 390 391
f 391 390 392
f 391 392 393
f 393 392 394
f 393 394 395
f 395 394 396
f 395 396 319
f 319 396 320
f 319 321 194
f 194 321 323
f 194 323 193
f 193 323 325
f 193 325 192
f 192 325 327
f 192 327 191
f 191 327 329
f 191 329 190
f 190 329 331
f 190 331 189
f 189 331 333
f 189 333 335
f 189 335 188
f 188 335 337
f 188 337 187
f 187 337 339
f 187 339 186
f 186 339 341
f 186 341 185
f 185 341 343
f 185 343 345
f 185 345 184
f 184 345 347
f 184 347 183
f 183 347 349
f 183 349 182
f 182 349 351
f 182 351 181
f 181 351 353
f 181 353 180
f 180 353 355
f 180 355 357
f 180 357 179
f 179 357 359
f 179 359 178
f 178 359 361
f 178 361 177
f 177 361 363
f 177 363 208
f 208 363 365
f 208 365 367
f 208 367 207
f 207 367 369
f 207 369 206
f 206 369 371
f 206 371 205
f 205 371 373
f 205 373 204
f 204 373 375
f 204 375 203
f 203 375 377
f 203 377 379
f 203 379 202
f 202 379 381
f 202 381 201
f 201 381 383
f 201 383 200
f 200 383 385
f 200 385 199
f 199 385 387
f 199 387 389
f 199 389 198
f 198 389 391
f 198 391 197
f 197 391 393
f 197 393 196
f 196 393 395
f 196 395 195
f 195 395 319
f 195 319 194
f 397 398 399
f 399 398 400
f 399 400 401
f 401 400 402
f 401 402 403
f 403 402 404
f 403 404 405
f 405 404 406
f 405 406 407
f 407 406 408
f 407 408 409
f 409 408 410
f 409 410 411
f 411 410 412
f 411 412 413
f 413 412 414
f 413 414 415
f 415 414 416
f 415 416 417
f 417 416 418
f 417 418 419
f 419 418 420
f 419 420 421
f 421 420 422
f 421 422 423
f 423 422 424
f 423 424 425
f 425 424 426
f 425 426 427
f 427 426 428
f 427 428 429
f 429 428 430
f 429 430 431
f 431 430 432
f 431 432 433
f 433 432 434
f 433 434 435
f 435 434 436
f 435 436 437
f 437 436 438
f 437 438 439
f 439 438 440
f 439 440 441
f 441 440 442
f 441 442 443
f 443 442 444
f 443 444 445
f 445 444 446
f 445 446 447
f 447 446 448
f 447 448 449
f 449 448 450
f 449 450 451
f 451 450 452
f 451 452 453
f 453 452 454
f 453 454 455
f 455 454 456
f 455 456 457
f 457 456 458
f 457 458 459
f 459 458 460
f 459 460 397
f 397 460 398
f 461 462 463
f 463 462 464
f 463 464 465
f 465 464 466
f 465 466 467
f 467 466 468
f 467 468 469
f 469 468 470
f 469 470 471
f 471 470 472
f 471 472 473
f 473 472 474
f 473 474 475
f 475 474 476
f 475 476 477
f 477 476 478
f 477 478 479
f 479 478 480
f 479 480 481
f 481 480 482
f 481 482 483
f 483 482 484
f 483 484 485
f 485 484 486
f 485 486 487
f 487 486 488
f 487 488 489
f 489 488 490
f 489 490 491
f 491 490 492
f 491 492 493
f 493 492 494
f 493 494 495
f 495 494 496
f 495 496 497
f 497 496 498
f 497 498 499
f 499 498 500
f 499 500 501
f 501 500 502
f 501 502 503
f 503 502 504
f 503 504 505
f 505 504 506
f 505 506 507
f 507 506 508
f 507 508 509
f 509 508 510
f 509 510 511
f 511 510 512
f 511 512 513
f 513 512 514
f 513 514 515
f 515 514 516
f 515 516 517
f 517 516 518
f 517 518 519
f 519 518 520
f 519 520 521
f 521 520 522
f 521 522 523
f 523 522 524
f 523 524 461
f 461 524 462
f 525 526 527
f 527 526 528
f 527 528 529
f 529 528 530
f 529 530 531
f 531 530 532
f 531 532 533
f 533 532 534
f 533 534 535
f 535 534 536
f 535 536 537
f 537 536 538
f 537 538 539
f 539 538 540
f 539 540 541
f 541 540 542
f 541 542 543
f 543 542 544
f 543 544 545
f 545 544 546
f 545 546 547
f 547 546 548
f 547 548 549
f 549 548 550
f 549 550 551
f 551 550 552
f 551 552 553
f 553 552 554
f 553 554 555
f 555 554 556
f 555 556 557
f 557 556 558
f 557 558 559
f 559 558 560
f 559 560 561
f 561 560 562
f 561 562 563
f 563 562 564
f 563 564 565
f 565 564 566
f 565 566 567
f 567 566 568
f 567 568 569
f 569 568 570
f 569 570 571
f 571 570 572
f 571 572 573
f 573 572 574
f 573 574 575
f 575 574 576
f 575 576 577
f 577 576 578
f 577 578 579
f 579 578 580
f 579 580 581
f 581 580 582
f 581 582 583
f 583 582 584
f 583 584 585
f 585 584 586
f 585 586 587
f 587 586 588
f 587 588 525
f 525 588 526
f 589 590 591
f 591 590 592
f 591 592 593
f 593 592 594
f 593 594 595
f 595 594 596
f 595 596 597
f 597 596 598
f 597 598 599
f 599 598 600
f 599 600 601
f 601 600 602
f 601 602 603
f 603 602 604
f 603 604 605
f 605 604 606
f 605 606 607
f 607 606 608
f 607 608 609
f 609 608 610
f 609 610 611
f 611 610 612
f 611 612 613
f 613 612 614
f 613 614 615
f 615 614 616
f 615 616 617
f 617 616 618
f 617 618 619
f 619 618 620
f 619 620 621
f 621 620 622
f 621 622 623
f 623 622 624
f 623 624 625
f 625 624 626
f 625 626 627
f 627 626 628
f 627 628 629
f 629 628 630
f 629 630 631
f 631 630 632
f 631 632 633
f 633 632 634
f 633 634 635
f 635 634 636
f 635 636 637
f 637 636 638
f 637 638 639
f 639 638 640
f 639 640 641
f 641 640 642
f 641 642 643
f 643 642 644
f 643 644 645
f 645 644 646
f 645 646 647
f 647 646 648
f 647 648 649
f 649 648 650
f 649 650 651
f 651 650 652
f 651 652 589
f 589 652 590
f 653 654 655
f 655 654 656
f 655 656 657
f 657 656 658
f 657 658 659
f 659 658 660
f 659 660 661
f 661 660 662
f 661 662 663
f 663 662 664
f 663 664 665
f 665 664 666
f 665 666 667
f 667 666 668
f 667 668 669
f 669 668 670
f 669 670 671
f 671 670 672
f 671 672 673
f 673 672 674
f 673 674 675
f 675 674 676
f 675 676 677
f 677 676 678
f 677 678 679
f 679 678 680
f 679 680 681
f 681 680 682
f 681 682 683
f 683 682 684
f 683 684 685
f 685 684 686
f 685 686 687
f 687 686 688
f 687 688 689
f 689 688 690
f 689 690 691
f 691 690 692
f 691 692 693
f 693 692 694
f 693 694 695
f 695 694 696
f 695 696 697
f 697 696 698
f 697 698 699
f 699 698 700
f 699 700 701
f 701 700 702
f 701 702 703
f 703 702 704
f 703 704 705
f 705 704 706
f 705 706 707
f 707 706 708
f 707 708 709
f 709 708 710
f 709 710 711
f 711 710 712
f 711 712 713
f 713 712 714
f 713 714 715
f 715 714 716
f 715 716 717
f 717 716 718
f 717 718 719
f 719 718 720
f 719 720 721
f 721 720 722
f 721 722 723
f 723 722 724
f 723 724 725
f 725 724 726
f 725 726 727
f 727 726 728
f 727 728 729
f 729 728 730
f 729 730 653
f 653 730 654
f 653 655 400
f 400 655 657
f 400 657 402
f 402 657 659
f 402 659 404
f 404 659 661
f 404 661 406
f 406 661 663
f 406 663 408
f 408 663 665
f 408 665 410
f 410 665 667
f 410 667 669
f 410 669 412
f 412 669 671
f 412 671 414
f 414 671 673
f 414 673 416
f 416 673 675
f 416 675 418
f 418 675 677
f 418 677 679
f 418 679 420
f 420 679 681
f 420 681 422
f 422 681 683
f 422 683 424
f 424 683 685
f 424 685 426
f 426 685 687
f 426 687 428
f 428 687 689
f 428 689 691
f 428 691 430
f 430 691 693
f 430 693 432
f 432 693 695
f 432 695 434
f 434 695 697
f 434 697 436
f 436 697 699
f 436 699 701
f 436 701 438
f 438 701 703
f 438 703 440
f 440 703 705
f 440 705 442
f 442 705 707
f 442 707 444
f 444 707 709
f 444 709 446
f 446 709 711
f 446 711 713
f 446 713 448
f 448 713 715
f 448 715 450
f 450 715 717
f 450 717 452
f 452 717 719
f 452 719 454
f 454 719 721
f 454 721 723
f 454 723 456
f 456 723 725
f 456 725 458
f 458 725 727
f 458 727 460
f 460 727 729
f 460 729 398
f 398 729 653
f 398 653 400
f 731 732 733
f 733 732 734
f 733 734 735
f 735 734 736
f 735 736 737
f 737 736 738
f 737 738 739
f 739 738 740
f 739 740 741
f 741 740 742
f 741 742 743
f 743 742 744
f 743 744 745
f 745 744 746
f 745 746 747
f 747 746 748
f 747 748 749
f 749 748 750
f 749 750 751
f 751 750 752
f 751 752 753
f 753 752 754
f 753 754 755
f 755 754 756
f 755 756 757
f 757 756 758
f 757 758 759
f 759 758 760
f 759 760 761
f 761 760 762
f 761 762 763
f 763 762 764
f 763 764 765
f 765 764 766
f 765 766 767
f 767 766 768
f 767 768 769
f 769 768 770
f 769 770 771
f 771 770 772
f 771 772 773
f 773 772 774
f 773 774 775
f 775 774 776
f 775 776 777
f 777 776 778
f 777 778 779
f 779 778 780
f 779 780 781
f 781 780 782
f 781 782 783
f 783 782 784
f 783 784 785
f 785 784 786
f 785 786 787
f 787 786 788
f 787 788 789
f 789 788 790
f 789 790 791
f 791 790 792
f 791 792 793
f 793 792 794
f 793 794 795
f 795 794 796
f 795 796 797
f 797 796 798
f 797 798 799
f 799 798 800
f 799 800 801
f 801 800 802
f 801 802 803
f 803 802 804
f 803 804 805
f 805 804 806
f 805 806 807
f 807 806 808
f 807 808 731
f 731 808 732
f 731 733 528
f 528 733 735
f 528 735 530
f 530 735 737
f 530 737 532
f 532 737 739
f 532 739 534
f 534 739 741
f 534 741 536
f 536 741 743
f 536 743 538
f 538 743 745
f 538 745 747
f 538 747 540
f 540 747 749
f 540 749 542
f 542 749 751
f 542 751 544
f 544 751 753
f 544 753 546
f 546 753 755
f 546 755 757
f 546 757 548
f 548 757 759
f 548 759 550
f 550 759 761
f 550 761 552
f 552 761 763
f 552 763 554
f 554 763 765
f 554 765 556
f 556 765 767
f 556 767 769
f 556 769 558
f 558 769 771
f 558 771 560
f 560 771 773
f 560 773 562
f 562 773 775
f 562 775 564
f 564 775 777
f 564 777 779
f 564 779 566
f 566 779 781
f 566 781 568
f 568 781 783
f 568 783 570
f 570 783 785
f 570 785 572
f 572 785 787
f 572 787 574
f 574 787 789
f 574 789 791
f 574 791 576
f 576 791 793
f 576 793 578
f 578 793 795
f 578 795 580
f 580 795 797
f 580 797 582
f 582 797 799
f 582 799 801
f 582 801 584
f 584 801 803
f 584 803 586
f 586 803 805
f 586 805 588
f 588 805 807
f 588 807 526
f 526 807 731
f 526 731 528
f 809 810 811
f 811 810 812
f 811 812 813
f 813 812 814
f 813 814 815
f 815 814 816
f 815 816 817
f 817 816 818
f 817 818 819
f 819 818 820
f 819 820 821
f 821 820 822
f 821 822 823
f 823 822 824
f 823 824 825
f 825 824 826
f 825 826 827
f 827 826 828
f 827 828 829
f 829 828 830
f 829 830 831
f 831 830 832
f 831 832 833
f 833 832 834
f 833 834 835
f 835 834 836
f 835 836 837
f 837 836 838
f 837 838 839
f 839 838 840
f 839 840 841
f 841 840 842
f 841 842 843
f 843 842 844
f 843 844 845
f 845 844 846
f 845 846 847
f 847 846 848
f 847 848 849
f 849 848 850
f 849 850 851
f 851 850 852
f 851 852 853
f 853 852 854
f 853 854 855
f 855 854 856
f 855 856 857
f 857 856 858
f 857 858 859
f 859 858 860
f 859 860 861
f 861 860 862
f 861 862 863
f 863 862 864
f 863 864 865
f 865 864 866
f 865 866 867
f 867 866 868
f 867 868 869
f 869 868 870
f 869 870 871
f 871 870 872
f 871 872 873
f 873 872 874
f 873 874 875
f 875 874 876
f 875 876 877
f 877 876 878
f 877 878 879
f 879 878 880
f 879 880 881
f 881 880 882
f 881 882 883
f 883 882 884
f 883 884 885
f 885 884 886
f 885 886 809
f 809 886 810
f 809 811 495
f 495 811 813
f 495 813 493
f 493 813 815
f 493 815 491
f 491 815 817
f 491 817 489
f 489 817 819
f 489 819 487
f 487 819 821
f 487 821 485
f 485 821 823
f 485 823 825
f 485 825 483
f 483 825 827
f 483 827 481
f 481 827 829
f 481 829 479
f 479 829 831
f 479 831 477
f 477 831 833
f 477 833 835
f 477 835 475
f 475 835 837
f 475 837 473
f 473 837 839
f 473 839 471
f 471 839 841
f 471 841 469
f 469 841 843
f 469 843 467
f 467 843 845
f 467 845 847
f 467 847 465
f 465 847 849
f 465 849 463
f 463 849 851
f 463 851 461
f 461 851 853
f 461 853 523
f 523 853 855
f 523 855 857
f 523 857 521
f 521 857 859
f 521 859 519
f 519 859 861
f 519 861 517
f 517 861 863
f 517 863 515
f 515 863 865
f 515 865 513
f 513 865 867
f 513 867 869
f 513 869 511
f 511 869 871
f 511 871 509
f 509 871 873
f 509 873 507
f 507 873 875
f 507 875 505
f 505 875 877
f 505 877 879
f 505 879 503
f 503 879 881
f 503 881 501
f 501 881 883
f 501 883 499
f 499 883 885
f 499 885 497
f 497 885 809
f 497 809 495
f 887 888 889
f 889 888 890
f 889 890 891
f 891 890 892
f 891 892 893
f 893 892 894
f 893 894 895
f 895 894 896
f 895 896 897
f 897 896 898
f 897 898 899
f 899 898 900
f 899 900 901
f 901 900 902
f 901 902 903
f 903 902 904
f 903 904 905
f 905 904 906
f 905 906 907
f 907 906 908
f 907 908 909
f 909 908 910
f 909 910 911
f 911 910 912
f 911 912 913
f 913 912 914
f 913 914 915
f 915 914 916
f 915 916 917
f 917 916 918
f 917 918 919
f 919 918 920
f 919 920 921
f 921 920 922
f 921 922 923
f 923 922 924
f 923 924 925
f 925 924 926
f 925 926 927
f 927 926 928
f 927 928 929
f 929 928 930
f 929 930 931
f 931 930 932
f 931 932 933
f 933 932 934
f 933 934 935
f 935 934 936
f 935 936 937
f 937 936 938
f 937 938 939
f 939 938 940
f 939 940 941
f 941 940 942
f 941 942 943
f 943 942 944
f 943 944 945
f 945 944 946
f 945 946 947
f 947 946 948
f 947 948 949
f 949 948 950
f 949 950 951
f 951 950 952
f 951 952 953
f 953 952 954
f 953 954 955
f 955 954 956
f 955 956 957
f 957 956 958
f 957 958 959
f 959 958 960
f 959 960 961
f 961 960 962
f 961 962 963
f 963 962 964
f 963 964 887
f 887 964 888
f 887 889 623
f 623 889 891
f 623 891 621
f 621 891 893
f 621 893 619
f 619 893 895
f 619 895 617
f 617 895 897
f 617 897 615
f 615 897 899
f 615 899 613
f 613 899 901
f 613 901 903
f 613 903 611
f 611 903 905
f 611 905 609
f 609 905 907
f 609 907 607
f 607 907 909
f 607 909 605
f 605 909 911
f 605 911 913
f 605 913 603
f 603 913 915
f 603 915 601
f 601 915 917
f 601 917 599
f 599 917 919
f 599 919 597
f 597 919 921
f 597 921 595
f 595 921 923
f 595 923 925
f 595 925 593
f 593 925 927
f 593 927 591
f 591 927 929
f 591 929 589
f 589 929 931
f 589 931 651
f 651 931 933
f 651 933 935
f 651 935 649
f 649 935 937
f 649 937 647
f 647 937 939
f 647 939 645
f 645 939 941
f 645 941 643
f 643 941 943
f 643 943 641
f 641 943 945
f 641 945 947
f 641 947 639
f 639 947 949
f 639 949 637
f 637 949 951
f 637 951 635
f 635 951 953
f 635 953 633
f 633 953 955
f 633 955 957
f 633 957 631
f 631 957 959
f 631 959 629
f 629 959 961
f 629 961 627
f 627 961 963
f 627 963 625
f 625 963 887
f 625 887 623
f 22 20 965
f 965 20 140
f 965 140 966
f 966 140 139
f 966 139 967
f 967 139 138
f 967 138 968
f 968 138 124
f 968 124 969
f 969 124 123
f 969 123 970
f 970 123 122
f 970 122 971
f 971 122 120
f 971 120 972
f 972 120 118
f 972 118 973
f 973 118 115
f 973 115 974
f 974 115 113
f 974 113 975
f 975 113 110
f 975 110 976
f 976 110 108
f 976 108 977
f 977 108 106
f 977 106 978
f 978 106 103
f 978 103 979
f 979 103 101
f 979 101 980
f 980 101 98
f 980 98 981
f 981 98 96
f 981 96 982
f 982 96 94
f 982 94 983
f 983 94 90
f 983 90 984
f 984 90 89
f 984 89 985
f 985 89 87
f 985 87 986
f 986 87 93
f 986 93 987
f 987 93 92
f 987 92 988
f 988 92 91
f 988 91 144
f 144 91 85
f 24 25 989
f 989 25 990
f 989 990 991
f 991 990 992
f 991 992 993
f 993 992 994
f 993 994 995
f 995 994 996
f 995 996 997
f 997 996 998
f 997 998 999
f 999 998 1000
f 999 1000 1001
f 1001 1000 1002
f 1001 1002 1003
f 1003 1002 1004
f 1003 1004 1005
f 1005 1004 1006
f 1005 1006 1007
f 1007 1006 1008
f 1007 1008 1009
f 1009 1008 1010
f 1009 1010 1011
f 1011 1010 1012
f 1011 1012 1013
f 1013 1012 1014
f 1013 1014 1015
f 1015 1014 1016
f 1015 1016 1017
f 1017 1016 1018
f 1017 1018 1019
f 1019 1018 1020
f 1019 1020 1021
f 1021 1020 1022
f 1021 1022 1023
f 1023 1022 1024
f 1023 1024 1025
f 1025 1024 1026
f 1025 1026 1027
f 1027 1026 1028
f 1027 1028 1029
f 1029 1028 1030
f 1029 1030 1031
f 1031 1030 1032
f 1031 1032 1033
f 1033 1032 1034
f 1033 1034 1035
f 1035 1034 1036
f 1035 1036 146
f 146 1036 152
f 148 147 1037
f 1037 147 1038
f 1037 1038 1039
f 1039 1038 1040
f 1039 1040 1041
f 1041 1040 1042
f 1041 1042 1043
f 1043 1042 1044
f 1043 1044 1045
f 1045 1044 1046
f 1045 1046 1047
f 1047 1046 1048
f 1047 1048 1049
f 1049 1048 1050
f 1049 1050 1051
f 1051 1050 1052
f 1051 1052 1053
f 1053 1052 1054
f 1053 1054 1055
f 1055 1054 1056
f 1055 1056 1057
f 1057 1056 1058
f 1057 1058 1059
f 1059 1058 1060
f 1059 1060 1061
f 1061 1060 1062
f 1061 1062 1063
f 1063 1062 1064
f 1063 1064 1065
f 1065 1064 1066
f 1065 1066 1067
f 1067 1066 1068
f 1067 1068 1069
f 1069 1068 1070
f 1069 1070 1071
f 1071 1070 1072
f 1071 1072 1073
f 1073 1072 1074
f 1073 1074 1075
f 1075 1074 1076
f 1075 1076 1077
f 1077 1076 1078
f 1077 1078 1079
f 1079 1078 1080
f 1079 1080 1081
f 1081 1080 1082
f 1081 1082 1083
f 1083 1082 1084
f 1083 1084 17
f 17 1084 18
f 1085 150 1086
f 1086 150 149
f 151 1087 145
f 145 1087 1088
f 15 16 1089
f 1089 16 1090
f 1089 1090 1091
f 1089 1091 1092
f 1092 1091 1093
f 1092 1093 1094
f 1094 1093 1095
f 1094 1095 1096
f 1096 1095 1097
f 1096 1097 1098
f 1098 1097 1099
f 1098 1099 1100
f 1100 1099 1101
f 1100 1101 1102
f 1102 1101 1103
f 1102 1103 1104
f 1104 1103 1105
f 1104 1105 1106
f 1106 1105 1107
f 1106 1107 1108
f 1108 1107 1109
f 1108 1109 1110
f 1110 1109 1111
f 1110 1111 1112
f 1112 1111 1113
f 1112 1113 1114
f 1114 1113 1115
f 1114 1115 1116
f 1116 1115 1117
f 1116 1117 1118
f 1118 1117 1119
f 1118 1119 1120
f 1120 1119 1121
f 1120 1121 1122
f 1122 1121 1123
f 1122 1123 1124
f 1124 1123 1125
f 1124 1125 1126
f 1126 1125 1127
f 1126 1127 1128
f 1128 1127 1129
f 1128 1129 1130
f 1130 1129 1131
f 1130 1131 1132
f 1132 1131 1133
f 1132 1133 1134
f 1134 1133 1135
f 1134 1135 1136
f 1136 1135 1086
f 1086 1135 1085
f 1088 1087 1137
f 1137 1087 1138
f 1137 1138 1139
f 1137 1139 1140
f 1140 1139 1141
f 1140 1141 1142
f 1142 1141 1143
f 1142 1143 1144
f 1144 1143 1145
f 1144 1145 1146
f 1146 1145 1147
f 1146 1147 1148
f 1148 1147 1149
f 1148 1149 1150
f 1150 1149 1151
f 1150 1151 1152
f 1152 1151 1153
f 1152 1153 1154
f 1154 1153 1155
f 1154 1155 1156
f 1156 1155 1157
f 1156 1157 1158
f 1158 1157 1159
f 1158 1159 1160
f 1160 1159 1161
f 1160 1161 1162
f 1162 1161 1163
f 1162 1163 1164
f 1164 1163 1165
f 1164 1165 1166
f 1166 1165 1167
f 1166 1167 1168
f 1168 1167 1169
f 1168 1169 1170
f 1170 1169 1171
f 1170 1171 1172
f 1172 1171 1173
f 1172 1173 1174
f 1174 1173 1175
f 1174 1175 1176
f 1176 1175 1177
f 1176 1177 1178
f 1178 1177 1179
f 1178 1179 1180
f 1180 1179 1181
f 1180 1181 1182
f 1182 1181 1183
f 1182 1183 1184
f 1184 1183 23
f 23 1183 26
f 1036 640 152
f 152 640 638
f 152 638 636
f 1036 1034 640
f 640 1034 1032
f 640 1032 642
f 642 1032 1030
f 642 1030 1028
f 1028 1026 642
f 642 1026 644
f 644 1026 1024
f 644 1024 646
f 646 1024 1022
f 646 1022 648
f 648 1022 1020
f 648 1020 650
f 650 1020 1018
f 650 1018 652
f 652 1018 1016
f 652 1016 590
f 590 1016 1014
f 590 1014 592
f 592 1014 1012
f 592 1012 594
f 594 1012 1010
f 594 1010 596
f 596 1010 1008
f 596 1008 598
f 598 1008 1006
f 598 1006 600
f 600 1006 1004
f 600 1004 602
f 602 1004 1002
f 602 1002 604
f 604 1002 1000
f 604 1000 606
f 606 1000 998
f 606 998 996
f 996 994 606
f 606 994 608
f 608 994 992
f 608 992 990
f 990 25 608
f 608 25 610
f 610 25 612
f 612 25 972
f 612 972 614
f 614 972 973
f 614 973 616
f 616 973 974
f 616 974 618
f 618 974 975
f 618 975 620
f 620 975 622
f 622 975 976
f 622 976 624
f 624 976 977
f 624 977 626
f 626 977 978
f 626 978 628
f 628 978 630
f 630 978 979
f 630 979 632
f 632 979 980
f 632 980 634
f 634 980 981
f 634 981 636
f 636 981 152
f 22 965 25
f 25 965 966
f 25 966 967
f 967 968 25
f 25 968 969
f 25 969 970
f 970 971 25
f 25 971 972
f 981 982 152
f 152 982 983
f 152 983 984
f 984 985 152
f 152 985 986
f 152 986 987
f 987 988 152
f 152 988 144
f 1183 480 26
f 26 480 478
f 26 478 476
f 480 1183 482
f 482 1183 1181
f 482 1181 1179
f 482 1179 484
f 484 1179 1177
f 484 1177 1175
f 484 1175 486
f 486 1175 1173
f 486 1173 1171
f 486 1171 488
f 488 1171 1169
f 488 1169 490
f 490 1169 1167
f 490 1167 1165
f 490 1165 492
f 492 1165 1163
f 492 1163 494
f 494 1163 1161
f 494 1161 496
f 496 1161 1159
f 496 1159 1157
f 496 1157 498
f 498 1157 1155
f 498 1155 500
f 500 1155 1153
f 500 1153 502
f 502 1153 1151
f 502 1151 504
f 504 1151 1149
f 504 1149 1147
f 504 1147 506
f 506 1147 1145
f 506 1145 1143
f 506 1143 508
f 508 1143 1141
f 508 1141 510
f 510 1141 1139
f 510 1139 1138
f 1138 1087 510
f 510 1087 512
f 512 1087 514
f 514 1087 516
f 516 1087 518
f 518 1087 143
f 518 143 520
f 520 143 522
f 522 143 524
f 524 143 462
f 462 143 464
f 464 143 21
f 464 21 466
f 466 21 468
f 468 21 470
f 470 21 472
f 472 21 474
f 474 21 26
f 474 26 476
f 1087 151 143
f 1037 1039 148
f 148 1039 1041
f 148 1041 1043
f 148 1043 792
f 792 1043 1045
f 792 1045 1047
f 792 1047 794
f 794 1047 1049
f 794 1049 796
f 796 1049 798
f 798 1049 1051
f 798 1051 800
f 800 1051 802
f 802 1051 1053
f 802 1053 804
f 804 1053 1055
f 804 1055 806
f 806 1055 1057
f 806 1057 808
f 808 1057 732
f 732 1057 1059
f 732 1059 734
f 734 1059 1061
f 734 1061 736
f 736 1061 1063
f 736 1063 738
f 738 1063 740
f 740 1063 1065
f 740 1065 742
f 742 1065 1067
f 742 1067 744
f 744 1067 1069
f 744 1069 746
f 746 1069 748
f 748 1069 1071
f 748 1071 750
f 750 1071 752
f 752 1071 1073
f 752 1073 754
f 754 1073 1075
f 754 1075 1077
f 754 1077 17
f 17 1077 1079
f 17 1079 1081
f 1081 1083 17
f 15 264 17
f 17 264 262
f 17 262 756
f 756 262 260
f 756 260 758
f 758 260 258
f 758 258 760
f 760 258 256
f 760 256 762
f 762 256 254
f 762 254 764
f 764 254 252
f 764 252 766
f 766 252 250
f 766 250 768
f 768 250 248
f 768 248 770
f 770 248 246
f 770 246 772
f 772 246 244
f 772 244 774
f 774 244 242
f 774 242 776
f 776 242 318
f 776 318 778
f 778 318 316
f 778 316 780
f 780 316 314
f 780 314 782
f 782 314 312
f 782 312 784
f 784 312 310
f 784 310 786
f 786 310 308
f 786 308 788
f 788 308 306
f 788 306 790
f 790 306 304
f 790 304 148
f 148 304 302
f 148 302 149
f 149 302 300
f 149 300 1086
f 1086 300 298
f 1086 298 718
f 718 298 720
f 720 298 296
f 720 296 722
f 722 296 294
f 722 294 724
f 724 294 292
f 724 292 726
f 726 292 290
f 726 290 728
f 728 290 288
f 728 288 730
f 730 288 286
f 730 286 654
f 654 286 284
f 654 284 656
f 656 284 282
f 656 282 658
f 658 282 280
f 658 280 660
f 660 280 278
f 660 278 662
f 662 278 276
f 662 276 664
f 664 276 274
f 664 274 666
f 666 274 272
f 666 272 668
f 668 272 270
f 668 270 670
f 670 270 268
f 670 268 672
f 672 268 15
f 672 15 674
f 674 15 1096
f 674 1096 1098
f 1089 1092 15
f 15 1092 1094
f 15 1094 1096
f 674 1098 676
f 676 1098 1100
f 676 1100 1102
f 1104 680 1102
f 1102 680 678
f 1102 678 676
f 1106 684 1104
f 1104 684 682
f 1104 682 680
f 684 1106 686
f 686 1106 1108
f 686 1108 688
f 688 1108 1110
f 688 1110 690
f 690 1110 692
f 692 1110 1112
f 692 1112 694
f 694 1112 1114
f 694 1114 696
f 696 1114 1116
f 696 1116 698
f 698 1116 1118
f 698 1118 700
f 700 1118 702
f 702 1118 1120
f 702 1120 704
f 704 1120 1122
f 704 1122 706
f 706 1122 708
f 708 1122 1124
f 708 1124 710
f 710 1124 712
f 712 1124 1126
f 712 1126 714
f 714 1126 1128
f 714 1128 716
f 716 1128 1130
f 716 1130 1132
f 1132 1134 716
f 716 1134 1086
f 716 1086 718
f 1134 1136 1086
f 268 266 15
f 15 266 264
f 792 790 148
f 756 754 17
f 150 1085 142
f 142 1085 453
f 142 453 455
f 1135 445 1085
f 1085 445 447
f 1085 447 449
f 1135 1133 445
f 445 1133 1131
f 445 1131 443
f 443 1131 1129
f 443 1129 441
f 441 1129 1127
f 441 1127 1125
f 441 1125 439
f 439 1125 1123
f 439 1123 1121
f 439 1121 437
f 437 1121 1119
f 437 1119 435
f 435 1119 1117
f 435 1117 433
f 433 1117 1115
f 433 1115 431
f 431 1115 1113
f 431 1113 1111
f 431 1111 429
f 429 1111 1109
f 429 1109 427
f 427 1109 1107
f 427 1107 425
f 425 1107 1105
f 425 1105 1103
f 425 1103 423
f 423 1103 1101
f 423 1101 421
f 421 1101 1099
f 421 1099 1097
f 421 1097 419
f 419 1097 1095
f 419 1095 1093
f 419 1093 417
f 417 1093 1091
f 417 1091 1090
f 417 1090 415
f 415 1090 16
f 415 16 413
f 413 16 411
f 411 16 409
f 409 16 14
f 409 14 407
f 407 14 405
f 405 14 403
f 403 14 401
f 401 14 399
f 399 14 142
f 399 142 397
f 397 142 459
f 459 142 457
f 457 142 455
f 449 451 1085
f 1085 451 453
f 1084 543 18
f 18 543 545
f 18 545 547
f 1084 1082 543
f 543 1082 1080
f 543 1080 541
f 541 1080 1078
f 541 1078 1076
f 1076 1074 541
f 541 1074 539
f 539 1074 1072
f 539 1072 537
f 537 1072 1070
f 537 1070 535
f 535 1070 1068
f 535 1068 533
f 533 1068 1066
f 533 1066 531
f 531 1066 1064
f 531 1064 529
f 529 1064 1062
f 529 1062 527
f 527 1062 1060
f 527 1060 525
f 525 1060 1058
f 525 1058 587
f 587 1058 1056
f 587 1056 585
f 585 1056 1054
f 585 1054 583
f 583 1054 1052
f 583 1052 581
f 581 1052 1050
f 581 1050 579
f 579 1050 1048
f 579 1048 577
f 577 1048 1046
f 577 1046 1044
f 1044 1042 577
f 577 1042 575
f 575 1042 1040
f 575 1040 1038
f 1038 147 575
f 575 147 573
f 573 147 571
f 571 147 160
f 571 160 569
f 569 160 161
f 569 161 567
f 567 161 162
f 567 162 565
f 565 162 163
f 565 163 563
f 563 163 561
f 561 163 164
f 561 164 559
f 559 164 165
f 559 165 557
f 557 165 166
f 557 166 555
f 555 166 553
f 553 166 167
f 553 167 551
f 551 167 168
f 551 168 549
f 549 168 169
f 549 169 547
f 547 169 18
f 141 153 147
f 147 153 154
f 147 154 155
f 155 156 147
f 147 156 157
f 147 157 158
f 158 159 147
f 147 159 160
f 169 170 18
f 18 170 171
f 18 171 172
f 172 173 18
f 18 173 174
f 18 174 175
f 175 176 18
f 18 176 13
f 989 991 24
f 24 991 993
f 24 993 995
f 24 995 908
f 908 995 997
f 908 997 910
f 910 997 999
f 910 999 1001
f 1003 914 1001
f 1001 914 912
f 1001 912 910
f 1005 918 1003
f 1003 918 916
f 1003 916 914
f 1007 922 1005
f 1005 922 920
f 1005 920 918
f 922 1007 924
f 924 1007 1009
f 924 1009 926
f 926 1009 1011
f 926 1011 928
f 928 1011 930
f 930 1011 1013
f 930 1013 932
f 932 1013 1015
f 932 1015 934
f 934 1015 1017
f 934 1017 936
f 936 1017 1019
f 936 1019 938
f 938 1019 940
f 940 1019 1021
f 940 1021 942
f 942 1021 944
f 944 1021 1023
f 944 1023 946
f 946 1023 948
f 948 1023 1025
f 948 1025 1027
f 948 1027 950
f 950 1027 1029
f 950 1029 146
f 146 1029 1031
f 146 1031 1033
f 1033 1035 146
f 145 382 146
f 146 382 380
f 146 380 378
f 382 145 384
f 384 145 1088
f 384 1088 866
f 866 1088 868
f 868 1088 1140
f 868 1140 1142
f 1088 1137 1140
f 868 1142 870
f 870 1142 1144
f 870 1144 1146
f 870 1146 872
f 872 1146 1148
f 872 1148 874
f 874 1148 1150
f 874 1150 876
f 876 1150 878
f 878 1150 1152
f 878 1152 880
f 880 1152 1154
f 880 1154 882
f 882 1154 884
f 884 1154 1156
f 884 1156 886
f 886 1156 1158
f 886 1158 810
f 810 1158 1160
f 810 1160 812
f 812 1160 814
f 814 1160 1162
f 814 1162 816
f 816 1162 1164
f 816 1164 818
f 818 1164 1166
f 818 1166 820
f 820 1166 1168
f 820 1168 822
f 822 1168 824
f 824 1168 1170
f 824 1170 826
f 826 1170 828
f 828 1170 1172
f 828 1172 830
f 830 1172 1174
f 830 1174 832
f 832 1174 1176
f 832 1176 1178
f 832 1178 23
f 23 1178 1180
f 23 1180 1182
f 1182 1184 23
f 24 340 23
f 23 340 338
f 23 338 836
f 836 338 336
f 836 336 838
f 838 336 334
f 838 334 840
f 840 334 332
f 840 332 842
f 842 332 330
f 842 330 844
f 844 330 328
f 844 328 846
f 846 328 326
f 846 326 848
f 848 326 324
f 848 324 850
f 850 324 322
f 850 322 852
f 852 322 320
f 852 320 854
f 854 320 396
f 854 396 856
f 856 396 394
f 856 394 858
f 858 394 392
f 858 392 860
f 860 392 390
f 860 390 862
f 862 390 388
f 862 388 864
f 864 388 386
f 864 386 866
f 866 386 384
f 376 952 378
f 378 952 950
f 378 950 146
f 952 376 954
f 954 376 374
f 954 374 956
f 956 374 372
f 956 372 958
f 958 372 370
f 958 370 960
f 960 370 368
f 960 368 962
f 962 368 366
f 962 366 964
f 964 366 364
f 964 364 888
f 888 364 362
f 888 362 890
f 890 362 360
f 890 360 892
f 892 360 358
f 892 358 894
f 894 358 356
f 894 356 896
f 896 356 354
f 896 354 898
f 898 354 352
f 898 352 900
f 900 352 350
f 900 350 902
f 902 350 348
f 902 348 904
f 904 348 346
f 904 346 906
f 906 346 344
f 906 344 908
f 908 344 24
f 344 342 24
f 24 342 340
f 836 834 23
f 23 834 832
f 19 21 7
f 7 21 143
f 7 143 142
f 7 142 8
f 8 142 14
f 8 14 12

